<svg id="레이어_1" data-name="레이어 1" xmlns="http://www.w3.org/2000/svg" viewBox="0 0 118.73 118.73"><defs><style>.cls-1{fill:#fff;stroke-width:4px;}.cls-1,.cls-2{stroke:#468676;stroke-linecap:round;stroke-linejoin:round;}.cls-2{fill:none;stroke-width:3px;}</style></defs><rect class="cls-1" x="2" y="2" width="114.73" height="114.73" rx="20.4"/><path class="cls-2" d="M289.89,374.91l4.41,4.77a11.83,11.83,0,0,0-3.95,8c-.37,5.19-8.54,9.83-14.15,4.66s-1.07-13,3.12-13.59,6,0,7.78-1.44A32.25,32.25,0,0,0,289.89,374.91Z" transform="translate(-213.93 -324.81)"/><path class="cls-2" d="M291.34,383.75a11.79,11.79,0,0,0-1,3.94c-.37,5.19-8.54,9.83-14.15,4.66s-1.07-13,3.12-13.59c3.77-.56,5.6-.14,7.24-1.07a17.27,17.27,0,0,0-6.06-3.53c-13.2-4.33-19.55,2.89-19.55,2.89s-2,2-6.19.63c0,0-8.59-.16-7.94,10s23.44,15.66,23.44,15.66,16.4,4.72,22-.1C295.74,400.21,295.4,391.12,291.34,383.75Z" transform="translate(-213.93 -324.81)"/><path class="cls-2" d="M301.66,373.46c.39-3.2-2.41-2.79-2.41-2.79s1.59-2.8-2.41-2.78-2,4-2,4l-4,4.06,2.42,2.62,3.81-3.29C298.68,376.47,301.28,376.65,301.66,373.46Z" transform="translate(-213.93 -324.81)"/></svg>