<svg id="레이어_1" data-name="레이어 1" xmlns="http://www.w3.org/2000/svg" viewBox="0 0 118.68 118.68"><defs><style>.cls-1{fill:#468676;stroke:#468676;stroke-width:4px;}.cls-1,.cls-2{stroke-linecap:round;stroke-linejoin:round;}.cls-2{fill:none;stroke:#fff;stroke-width:3px;}</style></defs><rect class="cls-1" x="216.07" y="326.96" width="114.44" height="114.44" rx="20.4" transform="translate(-215.2 -323.95) rotate(-0.19)"/><path class="cls-2" d="M289.82,374.88l4.42,4.75a11.74,11.74,0,0,0-3.92,8c-.36,5.18-8.49,9.82-14.11,4.69s-1.1-12.94,3.08-13.57,6-.05,7.76-1.45A32.48,32.48,0,0,0,289.82,374.88Z" transform="translate(-213.96 -324.84)"/><path class="cls-2" d="M291.29,383.7a11.68,11.68,0,0,0-1,3.93c-.36,5.18-8.49,9.82-14.11,4.69s-1.1-12.94,3.08-13.57c3.76-.56,5.59-.16,7.21-1.09a17.31,17.31,0,0,0-6.05-3.5c-13.18-4.27-19.5,2.95-19.5,2.95s-2,2-6.17.65c0,0-8.56-.13-7.88,10s23.43,15.54,23.43,15.54,16.37,4.65,21.91-.17C295.74,400.1,295.36,391,291.29,383.7Z" transform="translate(-213.96 -324.84)"/><path class="cls-2" d="M301.56,373.39c.37-3.19-2.42-2.77-2.42-2.77s1.57-2.8-2.41-2.76-2,4-2,4l-4,4.05,2.42,2.61,3.79-3.3C298.59,376.41,301.18,376.58,301.56,373.39Z" transform="translate(-213.96 -324.84)"/></svg>