<svg id="레이어_1" data-name="레이어 1" xmlns="http://www.w3.org/2000/svg" viewBox="0 0 119.73 119.73"><defs><style>.cls-1{fill:#468676;stroke:#468676;stroke-width:5px;}.cls-1,.cls-2{stroke-linecap:round;stroke-linejoin:round;}.cls-2{fill:none;stroke:#fff;stroke-width:3px;}</style></defs><rect class="cls-1" x="2.5" y="2.5" width="114.73" height="114.73" rx="20.4"/><path class="cls-2" d="M290.51,388.08A8.87,8.87,0,0,0,278,380.74a2.92,2.92,0,0,1-3.18-.47,8.87,8.87,0,0,0-14,10.22,1,1,0,0,1-.44,1.27,8.87,8.87,0,1,0,8.89,15.34,4.11,4.11,0,0,1,4.42,0,8.87,8.87,0,0,0,13.62-6.82,10.59,10.59,0,0,0,0-1.26,7.36,7.36,0,0,1,1.44-4.9A8.86,8.86,0,0,0,290.51,388.08Z" transform="translate(-213.43 -324.31)"/><circle class="cls-2" cx="60.94" cy="68.65" r="6.66"/><path class="cls-2" d="M257.39,374.41l6.6-.13.24-6.2,4.79-1.26c-.14-.17-.3-.34-.45-.51-4.94-5.33-12.28-6.57-16.39-2.77s-3.44,11.22,1.5,16.55l.17.18,3.7,0Z" transform="translate(-213.43 -324.31)"/><path class="cls-2" d="M295,362.62c-3.64-4-10.71-3.58-16,.89l1.21,4.8,6.2.3.07,6.6,5.83-.11v3.7C297.44,373.91,298.68,366.72,295,362.62Z" transform="translate(-213.43 -324.31)"/></svg>