<svg id="레이어_1" data-name="레이어 1" xmlns="http://www.w3.org/2000/svg" viewBox="0 0 118.73 118.73"><defs><style>.cls-1{fill:#fff;stroke-width:4px;}.cls-1,.cls-2,.cls-3{stroke:#468676;stroke-linecap:round;stroke-linejoin:round;}.cls-2,.cls-3{fill:none;}.cls-2{stroke-width:3px;}.cls-3{stroke-width:2px;}.cls-4{fill:#468676;}</style></defs><rect class="cls-1" x="2" y="2" width="114.73" height="114.73" rx="20.4"/><path class="cls-2" d="M250.9,364.77h3.66v-3s11-2.44,22.58,7.94a23.46,23.46,0,0,1,7.6,20.3c3.09-.29,8.12-.1,11.32,3.5,0,0-12.21,1.83-12.82,13.42,0,0-5.14-1.55-4.09-11.72a30.75,30.75,0,0,1-19.71-6.58C247.85,379.42,250.9,364.77,250.9,364.77Z" transform="translate(-213.93 -324.81)"/><path class="cls-2" d="M272.09,365.86,266,363A31,31,0,0,1,272.09,365.86Z" transform="translate(-213.93 -324.81)"/><path class="cls-3" d="M277.14,369.66a35.85,35.85,0,0,0-5.05-3.8l11.77,5.65a4.34,4.34,0,0,1,1.21,7l-1.31,1.34A22.56,22.56,0,0,0,277.14,369.66Z" transform="translate(-213.93 -324.81)"/><path class="cls-3" d="M269.82,393.92l-1.6,1.63a4.36,4.36,0,0,1-7-1.13l-3.75-7.58c.61.59,1.26,1.17,2,1.74A30.26,30.26,0,0,0,269.82,393.92Z" transform="translate(-213.93 -324.81)"/><path class="cls-3" d="M269.21,370.27s-3.1,12.08-15.89,10.92" transform="translate(-213.93 -324.81)"/><circle class="cls-4" cx="47.88" cy="42.43" r="1.55"/></svg>