<svg id="레이어_1" data-name="레이어 1" xmlns="http://www.w3.org/2000/svg" viewBox="0 0 177.1 119.73"><defs><style>.cls-1{fill:#fff;stroke-width:5px;}.cls-1,.cls-2,.cls-3{stroke:#468676;stroke-linecap:round;stroke-linejoin:round;}.cls-2{fill:none;}.cls-2,.cls-3{stroke-width:3px;}.cls-3,.cls-4{fill:#468676;}</style></defs><rect class="cls-1" x="2.5" y="2.5" width="172.1" height="114.73" rx="20.4"/><circle class="cls-2" cx="88.55" cy="59.87" r="32.04"/><circle class="cls-3" cx="88.55" cy="59.87" r="24.11"/><path class="cls-4" d="M321.62,366.48c0-5.22-2.59-9.46-5.79-9.46s-5.8,4.24-5.8,9.46c0,4,1.52,7.4,3.66,8.79v37.88a1.85,1.85,0,0,0,1.85,1.85h.57a1.85,1.85,0,0,0,1.85-1.85V375.27C320.11,373.88,321.62,370.47,321.62,366.48Z" transform="translate(-184.75 -324.31)"/><path class="cls-4" d="M234.43,357v11H232V357h-2.44v11h-2.44V357H225v13.85a4.45,4.45,0,0,0,3.66,4.38v37.9a1.85,1.85,0,0,0,1.85,1.85h.57a1.85,1.85,0,0,0,1.85-1.85v-37.9a4.45,4.45,0,0,0,3.67-4.38V357Z" transform="translate(-184.75 -324.31)"/></svg>