<svg id="레이어_1" data-name="레이어 1" xmlns="http://www.w3.org/2000/svg" viewBox="0 0 118.73 118.73"><defs><style>.cls-1{fill:#468676;stroke:#468676;stroke-width:4px;}.cls-1,.cls-2{stroke-linecap:round;stroke-linejoin:round;}.cls-2{fill:none;stroke:#fff;stroke-width:3px;}</style></defs><rect class="cls-1" x="2" y="2" width="114.73" height="114.73" rx="20.4"/><path class="cls-2" d="M301.07,395.47c-3.06,4.88-14.65,3-17.09,1.22s-9.77-1.83-13.43-1.83-10.37.61-17.7-6.1a16.71,16.71,0,0,1-5.09-16.64c-4.94,7.18-4.3,17.56,1.81,23.16,7.33,6.72,14,6.11,17.7,6.11s11,0,13.43,1.83,14,3.66,17.09-1.22a37.47,37.47,0,0,0,3.48-6.88C301.2,395.24,301.14,395.36,301.07,395.47Z" transform="translate(-213.93 -324.81)"/><path class="cls-2" d="M277.26,365S262,357,253.46,363.73s-7.93,18.31-.61,25,14,6.1,17.7,6.1,11,0,13.43,1.83,14,3.66,17.09-1.22,2.44-13.43-15.26-25.63Z" transform="translate(-213.93 -324.81)"/><ellipse class="cls-2" cx="264.27" cy="379.74" rx="3.15" ry="4.73" transform="translate(-404.36 140.29) rotate(-65.8)"/><path class="cls-2" d="M253.77,370.14s-4.88,8.55,2.44,15.26a20.27,20.27,0,0,0,16.48,4.88s4.88-1.83,12.2,1.22,12.21,2.44,12.21-1.22-4.27-10.37-14-16.48S259.87,360.38,253.77,370.14Z" transform="translate(-213.93 -324.81)"/></svg>