<svg id="레이어_1" data-name="레이어 1" xmlns="http://www.w3.org/2000/svg" viewBox="0 0 118.73 118.73"><defs><style>.cls-1{fill:#468676;stroke:#468676;stroke-width:4px;}.cls-1,.cls-2{stroke-linecap:round;stroke-linejoin:round;}.cls-2{fill:none;stroke:#fff;stroke-width:3px;}</style></defs><rect class="cls-1" x="2" y="2" width="114.73" height="114.73" rx="20.4"/><circle class="cls-2" cx="61.26" cy="61.88" r="17.89"/><path class="cls-2" d="M291.5,379.35c-9.86-11.77-14.4-1.61-14.4-1.61S271.35,372,266.24,379s3.2,11.5,3.2,11.5c-8.92,7,3.75,13.91,3.83,14a17.38,17.38,0,0,0,1.92.1,17.89,17.89,0,0,0,16.31-25.22Z" transform="translate(-213.93 -324.81)"/><path class="cls-2" d="M275.19,384.77s8.61,5.83,11,16" transform="translate(-213.93 -324.81)"/><line class="cls-2" x1="66.2" y1="64.53" x2="68.28" y2="58.68"/><line class="cls-2" x1="63.17" y1="70.82" x2="69.36" y2="68.88"/><path class="cls-2" d="M295,369.44s2.55-9.58-7-9.58c-7.35,0-8.68,6.39-8.91,9.36A17.9,17.9,0,0,1,290.48,396c6-3,9-5.12,9.62-14.39C300.74,372,295,369.44,295,369.44Z" transform="translate(-213.93 -324.81)"/><line class="cls-2" x1="73.39" y1="40.16" x2="72.12" y2="47.18"/><line class="cls-2" x1="81.06" y1="51.02" x2="78.5" y2="57.4"/><path class="cls-2" d="M257.61,390c-2.9.39-8.78,1.94-9.26,8.18-.63,8.3,9,8.3,9,8.3s3.19,6.39,13.41,5.11c8.94-1.12,11.53-5.65,12.47-8.91A17.9,17.9,0,0,1,257.61,390Z" transform="translate(-213.93 -324.81)"/><line class="cls-2" x1="39.54" y1="74.65" x2="46.92" y2="72.69"/><line class="cls-2" x1="50.4" y1="81.68" x2="56.15" y2="79.13"/><path class="cls-2" d="M282.57,403l.4-.18Z" transform="translate(-213.93 -324.81)"/><path class="cls-2" d="M281.55,403.4l.39-.16Z" transform="translate(-213.93 -324.81)"/><path class="cls-2" d="M280.51,403.76l.32-.1Z" transform="translate(-213.93 -324.81)"/><path class="cls-2" d="M280.83,403.66l.72-.26Z" transform="translate(-213.93 -324.81)"/><path class="cls-2" d="M279.49,404.05c.34-.09.68-.18,1-.29C280.17,403.87,279.83,404,279.49,404.05Z" transform="translate(-213.93 -324.81)"/><path class="cls-2" d="M291.71,393.52c.05-.1.09-.21.13-.31C291.8,393.31,291.76,393.42,291.71,393.52Z" transform="translate(-213.93 -324.81)"/><path class="cls-2" d="M292.09,392.53l.06-.18Z" transform="translate(-213.93 -324.81)"/><path class="cls-2" d="M291.29,394.45l.14-.28Z" transform="translate(-213.93 -324.81)"/><path class="cls-2" d="M291.84,393.21c.08-.23.17-.45.25-.68C292,392.76,291.92,393,291.84,393.21Z" transform="translate(-213.93 -324.81)"/><path class="cls-2" d="M291.43,394.17c.1-.22.19-.43.28-.65C291.62,393.74,291.53,394,291.43,394.17Z" transform="translate(-213.93 -324.81)"/><path class="cls-2" d="M291.29,394.45a17.94,17.94,0,0,1-8.32,8.34l.21-.1a11.09,11.09,0,0,1-2.49,4.52h0a15,15,0,0,0,12.38-2.64c5.75-4.47,3.2-12.3,3.2-12.3h0a23.31,23.31,0,0,1-5.79,3.7A17,17,0,0,0,291.29,394.45Z" transform="translate(-213.93 -324.81)"/><path class="cls-2" d="M292.39,391.59l-.24.76c.08-.25.17-.5.24-.75Z" transform="translate(-213.93 -324.81)"/><path class="cls-2" d="M281.94,403.24l.63-.27Z" transform="translate(-213.93 -324.81)"/><path class="cls-2" d="M257.82,391a1.6,1.6,0,0,0,.05.21A1.6,1.6,0,0,1,257.82,391Z" transform="translate(-213.93 -324.81)"/><path class="cls-2" d="M257.87,391.16c.11.41.23.82.36,1.22C258.1,392,258,391.57,257.87,391.16Z" transform="translate(-213.93 -324.81)"/><path class="cls-2" d="M280.44,369.59c-.45-.13-.89-.25-1.35-.36C279.55,369.34,280,369.46,280.44,369.59Z" transform="translate(-213.93 -324.81)"/><path class="cls-2" d="M280.61,369.65l-.17-.06Z" transform="translate(-213.93 -324.81)"/><path class="cls-2" d="M280.39,364.19c-1.52-3.52-4.87-6.89-12.23-6.25-14.7,1.28-12.14,11.5-12.14,11.5s-6.39.64-8.94,9.58c-1.78,6.22,1.69,11.2,4,13.66a12.87,12.87,0,0,1,6.56-2.67c.06.32.13.63.21.94a17.62,17.62,0,0,1-.52-4.26,17.89,17.89,0,0,1,21.79-17.46h0A13.41,13.41,0,0,1,280.39,364.19Z" transform="translate(-213.93 -324.81)"/></svg>