<svg id="레이어_1" data-name="레이어 1" xmlns="http://www.w3.org/2000/svg" viewBox="0 0 215.88 229.31"><defs><style>.cls-1{fill:none;}.cls-1,.cls-2{stroke:#468676;stroke-linecap:round;stroke-linejoin:round;stroke-width:5px;}.cls-2,.cls-3{fill:#468676;}</style></defs><path class="cls-1" d="M402.94,492.22s-84.71,9.51-136.66-101.33" transform="translate(-189.56 -294.15)"/><path class="cls-1" d="M395.57,492.39s-54.86-21.57-39.05-101.58c0,0,5.59,17.78,25.24,33.16S395.57,492.39,395.57,492.39Z" transform="translate(-189.56 -294.15)"/><path class="cls-1" d="M360,485.41S307,494.63,289.83,510C289.83,510,338.31,546.85,360,485.41Z" transform="translate(-189.56 -294.15)"/><path class="cls-1" d="M326,467.28s-30.44-4.76-42.87-14.73-24.15-1.83-33.33.24-22.14-1-22.14-1S259.78,501.47,326,467.28Z" transform="translate(-189.56 -294.15)"/><path class="cls-2" d="M347.87,480.35S302.05,449.83,309,376.79C309,376.79,349.5,398.52,347.87,480.35Z" transform="translate(-189.56 -294.15)"/><path class="cls-1" d="M268.88,393.17s-51.35-27.51-46.1-96.52c0,0,15.94,18.56,31.76,20.46S280.75,364.92,268.88,393.17Z" transform="translate(-189.56 -294.15)"/><path class="cls-2" d="M292.72,434.71s-41.09-42.86-100.66-53.64c0,0,21.59,44.68,42.88,47.69S292.72,434.71,292.72,434.71Z" transform="translate(-189.56 -294.15)"/><path class="cls-1" d="M303.16,444.36s43.91-48-11.39-105.67c0,0,3,23.83-6.08,34.24S294.24,443,303.16,444.36Z" transform="translate(-189.56 -294.15)"/><circle class="cls-3" cx="178.31" cy="208.92" r="8.51"/><circle class="cls-3" cx="67.7" cy="103.64" r="8.51"/></svg>