<svg id="레이어_1" data-name="레이어 1" xmlns="http://www.w3.org/2000/svg" viewBox="0 0 199.22 94.67"><defs><style>.cls-1{fill:none;stroke:#468676;stroke-linecap:round;stroke-linejoin:round;stroke-width:4px;}.cls-2{fill:#468676;}</style></defs><path class="cls-1" d="M395.11,375.16s-.76,39.75-25.67,51.51-41.88,3.77-48.67.56S285.5,402.31,243,414.76" transform="translate(-197.89 -373.16)"/><path class="cls-1" d="M282.7,414.12s7,24.74-12.49,41.14C270.21,455.26,262.14,432.78,282.7,414.12Z" transform="translate(-197.89 -373.16)"/><path class="cls-1" d="M281.49,412.67s-7.43,24.61-32.69,27.91C248.8,440.58,254.12,417.3,281.49,412.67Z" transform="translate(-197.89 -373.16)"/><path class="cls-1" d="M242.88,416.19s-9.11,24-34.53,25.61C208.35,441.8,215.25,418.94,242.88,416.19Z" transform="translate(-197.89 -373.16)"/><path class="cls-1" d="M242.78,414.3s-20.64,15.35-42.89,3C199.89,417.26,218,401.73,242.78,414.3Z" transform="translate(-197.89 -373.16)"/><path class="cls-1" d="M389.41,402.69s-20.63,15.34-42.89,3C346.52,405.65,364.66,390.12,389.41,402.69Z" transform="translate(-197.89 -373.16)"/><path class="cls-1" d="M346.9,433.66s-4,25.41-28.51,32.18C318.39,465.84,320.43,442,346.9,433.66Z" transform="translate(-197.89 -373.16)"/><path class="cls-1" d="M315.52,424.34s-23.82-9.66-24.81-35.11C290.71,389.23,313.41,396.66,315.52,424.34Z" transform="translate(-197.89 -373.16)"/><circle class="cls-2" cx="157.2" cy="50.2" r="4.86"/><circle class="cls-2" cx="98.18" cy="50.72" r="4.86"/><circle class="cls-2" cx="49.08" cy="44.86" r="4.86"/></svg>