<svg id="레이어_1" data-name="레이어 1" xmlns="http://www.w3.org/2000/svg" viewBox="0 0 160.14 294.28"><defs><style>.cls-1{fill:none;stroke:#fff;stroke-linecap:round;stroke-linejoin:round;stroke-width:7px;}</style></defs><path class="cls-1" d="M343.73,564.14s-73.41-101.4-43.14-202.87" transform="translate(-217.43 -273.36)"/><path class="cls-1" d="M311.79,510.74S276,457.81,238.7,488.63C238.7,488.63,269,533.53,311.79,510.74Z" transform="translate(-217.43 -273.36)"/><path class="cls-1" d="M315.36,512s51.8-7.87,58.71-60.72C374.07,451.25,311.73,465.42,315.36,512Z" transform="translate(-217.43 -273.36)"/><path class="cls-1" d="M299.73,465.21s-20.51-51.37-78.8-46.48C220.93,418.73,240.9,475.74,299.73,465.21Z" transform="translate(-217.43 -273.36)"/><path class="cls-1" d="M299.84,465.65s47.56-4.15,65.64-63.82C365.48,401.83,300,421.45,299.84,465.65Z" transform="translate(-217.43 -273.36)"/><path class="cls-1" d="M292.5,416.29s.36-64-46.32-72C246.18,344.34,245.89,403.71,292.5,416.29Z" transform="translate(-217.43 -273.36)"/><path class="cls-1" d="M293.3,416.35s18.94-58,65.43-68.37C358.73,348,359.83,410.49,293.3,416.35Z" transform="translate(-217.43 -273.36)"/><path class="cls-1" d="M299.86,363.81s38.6-9.69,24.42-86.95C324.28,276.86,274,324.11,299.86,363.81Z" transform="translate(-217.43 -273.36)"/></svg>