<svg id="레이어_1" data-name="레이어 1" xmlns="http://www.w3.org/2000/svg" viewBox="0 0 210.61 178.99"><defs><style>.cls-1{fill:none;}.cls-1,.cls-2{stroke:#274121;stroke-linecap:round;stroke-linejoin:round;stroke-width:6px;}.cls-2{fill:#274121;}</style></defs><path class="cls-1" d="M374.3,516.8s4.9-92-58.13-129S221.77,369,221.77,369" transform="translate(-196.58 -340.82)"/><path class="cls-1" d="M372.65,486.65s-31.25,13.91-39.86-17.83S373.6,471.34,372.65,486.65Z" transform="translate(-196.58 -340.82)"/><path class="cls-1" d="M375,483.77s24.56,5.68,28.86-16.61-41-1.73-28.16,15.47" transform="translate(-196.58 -340.82)"/><path class="cls-2" d="M362.05,444.33s-33.27-12.24-12.1-36.66S377.45,442.52,362.05,444.33Z" transform="translate(-196.58 -340.82)"/><path class="cls-1" d="M367.89,442s23.24.21,30-15.91-31.62-6.89-29.3,14.78" transform="translate(-196.58 -340.82)"/><path class="cls-1" d="M333.19,400.46s-22.93,39-40.31,19S333.19,400.46,333.19,400.46Z" transform="translate(-196.58 -340.82)"/><path class="cls-1" d="M332.7,400.22s-29.91-19.85-12.45-35.65S351.73,386.94,332.7,400.22Z" transform="translate(-196.58 -340.82)"/><path class="cls-2" d="M295.49,382.13s-33.83,12-34.88-24.46S308.16,366.51,295.49,382.13Z" transform="translate(-196.58 -340.82)"/><path class="cls-1" d="M296.35,380.83S283.75,421.67,259,411.2,283.36,374.17,296.35,380.83Z" transform="translate(-196.58 -340.82)"/><path class="cls-2" d="M248.9,364.58S217.12,405.83,202,367,248.9,364.58,248.9,364.58Z" transform="translate(-196.58 -340.82)"/></svg>