<svg id="레이어_1" data-name="레이어 1" xmlns="http://www.w3.org/2000/svg" viewBox="0 0 486.65 205.54"><defs><style>.cls-1{fill:#274121;stroke:#274121;stroke-miterlimit:10;}.cls-2{fill:#fff;}</style></defs><path class="cls-1" d="M80.36,352.8H65.54l-4.8,11.58H57.32l15.84-38.22-2.82-3.36H78l17.28,41.58h-10ZM79,349.38,73,335l-6,14.4Z" transform="translate(-54.17 -317.73)"/><path class="cls-1" d="M129.32,337.26a17.33,17.33,0,0,1,6.3,1.05,12.42,12.42,0,0,1,4.5,2.91,12.14,12.14,0,0,1,2.7,4.32,15.25,15.25,0,0,1,.9,5.28,15,15,0,0,1-.9,5.25,12.19,12.19,0,0,1-2.7,4.29,12.42,12.42,0,0,1-4.5,2.91,17.33,17.33,0,0,1-6.3,1.05,12.24,12.24,0,0,1-3.39-.51,5.49,5.49,0,0,1-2.67-1.53v-.42l-1.14,2.46h-8.58v-38.1l-3.42-3.42h13.14v16.08a12.75,12.75,0,0,1,2.91-1.2A11.85,11.85,0,0,1,129.32,337.26Zm-2,23.82a4.67,4.67,0,0,0,2.61-.81,7.43,7.43,0,0,0,2.13-2.19,12,12,0,0,0,1.44-3.27,15.12,15.12,0,0,0,0-8,12.54,12.54,0,0,0-1.44-3.27,7.32,7.32,0,0,0-2.13-2.22,4.67,4.67,0,0,0-2.61-.81,5.17,5.17,0,0,0-4,2V359.1A5.35,5.35,0,0,0,127.28,361.08Z" transform="translate(-54.17 -317.73)"/><path class="cls-1" d="M174,337.38a15.68,15.68,0,0,1,5.79,1.05,14.34,14.34,0,0,1,4.62,2.88,13.36,13.36,0,0,1,3.06,4.29,12.69,12.69,0,0,1,1.11,5.28,12.48,12.48,0,0,1-1.11,5.25,13.81,13.81,0,0,1-3.06,4.29,14.07,14.07,0,0,1-4.62,2.91,15.68,15.68,0,0,1-5.79,1.05,15.85,15.85,0,0,1-5.85-1.05,14.07,14.07,0,0,1-4.62-2.91,13.81,13.81,0,0,1-3.06-4.29,12.48,12.48,0,0,1-1.11-5.25,12.69,12.69,0,0,1,1.11-5.28,13.36,13.36,0,0,1,3.06-4.29,14.34,14.34,0,0,1,4.62-2.88A15.85,15.85,0,0,1,174,337.38Zm0,24.12a3.05,3.05,0,0,0,2.16-.84,6.16,6.16,0,0,0,1.47-2.28,14.72,14.72,0,0,0,.84-3.36,29.79,29.79,0,0,0,.27-4.14,30.44,30.44,0,0,0-.27-4.17,14.73,14.73,0,0,0-.84-3.39,6.16,6.16,0,0,0-1.47-2.28,3.05,3.05,0,0,0-2.16-.84,3.24,3.24,0,0,0-2.25.84,6,6,0,0,0-1.5,2.28,14.73,14.73,0,0,0-.84,3.39,30.44,30.44,0,0,0-.27,4.17,29.79,29.79,0,0,0,.27,4.14,14.72,14.72,0,0,0,.84,3.36,6,6,0,0,0,1.5,2.28A3.24,3.24,0,0,0,174,361.5Z" transform="translate(-54.17 -317.73)"/><path class="cls-1" d="M224.9,337.38h9.24v27H226l-1.14-3.06a10,10,0,0,1-3.21,2.22,10.15,10.15,0,0,1-4.17.84,9.6,9.6,0,0,1-4.17-.87,8.9,8.9,0,0,1-3.09-2.4,11.14,11.14,0,0,1-1.95-3.6,15.09,15.09,0,0,1-.75-4.41V340.8l-3.42-3.42h12.6v15.36a26.72,26.72,0,0,0,.18,3.18,11.16,11.16,0,0,0,.6,2.61,4.36,4.36,0,0,0,1.17,1.77,2.76,2.76,0,0,0,1.89.66,3.54,3.54,0,0,0,2.64-1.11,7.5,7.5,0,0,0,1.68-2.91Z" transform="translate(-54.17 -317.73)"/><path class="cls-1" d="M263.57,358.59a2,2,0,0,0,1.47.84,3.41,3.41,0,0,0,2-.51,7.77,7.77,0,0,0,2.1-1.8l1.5,2.28a15.33,15.33,0,0,1-2.82,2.52,15,15,0,0,1-3.15,1.71,10.42,10.42,0,0,1-4,.75,7,7,0,0,1-4.05-1,5.71,5.71,0,0,1-2-2.49,9.71,9.71,0,0,1-.72-3.3q-.09-1.8-.09-3.48V340.8h-4v-3.42h4v-12.3L263,322.8v14.58h6.54v3.42H263v15.6A3.58,3.58,0,0,0,263.57,358.59Z" transform="translate(-54.17 -317.73)"/><path class="cls-1" d="M92.3,422.86,78,464.38H73.94l.06-.06-13.14-38-4-3.42H69.5l10,25.32,8.64-25.32Z" transform="translate(-54.17 -317.73)"/><path class="cls-1" d="M141.26,453.76l-1.68,10.56v.06H110.36V426.22l-2.82-3.42h33.18v7.5l-3.42-4.08H120.2v15.66h14v3.42h-14V461h16Z" transform="translate(-54.17 -317.73)"/><path class="cls-1" d="M196.28,443.68v10.08l-3.42,3.54-2.28,2a15.9,15.9,0,0,1-1.77,1.53,15.22,15.22,0,0,1-1.95,1.23,15.38,15.38,0,0,1-8.46,2.28,20.34,20.34,0,0,1-8.1-1.62,20.71,20.71,0,0,1-11-11,21.06,21.06,0,0,1,0-16.2,21.21,21.21,0,0,1,4.44-6.63,20.6,20.6,0,0,1,6.6-4.47,20.34,20.34,0,0,1,8.1-1.62,15.38,15.38,0,0,1,5.94,1.05,25.63,25.63,0,0,1,5.1,2.91l3.42-4v12.48l-1.05-1.59a23.22,23.22,0,0,0-2.52-3.09,19.35,19.35,0,0,0-3.72-3,8.42,8.42,0,0,0-4.59-1.35,11,11,0,0,0-5.43,1.38,14,14,0,0,0-4.32,3.75,18,18,0,0,0-2.85,5.52,21.78,21.78,0,0,0-1,6.75,20.17,20.17,0,0,0,1.11,6.75,18.39,18.39,0,0,0,3,5.52,14.27,14.27,0,0,0,4.5,3.72,11.73,11.73,0,0,0,5.52,1.35,8.93,8.93,0,0,0,2.76-.39,9.25,9.25,0,0,0,2.28-1.11V447.1l-3.42-3.42Z" transform="translate(-54.17 -317.73)"/><path class="cls-1" d="M246.08,453.76l-1.68,10.56v.06H215.18V426.22l-2.82-3.42h33.18v7.5l-3.42-4.08H225v15.66h14v3.42H225V461h16Z" transform="translate(-54.17 -317.73)"/><path class="cls-1" d="M295.88,426.28H283.76v38.16H274V426.28h-8.76l-3.42,5.4v-8.82h34Z" transform="translate(-54.17 -317.73)"/><path class="cls-1" d="M327.26,452.8H312.44l-4.8,11.58h-3.42l15.84-38.22-2.82-3.36h7.62l17.28,41.58h-10Zm-1.38-3.42-6-14.4-6,14.4Z" transform="translate(-54.17 -317.73)"/><path class="cls-1" d="M392.78,464.32H383L371.06,445.9h-1.14v18.42h-9.78v-38.1l-2.82-3.42h22.8a11,11,0,0,1,4.5.93,11.84,11.84,0,0,1,6.15,6.15,11,11,0,0,1,.93,4.5,11.39,11.39,0,0,1-.84,4.38,11.06,11.06,0,0,1-2.34,3.57,12.42,12.42,0,0,1-3.48,2.49,11,11,0,0,1-4.26,1.08ZM373.7,442.54a8.12,8.12,0,0,0,8.16-8.16,7.91,7.91,0,0,0-.63-3.15,8.42,8.42,0,0,0-1.71-2.58,8.32,8.32,0,0,0-2.52-1.77,8,8,0,0,0-3.06-.72v.06h-4v16.32Z" transform="translate(-54.17 -317.73)"/><path class="cls-1" d="M413.48,464.38V426.22l-3.42-3.42h12.72V461l3.42,3.42Z" transform="translate(-54.17 -317.73)"/><path class="cls-1" d="M464.18,452.8H449.36l-4.8,11.58h-3.42L457,426.16l-2.82-3.36h7.62l17.28,41.58H469Zm-1.38-3.42-6-14.4-6,14.4Z" transform="translate(-54.17 -317.73)"/><path class="cls-1" d="M527.48,422.86v41.52H523.4l-22.86-37.86L500.48,461v3.48h-4l.06-38.16-2.94-3.42H508.1l15.36,24.6v-24.6Z" transform="translate(-54.17 -317.73)"/><path class="cls-2" d="M77.63,347.73H62.81L58,359.31H54.59l15.85-38.22-2.83-3.36h7.62l17.28,41.58h-10Zm-1.38-3.42-6-14.4-6,14.4Z" transform="translate(-54.17 -317.73)"/><path class="cls-2" d="M126.59,332.19a17.33,17.33,0,0,1,6.3,1.05,12.42,12.42,0,0,1,4.5,2.91,12.14,12.14,0,0,1,2.7,4.32,15.25,15.25,0,0,1,.9,5.28,15,15,0,0,1-.9,5.25,12.19,12.19,0,0,1-2.7,4.29,12.42,12.42,0,0,1-4.5,2.91,17.33,17.33,0,0,1-6.3,1.05,12.24,12.24,0,0,1-3.39-.51,5.49,5.49,0,0,1-2.67-1.53v-.42l-1.14,2.46h-8.58v-38.1l-3.42-3.42h13.14v16.08a12.75,12.75,0,0,1,2.91-1.2A11.85,11.85,0,0,1,126.59,332.19Zm-2,23.82a4.67,4.67,0,0,0,2.61-.81,7.43,7.43,0,0,0,2.13-2.19,12,12,0,0,0,1.44-3.27,15.12,15.12,0,0,0,0-8,12.54,12.54,0,0,0-1.44-3.27,7.32,7.32,0,0,0-2.13-2.22,4.67,4.67,0,0,0-2.61-.81,5.17,5.17,0,0,0-4,2V354A5.35,5.35,0,0,0,124.55,356Z" transform="translate(-54.17 -317.73)"/><path class="cls-2" d="M171.23,332.31a15.68,15.68,0,0,1,5.79,1.05,14.34,14.34,0,0,1,4.62,2.88,13.36,13.36,0,0,1,3.06,4.29,12.69,12.69,0,0,1,1.11,5.28,12.48,12.48,0,0,1-1.11,5.25,13.81,13.81,0,0,1-3.06,4.29,14.07,14.07,0,0,1-4.62,2.91,15.68,15.68,0,0,1-5.79,1.05,15.85,15.85,0,0,1-5.85-1.05,14.07,14.07,0,0,1-4.62-2.91,13.81,13.81,0,0,1-3.06-4.29,12.48,12.48,0,0,1-1.11-5.25,12.69,12.69,0,0,1,1.11-5.28,13.36,13.36,0,0,1,3.06-4.29,14.34,14.34,0,0,1,4.62-2.88A15.85,15.85,0,0,1,171.23,332.31Zm0,24.12a3.05,3.05,0,0,0,2.16-.84,6.16,6.16,0,0,0,1.47-2.28,14.72,14.72,0,0,0,.84-3.36,29.79,29.79,0,0,0,.27-4.14,30.44,30.44,0,0,0-.27-4.17,14.73,14.73,0,0,0-.84-3.39,6.16,6.16,0,0,0-1.47-2.28,3.05,3.05,0,0,0-2.16-.84A3.24,3.24,0,0,0,169,336a6,6,0,0,0-1.5,2.28,14.73,14.73,0,0,0-.84,3.39,30.44,30.44,0,0,0-.27,4.17,29.79,29.79,0,0,0,.27,4.14,14.72,14.72,0,0,0,.84,3.36,6,6,0,0,0,1.5,2.28A3.24,3.24,0,0,0,171.23,356.43Z" transform="translate(-54.17 -317.73)"/><path class="cls-2" d="M222.17,332.31h9.24v27h-8.1l-1.14-3.06a10,10,0,0,1-3.21,2.22,10.15,10.15,0,0,1-4.17.84,9.6,9.6,0,0,1-4.17-.87,8.9,8.9,0,0,1-3.09-2.4,11.14,11.14,0,0,1-1.95-3.6,15.09,15.09,0,0,1-.75-4.41v-12.3l-3.42-3.42H214v15.36a26.72,26.72,0,0,0,.18,3.18,11.16,11.16,0,0,0,.6,2.61,4.36,4.36,0,0,0,1.17,1.77,2.76,2.76,0,0,0,1.89.66,3.54,3.54,0,0,0,2.64-1.11,7.5,7.5,0,0,0,1.68-2.91Z" transform="translate(-54.17 -317.73)"/><path class="cls-2" d="M260.84,353.52a2,2,0,0,0,1.47.84,3.41,3.41,0,0,0,2-.51,7.77,7.77,0,0,0,2.1-1.8l1.5,2.28a15.33,15.33,0,0,1-2.82,2.52,15,15,0,0,1-3.15,1.71,10.42,10.42,0,0,1-4,.75,7,7,0,0,1-4.05-1,5.71,5.71,0,0,1-2-2.49,9.71,9.71,0,0,1-.72-3.3q-.09-1.8-.09-3.48V335.73h-4v-3.42h4V320l9.24-2.28v14.58h6.54v3.42h-6.54v15.6A3.58,3.58,0,0,0,260.84,353.52Z" transform="translate(-54.17 -317.73)"/><path class="cls-2" d="M89.57,417.79,75.29,459.31H71.21l.06-.06-13.14-38-4-3.42h12.6l10,25.32,8.65-25.32Z" transform="translate(-54.17 -317.73)"/><path class="cls-2" d="M138.53,448.69l-1.68,10.56v.06H107.63V421.15l-2.82-3.42H138v7.5l-3.42-4.08h-17.1v15.66h14v3.42h-14v15.66h16Z" transform="translate(-54.17 -317.73)"/><path class="cls-2" d="M193.55,438.61v10.08l-3.42,3.54-2.28,2a15.9,15.9,0,0,1-1.77,1.53,15.22,15.22,0,0,1-2,1.23,15.38,15.38,0,0,1-8.46,2.28,20.34,20.34,0,0,1-8.1-1.62,20.71,20.71,0,0,1-11-11,21.06,21.06,0,0,1,0-16.2,21.21,21.21,0,0,1,4.44-6.63,20.6,20.6,0,0,1,6.6-4.47,20.34,20.34,0,0,1,8.1-1.62,15.38,15.38,0,0,1,5.94,1,25.63,25.63,0,0,1,5.1,2.91l3.42-4v12.48l-1-1.59a23.22,23.22,0,0,0-2.52-3.09,19.35,19.35,0,0,0-3.72-3,8.42,8.42,0,0,0-4.59-1.35,11,11,0,0,0-5.43,1.38,14,14,0,0,0-4.32,3.75,18,18,0,0,0-2.85,5.52,21.78,21.78,0,0,0-1,6.75,20.17,20.17,0,0,0,1.11,6.75,18.39,18.39,0,0,0,3,5.52,14.27,14.27,0,0,0,4.5,3.72,11.73,11.73,0,0,0,5.52,1.35,8.93,8.93,0,0,0,2.76-.39,9.25,9.25,0,0,0,2.28-1.11V442l-3.42-3.42Z" transform="translate(-54.17 -317.73)"/><path class="cls-2" d="M243.35,448.69l-1.68,10.56v.06H212.45V421.15l-2.82-3.42h33.18v7.5l-3.42-4.08h-17.1v15.66h14v3.42h-14v15.66h16Z" transform="translate(-54.17 -317.73)"/><path class="cls-2" d="M293.15,421.21H281v38.16h-9.72V421.21h-8.76l-3.42,5.4v-8.82h34Z" transform="translate(-54.17 -317.73)"/><path class="cls-2" d="M324.53,447.73H309.71l-4.8,11.58h-3.42l15.84-38.22-2.82-3.36h7.62l17.28,41.58h-10Zm-1.38-3.42-6-14.4-6,14.4Z" transform="translate(-54.17 -317.73)"/><path class="cls-2" d="M390.05,459.25h-9.78l-11.94-18.42h-1.14v18.42h-9.78v-38.1l-2.82-3.42h22.8a11,11,0,0,1,4.5.93,11.84,11.84,0,0,1,6.15,6.15,11,11,0,0,1,.93,4.5,11.39,11.39,0,0,1-.84,4.38,11.06,11.06,0,0,1-2.34,3.57,12.42,12.42,0,0,1-3.48,2.49,11,11,0,0,1-4.26,1.08ZM371,437.47a8.12,8.12,0,0,0,8.16-8.16,7.91,7.91,0,0,0-.63-3.15,8.42,8.42,0,0,0-1.71-2.58,8.32,8.32,0,0,0-2.52-1.77,8,8,0,0,0-3.06-.72v.06h-4v16.32Z" transform="translate(-54.17 -317.73)"/><path class="cls-2" d="M410.75,459.31V421.15l-3.42-3.42h12.72v38.16l3.42,3.42Z" transform="translate(-54.17 -317.73)"/><path class="cls-2" d="M461.45,447.73H446.63l-4.8,11.58h-3.42l15.84-38.22-2.82-3.36h7.62l17.28,41.58h-10Zm-1.38-3.42-6-14.4-6,14.4Z" transform="translate(-54.17 -317.73)"/><path class="cls-2" d="M524.75,417.79v41.52h-4.08l-22.86-37.86-.06,34.44v3.48h-4l.06-38.16-2.94-3.42h14.52l15.36,24.6v-24.6Z" transform="translate(-54.17 -317.73)"/><path class="cls-2" d="M474.92,513.09a10.17,10.17,0,0,1-1.62,2.5,8.89,8.89,0,0,1-2,1.67,8.13,8.13,0,0,1-4.18,1.23,10.17,10.17,0,0,1-4-.81,10.63,10.63,0,0,1-3.32-2.22,10.29,10.29,0,0,1-2.23-3.3,10.53,10.53,0,0,1,0-8.1,10.38,10.38,0,0,1,5.55-5.55,10.17,10.17,0,0,1,4-.81,12.65,12.65,0,0,1,2.7.31,16.7,16.7,0,0,1,2.7.83l1.53-1.14v6s-.08-.17-.17-.39a6.42,6.42,0,0,0-.42-.81,9.88,9.88,0,0,0-.7-1,5.58,5.58,0,0,0-1-1,5.48,5.48,0,0,0-1.35-.75,4.67,4.67,0,0,0-1.72-.3,5.82,5.82,0,0,0-2.79.69,7.34,7.34,0,0,0-2.25,1.88,9.21,9.21,0,0,0-1.52,2.76,10.11,10.11,0,0,0-.55,3.38,9.26,9.26,0,0,0,.58,3.34,8.69,8.69,0,0,0,1.58,2.66,7.18,7.18,0,0,0,2.31,1.76,6.33,6.33,0,0,0,2.76.63,4,4,0,0,0,2.2-.6,8.77,8.77,0,0,0,1.64-1.32,8.65,8.65,0,0,0,1.35-2Z" transform="translate(-54.17 -317.73)"/><path class="cls-2" d="M491.18,516.78v1.71H477l1.41-1.71V499.41L477,497.7h6.3v19.08Z" transform="translate(-54.17 -317.73)"/><path class="cls-2" d="M494.66,518.49V499.41L493,497.7h6.36v19.08l1.71,1.71Z" transform="translate(-54.17 -317.73)"/><path class="cls-2" d="M521,513.09a10.17,10.17,0,0,1-1.62,2.5,8.89,8.89,0,0,1-2,1.67,8.13,8.13,0,0,1-4.18,1.23,10.17,10.17,0,0,1-4.05-.81,10.63,10.63,0,0,1-3.32-2.22,10.29,10.29,0,0,1-2.23-3.3,10.53,10.53,0,0,1,0-8.1,10.38,10.38,0,0,1,5.55-5.55,10.17,10.17,0,0,1,4.05-.81,12.65,12.65,0,0,1,2.7.31,16.7,16.7,0,0,1,2.7.83l1.53-1.14v6s-.08-.17-.17-.39a6.42,6.42,0,0,0-.42-.81,9.88,9.88,0,0,0-.7-1,5.58,5.58,0,0,0-1-1,5.48,5.48,0,0,0-1.35-.75,4.67,4.67,0,0,0-1.72-.3,5.82,5.82,0,0,0-2.79.69,7.34,7.34,0,0,0-2.25,1.88,9.21,9.21,0,0,0-1.52,2.76,10.11,10.11,0,0,0-.55,3.38,9.26,9.26,0,0,0,.58,3.34,8.69,8.69,0,0,0,1.58,2.66,7.18,7.18,0,0,0,2.31,1.76,6.33,6.33,0,0,0,2.76.63,4,4,0,0,0,2.2-.6,8.77,8.77,0,0,0,1.64-1.32,8.65,8.65,0,0,0,1.35-2Z" transform="translate(-54.17 -317.73)"/><path class="cls-2" d="M535.91,518.49l-1-1.71-5.49-8.7v10.41h-4.89V499.41l-1.41-1.71h6.3v8.07l6.12-6.36,1.65-1.71h2.31l-1.71,1.71-5.67,5.88,7.59,11.49,1.17,1.71Z" transform="translate(-54.17 -317.73)"/><path class="cls-1" d="M73.38,502.69a17,17,0,0,1-.78,5.48,13.25,13.25,0,0,1-2,3.86q.78.51,1.44,1a4.79,4.79,0,0,1,.9.83,2.34,2.34,0,0,1,.35,1.79,2.37,2.37,0,0,1-2.85,1.86,2.37,2.37,0,0,1-1.52-1,3.14,3.14,0,0,1-.34-.85c-.11-.39-.22-.83-.32-1.31a11.18,11.18,0,0,1-2.8,1.59,21.06,21.06,0,0,1-2.57.81,12.21,12.21,0,0,1-2.61.36,15.34,15.34,0,0,0,4-3.07,14.85,14.85,0,0,0,2.34-3.41,12,12,0,0,0,1.08-3.31,13.78,13.78,0,0,0,.19-2.81H66l-3.18.3-.9-2.13ZM71,500.2a2.18,2.18,0,0,1-1.15,1.16,2.08,2.08,0,0,1-1.64,0,3.52,3.52,0,0,1-1.09-.79c-.45-.43-.9-.88-1.34-1.34s-1.06-1.14-1.62-1.8q1.29-.12,2.4-.18,1-.06,1.89,0a4.84,4.84,0,0,1,1.35.18A2.07,2.07,0,0,1,71,498.54,2.12,2.12,0,0,1,71,500.2Zm8.52-4.35,5.58,1.77-.24,6.84v17.1l-4.32,1V510.28l-1.71.15v9.84l-4.32,1V499.51l-1-1.89,5.61,1.77-.27,4.89v4.14h1.71V497.74Z" transform="translate(-54.17 -317.73)"/><path class="cls-1" d="M103.14,510.79a2.84,2.84,0,0,1-.93.63,2.73,2.73,0,0,1-2.1,0,2.84,2.84,0,0,1-.93-.63,4,4,0,0,1-.55-.78c-.21-.36-.43-.77-.66-1.24s-.46-1-.68-1.5-.42-1-.6-1.52a10,10,0,0,1-1.38,2.06,11.53,11.53,0,0,1-1.62,1.53A10.24,10.24,0,0,1,92,510.42a13.63,13.63,0,0,1-1.7.7,13.34,13.34,0,0,1-4,.66,9.51,9.51,0,0,0,2.4-1.47,10.77,10.77,0,0,0,1.76-1.89,11.73,11.73,0,0,0,1.21-2.1,16.22,16.22,0,0,0,.78-2.13,17.56,17.56,0,0,0,.63-5.16l-1.23-1.53,6.39,1.11a19.39,19.39,0,0,1-.21,3,14.64,14.64,0,0,1-.6,2.49c.48.18,1,.4,1.61.65l1.71.75c.55.25,1,.49,1.48.73a4.27,4.27,0,0,1,.93.63,2.84,2.84,0,0,1,.63.93,2.73,2.73,0,0,1,.21,1.05,2.87,2.87,0,0,1-.21,1.07A2.49,2.49,0,0,1,103.14,510.79Zm8.19,3.81-.3,7.06-4.86.86V514.9H92.94v-1.8h11.19a2.35,2.35,0,0,0,.71-.12,1.5,1.5,0,0,0,.7-.54l5.91.9Zm.09-4.05-5.07,1V497.77l-1.2-1.92,6.54,1.8-.27,6.24Z" transform="translate(-54.17 -317.73)"/><path class="cls-1" d="M122.22,499.66a4.76,4.76,0,0,1,2.7.72,5.8,5.8,0,0,1,1.76,1.83,8.12,8.12,0,0,1,1,2.4A12.17,12.17,0,0,1,128,507h1.32v-7.53l-1-1.89,5.61,1.77-.27,4.89v16l-4.32,1V509l-1.32.12a13.77,13.77,0,0,1-.36,2.42,7.57,7.57,0,0,1-1,2.34,5.83,5.83,0,0,1-1.76,1.77,4.78,4.78,0,0,1-2.67.7h-1.11a4.82,4.82,0,0,1-2.76-.75,5.84,5.84,0,0,1-1.78-1.89,8.5,8.5,0,0,1-1-2.46,11.14,11.14,0,0,1-.3-2.46v-1.56a11.14,11.14,0,0,1,.3-2.46,8.27,8.27,0,0,1,1-2.44,5.91,5.91,0,0,1,1.78-1.88,4.82,4.82,0,0,1,2.76-.75Zm.12,14.52a7.54,7.54,0,0,0,.81-2.37,18.27,18.27,0,0,0,.36-3.81,18.6,18.6,0,0,0-.36-3.85,7.6,7.6,0,0,0-.81-2.39.89.89,0,0,0-.66-.42.91.91,0,0,0-.69.42,7,7,0,0,0-.84,2.39,18.6,18.6,0,0,0-.36,3.85,18.27,18.27,0,0,0,.36,3.81,7,7,0,0,0,.84,2.37.91.91,0,0,0,.69.42A.89.89,0,0,0,122.34,514.18Zm12-18.33,5.58,1.77-.24,6.84v17.1l-4.32,1V497.74Z" transform="translate(-54.17 -317.73)"/><path class="cls-1" d="M169.17,495.73l6.54,1.77-.3,3.27v4.47c.46-.22.9-.41,1.34-.58a3,3,0,0,1,1.06-.26,2.57,2.57,0,0,1,1.79.77,2.31,2.31,0,0,1,.7,1.78,2.42,2.42,0,0,1-.75,1.79,2.48,2.48,0,0,1-1.8.73,2.77,2.77,0,0,1-1-.25c-.41-.17-.85-.38-1.31-.62v6.33l-5,1v-5.1l-17.88,1.62-.6-2.19,4.56-.33-.54-6.39,5.13.39.27,5.67,9.06-.63V497.62Zm-.72,3.3-.12,1.26-.3,6.18-5.13.87v-6.75h-8.73v-1.8h7a2.35,2.35,0,0,0,.71-.12,1.5,1.5,0,0,0,.7-.54Zm8.1,23.58H159.72l-2,.15a2,2,0,0,1-1.51-.51,1.94,1.94,0,0,1-.68-1.44l-.15-7.56,5.76.36v7.2h7.53a1.92,1.92,0,0,0,1.2-.39l.84-.57a3.65,3.65,0,0,1,1.33-.55,3.25,3.25,0,0,1,1.39,0,3.59,3.59,0,0,1,1.24.57,3.09,3.09,0,0,1,.93,1.06Z" transform="translate(-54.17 -317.73)"/><path class="cls-1" d="M190.5,502.6l5.88.75-.12,1.56H181.83v-1.8h6.9a4.78,4.78,0,0,0,.64,0,3.25,3.25,0,0,0,.65-.15A1.1,1.1,0,0,0,190.5,502.6Zm-.63,3.15a7.7,7.7,0,0,1,2.91.48,5.83,5.83,0,0,1,1.89,1.19,4.11,4.11,0,0,1,1,1.53,4.44,4.44,0,0,1,.3,1.51v1a4.49,4.49,0,0,1-.3,1.52,4.11,4.11,0,0,1-1,1.53,5.82,5.82,0,0,1-1.89,1.18,7.7,7.7,0,0,1-2.91.48h-1.23a7.85,7.85,0,0,1-2.93-.48,5.76,5.76,0,0,1-1.9-1.18,4.33,4.33,0,0,1-1.35-3.05v-1a4.24,4.24,0,0,1,.31-1.51,4.3,4.3,0,0,1,1-1.53,5.78,5.78,0,0,1,1.9-1.19,7.85,7.85,0,0,1,2.93-.48Zm2.55-4.92a2.07,2.07,0,0,1-1,.95,2.38,2.38,0,0,1-1.56,0,5.37,5.37,0,0,1-1.2-.66q-.75-.51-1.47-1.11t-1.74-1.5l2.28-.15c.6,0,1.2,0,1.8,0a5.2,5.2,0,0,1,1.38.16,2.25,2.25,0,0,1,1.3,1A1.64,1.64,0,0,1,192.42,500.83Zm-2.25,13a3.07,3.07,0,0,0,1.17-1.11,3.33,3.33,0,0,0,0-3.54,3.07,3.07,0,0,0-1.17-1.11,1.68,1.68,0,0,0-.9-.24,1.74,1.74,0,0,0-.93.24,2.92,2.92,0,0,0-1.19,1.11,3.44,3.44,0,0,0,0,3.54,2.92,2.92,0,0,0,1.19,1.11,1.68,1.68,0,0,0,.93.27A1.63,1.63,0,0,0,190.17,513.82ZM206.85,508a2.48,2.48,0,0,1,1,.2,2.36,2.36,0,0,1,.8.54,2.84,2.84,0,0,1,.53.81,2.74,2.74,0,0,1,.19,1,2.42,2.42,0,0,1-.75,1.79,2.48,2.48,0,0,1-1.8.73,2.17,2.17,0,0,1-1.22-.45,12.67,12.67,0,0,0-1.69-1v10l-5.07,1V497.77l-1.2-1.92,6.57,1.8-.3,6.84v4.8a16.25,16.25,0,0,0,1.74-.93A2.11,2.11,0,0,1,206.85,508Z" transform="translate(-54.17 -317.73)"/><path class="cls-1" d="M218.43,499.66a5.92,5.92,0,0,1,2.23.39,5.53,5.53,0,0,1,1.7,1.05,5.88,5.88,0,0,1,1.18,1.5,8.83,8.83,0,0,1,.74,1.74h4.77v-6.57l-1.2-1.92,6.54,1.77-.3,6.87v17.16l-5,1V512.14h-.51l-4.56.3a8.6,8.6,0,0,1-.81,1.49,5.6,5.6,0,0,1-1.15,1.23,5.67,5.67,0,0,1-1.58.84,6.06,6.06,0,0,1-2,.31H217.2a5.56,5.56,0,0,1-3-.75,6.29,6.29,0,0,1-1.95-1.89,7.68,7.68,0,0,1-1.06-2.46,10.66,10.66,0,0,1-.32-2.46v-1.56a10.66,10.66,0,0,1,.32-2.46,7.48,7.48,0,0,1,1.06-2.44,6.37,6.37,0,0,1,1.95-1.88,5.56,5.56,0,0,1,3-.75Zm.27,14.46a4.1,4.1,0,0,0,.54-.94,9.65,9.65,0,0,0,.48-1.41,13.42,13.42,0,0,0,.34-1.76,15.25,15.25,0,0,0-.33-5.82,6.68,6.68,0,0,0-1-2.37,1.17,1.17,0,0,0-1.74,0,6.15,6.15,0,0,0-1.05,2.37,14.75,14.75,0,0,0-.45,3.81,14.49,14.49,0,0,0,.45,3.77,6.1,6.1,0,0,0,1.05,2.35,1.11,1.11,0,0,0,1.74,0Zm6-7.71a2.75,2.75,0,0,0,0,.41c0,.13,0,.25,0,.37v1.56a5.11,5.11,0,0,1,0,.78c0,.26-.06.53-.1.81h4.5v-4.2h-.51Z" transform="translate(-54.17 -317.73)"/><path class="cls-2" d="M70.56,500.22a16.92,16.92,0,0,1-.78,5.47,13.13,13.13,0,0,1-2,3.86q.78.51,1.44,1a4.76,4.76,0,0,1,.9.84,2.31,2.31,0,0,1,.35,1.78,2.35,2.35,0,0,1-2.85,1.86,2.36,2.36,0,0,1-1.52-1,3.23,3.23,0,0,1-.34-.86c-.11-.39-.22-.82-.31-1.3a11.41,11.41,0,0,1-2.81,1.59,21.06,21.06,0,0,1-2.57.81,12.21,12.21,0,0,1-2.61.36,15.36,15.36,0,0,0,4-3.08,14.81,14.81,0,0,0,2.34-3.4,12,12,0,0,0,1.08-3.32A13.69,13.69,0,0,0,65,502H63.19l-3.19.3-.9-2.13Zm-2.4-2.49A2.16,2.16,0,0,1,67,498.88a2.08,2.08,0,0,1-1.64,0,3.59,3.59,0,0,1-1.09-.8c-.45-.43-.9-.87-1.34-1.33s-1.06-1.14-1.62-1.8q1.29-.12,2.4-.18t1.89,0a4.84,4.84,0,0,1,1.35.18,2.05,2.05,0,0,1,1.19,1.12A2.15,2.15,0,0,1,68.16,497.73Zm8.53-4.35,5.57,1.77L82,502v17.1l-4.32,1V507.81L76,508v9.84l-4.32,1V497l-1-1.89,5.61,1.77L76,501.81V506H77.7V495.27Z" transform="translate(-54.17 -317.73)"/><path class="cls-2" d="M100.32,508.32a2.84,2.84,0,0,1-.93.63,2.73,2.73,0,0,1-2.1,0,2.84,2.84,0,0,1-.93-.63,4,4,0,0,1-.55-.78c-.21-.36-.43-.78-.66-1.25s-.46-1-.68-1.5-.42-1-.6-1.51a9.93,9.93,0,0,1-1.38,2.05,11.53,11.53,0,0,1-1.62,1.53,10.24,10.24,0,0,1-1.72,1.08,13.76,13.76,0,0,1-1.7.71,13.34,13.34,0,0,1-4,.66,9.51,9.51,0,0,0,2.4-1.47A10.77,10.77,0,0,0,87.62,506a11.73,11.73,0,0,0,1.21-2.1,16.22,16.22,0,0,0,.78-2.13,17.56,17.56,0,0,0,.63-5.16L89,495l6.39,1.11a19.39,19.39,0,0,1-.21,3,14.64,14.64,0,0,1-.6,2.49c.48.18,1,.39,1.61.64l1.71.75c.55.25,1,.5,1.48.74a4.27,4.27,0,0,1,.93.63,2.84,2.84,0,0,1,.63.93,2.73,2.73,0,0,1,.21,1,2.82,2.82,0,0,1-.21,1.06A2.52,2.52,0,0,1,100.32,508.32Zm8.19,3.8-.3,7.06-4.86.87v-7.62H90.12v-1.8h11.19a2.35,2.35,0,0,0,.71-.12,1.5,1.5,0,0,0,.7-.54l5.91.9Zm.09-4-5.07,1V495.3l-1.2-1.92,6.54,1.8-.27,6.24Z" transform="translate(-54.17 -317.73)"/><path class="cls-2" d="M119.4,497.19a4.76,4.76,0,0,1,2.7.72,5.8,5.8,0,0,1,1.76,1.83,8.12,8.12,0,0,1,1,2.4,12.17,12.17,0,0,1,.33,2.43h1.32V497l-1-1.89,5.61,1.77-.27,4.89v16l-4.32,1V506.49l-1.32.12a13.67,13.67,0,0,1-.36,2.41,7.57,7.57,0,0,1-1,2.34,5.83,5.83,0,0,1-1.76,1.77,4.79,4.79,0,0,1-2.67.71h-1.11a4.82,4.82,0,0,1-2.76-.75,5.84,5.84,0,0,1-1.78-1.89,8.5,8.5,0,0,1-1-2.46,11.14,11.14,0,0,1-.3-2.46v-1.56a11.14,11.14,0,0,1,.3-2.46,8.33,8.33,0,0,1,1-2.45,5.88,5.88,0,0,1,1.78-1.87,4.82,4.82,0,0,1,2.76-.75Zm.12,14.52a7.54,7.54,0,0,0,.81-2.37,18.27,18.27,0,0,0,.36-3.81,18.7,18.7,0,0,0-.36-3.86,7.52,7.52,0,0,0-.81-2.38.89.89,0,0,0-.66-.42.91.91,0,0,0-.69.42,6.94,6.94,0,0,0-.84,2.38,18.7,18.7,0,0,0-.36,3.86,18.27,18.27,0,0,0,.36,3.81,7,7,0,0,0,.84,2.37.91.91,0,0,0,.69.42A.89.89,0,0,0,119.52,511.71Zm12-18.33,5.58,1.77-.24,6.84v17.1l-4.32,1V495.27Z" transform="translate(-54.17 -317.73)"/><path class="cls-2" d="M166.35,493.26l6.54,1.77-.3,3.27v4.47c.46-.22.91-.42,1.34-.59a3,3,0,0,1,1.06-.25,2.55,2.55,0,0,1,1.79.76,2.34,2.34,0,0,1,.7,1.79,2.39,2.39,0,0,1-.75,1.78,2.48,2.48,0,0,1-1.8.74,2.81,2.81,0,0,1-1-.26c-.41-.17-.85-.37-1.31-.61v6.33l-5,1v-5.1l-17.88,1.62-.6-2.19,4.56-.33-.54-6.39,5.13.39.27,5.67,9.06-.63V495.15Zm-.72,3.3-.12,1.26-.3,6.18-5.13.87v-6.75h-8.73v-1.8h7a2.35,2.35,0,0,0,.71-.12,1.5,1.5,0,0,0,.7-.54Zm8.1,23.58H156.9l-2,.15a2,2,0,0,1-1.51-.51,1.94,1.94,0,0,1-.68-1.44l-.15-7.56,5.76.36v7.2h7.53a1.92,1.92,0,0,0,1.2-.39l.84-.57a3.65,3.65,0,0,1,1.34-.56,3.21,3.21,0,0,1,1.38,0,3.59,3.59,0,0,1,1.24.57,3.12,3.12,0,0,1,.93,1.07Z" transform="translate(-54.17 -317.73)"/><path class="cls-2" d="M187.68,500.13l5.88.75-.12,1.56H179v-1.8h6.9a5.13,5.13,0,0,0,.65-.05,3.15,3.15,0,0,0,.64-.15A1.08,1.08,0,0,0,187.68,500.13Zm-.63,3.15a7.7,7.7,0,0,1,2.91.48,5.82,5.82,0,0,1,1.89,1.18,4.11,4.11,0,0,1,1,1.53,4.49,4.49,0,0,1,.3,1.52v1a4.44,4.44,0,0,1-.3,1.51,4.11,4.11,0,0,1-1,1.53,5.83,5.83,0,0,1-1.89,1.19,7.7,7.7,0,0,1-2.91.48h-1.23a7.79,7.79,0,0,1-2.92-.48A5.83,5.83,0,0,1,181,512a4.44,4.44,0,0,1-1.35-3v-1a4.32,4.32,0,0,1,.32-1.52,4.27,4.27,0,0,1,1-1.53,5.82,5.82,0,0,1,1.91-1.18,7.79,7.79,0,0,1,2.92-.48Zm2.55-4.92a2.05,2.05,0,0,1-1,.94,2.37,2.37,0,0,1-1.56,0,5.37,5.37,0,0,1-1.2-.66q-.75-.51-1.47-1.11t-1.74-1.5l2.28-.15c.6,0,1.2-.06,1.8-.05a5.13,5.13,0,0,1,1.38.17,2.26,2.26,0,0,1,1.31,1A1.66,1.66,0,0,1,189.6,498.36Zm-2.25,13a3.07,3.07,0,0,0,1.17-1.11,3.33,3.33,0,0,0,0-3.54,3.07,3.07,0,0,0-1.17-1.11,1.68,1.68,0,0,0-.9-.24,1.74,1.74,0,0,0-.93.24,2.89,2.89,0,0,0-1.18,1.11,3.38,3.38,0,0,0,0,3.54,2.89,2.89,0,0,0,1.18,1.11,1.68,1.68,0,0,0,.93.27A1.63,1.63,0,0,0,187.35,511.35ZM204,505.5a2.52,2.52,0,0,1,1,.19,2.31,2.31,0,0,1,.79.54,2.64,2.64,0,0,1,.53.81,2.59,2.59,0,0,1,.19,1,2.39,2.39,0,0,1-.75,1.78,2.48,2.48,0,0,1-1.8.74,2.14,2.14,0,0,1-1.21-.45,12.87,12.87,0,0,0-1.7-1v10l-5.07,1V495.3l-1.2-1.92,6.57,1.8-.3,6.84v4.8a16.25,16.25,0,0,0,1.74-.93A2.11,2.11,0,0,1,204,505.5Z" transform="translate(-54.17 -317.73)"/><path class="cls-2" d="M215.61,497.19a6,6,0,0,1,2.24.39,5.48,5.48,0,0,1,1.69,1.05,5.92,5.92,0,0,1,1.19,1.5,8.79,8.79,0,0,1,.73,1.74h4.77V495.3l-1.2-1.92,6.54,1.77-.3,6.87v17.16l-5,1V509.67h-.51l-4.56.3a8.51,8.51,0,0,1-.81,1.48,5.38,5.38,0,0,1-1.15,1.23,5.53,5.53,0,0,1-1.58.84,6.05,6.05,0,0,1-2,.32h-1.23a5.56,5.56,0,0,1-3-.75,6.29,6.29,0,0,1-1.95-1.89,7.68,7.68,0,0,1-1.06-2.46,10.66,10.66,0,0,1-.32-2.46v-1.56a10.66,10.66,0,0,1,.32-2.46,7.53,7.53,0,0,1,1.06-2.45,6.34,6.34,0,0,1,1.95-1.87,5.56,5.56,0,0,1,3-.75Zm.27,14.46a4.2,4.2,0,0,0,.54-.95,9.65,9.65,0,0,0,.48-1.41,15,15,0,0,0,.35-1.75,15.87,15.87,0,0,0-.33-5.82,6.66,6.66,0,0,0-1-2.37,1.17,1.17,0,0,0-1.74,0,6.15,6.15,0,0,0-1,2.37,14.75,14.75,0,0,0-.45,3.81,14.41,14.41,0,0,0,.45,3.76,6.16,6.16,0,0,0,1,2.36,1.11,1.11,0,0,0,1.74,0Zm6-7.71c0,.14,0,.27,0,.4s0,.26,0,.38v1.56a6.79,6.79,0,0,1,0,.78c0,.26-.07.53-.11.81h4.5v-4.2h-.51Z" transform="translate(-54.17 -317.73)"/></svg>