<svg id="레이어_1" data-name="레이어 1" xmlns="http://www.w3.org/2000/svg" viewBox="0 0 171.32 61.37"><defs><style>.cls-1{fill:#468676;stroke:#468676;}.cls-1,.cls-3{stroke-linecap:round;stroke-linejoin:round;stroke-width:4px;}.cls-2,.cls-3{fill:#fff;}.cls-3{stroke:#fff;}</style></defs><rect class="cls-1" x="2" y="2" width="167.32" height="57.37" rx="20.4"/><path class="cls-2" d="M293.28,418.75a2.44,2.44,0,0,1,1.09-.45,3,3,0,0,1,1.15,0,2.77,2.77,0,0,1,1.05.48,2.63,2.63,0,0,1,.78.9l.75,1.37H276.2v-1.5h15.35a1.92,1.92,0,0,0,1-.32Zm.05-7.9a5,5,0,0,1-.84,2.19,7.58,7.58,0,0,1-1.64,1.66,10.45,10.45,0,0,1,1.12,0,2.45,2.45,0,0,1,.78.12,1.92,1.92,0,0,1,1.08,1,2,2,0,0,1,.05,1.5,2,2,0,0,1-1,1.07,1.93,1.93,0,0,1-1.51.08,2.74,2.74,0,0,1-.6-.38c-.23-.18-.48-.39-.74-.62s-.52-.49-.79-.77l-.72-.76a19,19,0,0,1-4,1.13,38.39,38.39,0,0,1-3.92.45c-1.4.08-2.78.1-4.15.05,1.52-.4,2.9-.77,4.15-1.12a28.49,28.49,0,0,0,3.27-1.08,9.15,9.15,0,0,0,2.26-1.3,3.41,3.41,0,0,0,1.15-1.75h-4.05l-3.9.25-.75-1.75Zm1,20.55H282.63l-1.65.15a1.64,1.64,0,0,1-1.25-.44,1.71,1.71,0,0,1-.55-1.22l-.35-4.14,3.65.32,6.2.05V424.2h-9.45v-1.5H287a1.63,1.63,0,0,0,.59-.12,1.31,1.31,0,0,0,.59-.46l4.9.78-.3,3.35.12,1.37H282.48v2.28h5.27a1.63,1.63,0,0,0,1-.33l.7-.47a2.72,2.72,0,0,1,1.09-.47,2.78,2.78,0,0,1,1.15,0,3,3,0,0,1,1,.47,2.59,2.59,0,0,1,.78.89Z" transform="translate(-211.84 -389.82)"/><path class="cls-2" d="M299.85,412.9H310.5v1.5a15.62,15.62,0,0,1-.45,3.91,13.79,13.79,0,0,1-1.18,3.1,11.55,11.55,0,0,1-1.69,2.37,14.51,14.51,0,0,1-1.93,1.74A14.07,14.07,0,0,1,300,428a11.49,11.49,0,0,0,2.54-2.23,14.59,14.59,0,0,0,1.72-2.57,14.12,14.12,0,0,0,1.06-2.67,23.41,23.41,0,0,0,.57-2.52,18.5,18.5,0,0,0,.22-2.11c0-.62,0-1.1,0-1.45h-6.33Zm18.75-2.28-.25,5.73v14.3l-4.2.8V423h-.42l-3.65.33-.48-1.83h4.55v-3.42l-2.82.25-.48-1.83h3.3v-5.72l-1-1.6Z" transform="translate(-211.84 -389.82)"/><path class="cls-2" d="M332.28,413.57a8.18,8.18,0,0,1-.23,2,7,7,0,0,1-.62,1.65l1.35.53a3,3,0,0,1,.9.51,2,2,0,0,1,.5.65,2.13,2.13,0,0,1,.19.77,2.48,2.48,0,0,1-.13.8,2.29,2.29,0,0,1-.41.73,2.13,2.13,0,0,1-1.46.66,2.06,2.06,0,0,1-1.52-.56,3.16,3.16,0,0,1-.55-.78c-.2-.36-.4-.77-.6-1.2a8.44,8.44,0,0,1-1.45,1,13.75,13.75,0,0,1-1.57.71,14.68,14.68,0,0,1-1.6.5,13.72,13.72,0,0,1-1.53.3,20,20,0,0,1-3.45.25,16.78,16.78,0,0,0,3.58-1.36A9.3,9.3,0,0,0,326,419a5.28,5.28,0,0,0,1.21-1.92,4.88,4.88,0,0,0,.3-2h-1.37l-3.9.25-.75-1.78ZM339.73,428a2.06,2.06,0,0,1,.92,1.32,2,2,0,0,1-.27,1.6,2.16,2.16,0,0,1-1.33.93,2,2,0,0,1-1.6-.28,4.36,4.36,0,0,1-.86-.85c-.36-.43-.73-.9-1.12-1.4s-.76-1-1.09-1.46l-.75-1.06a7.87,7.87,0,0,1-1.35,1.78,9,9,0,0,1-1.64,1.3,9.63,9.63,0,0,1-1.79.89c-.61.23-1.21.43-1.77.58a16.34,16.34,0,0,1-4.23.45,15.94,15.94,0,0,0,2.68-1.15,12,12,0,0,0,1.84-1.28,6.38,6.38,0,0,0,1.17-1.32,8.27,8.27,0,0,0,.69-1.3,7.19,7.19,0,0,0,.36-1.19l.21-1h-5.1V423h9.35a1.73,1.73,0,0,0,.58-.1,1.29,1.29,0,0,0,.57-.45l4.93.75-.1,1v.27h-5.5a10.52,10.52,0,0,1-.35,1.08c-.14.33-.28.65-.43,1l1.27.23,1.8.33c.62.13,1.21.26,1.76.4A4.28,4.28,0,0,1,339.73,428Zm-9.8-16.18a1.8,1.8,0,0,1-1,1,1.76,1.76,0,0,1-1.37,0,3.22,3.22,0,0,1-.91-.67c-.37-.35-.74-.73-1.11-1.11s-.88-1-1.35-1.5c.72-.07,1.38-.12,2-.15s1.06,0,1.57,0a3.59,3.59,0,0,1,1.13.15,1.74,1.74,0,0,1,1,.93A1.81,1.81,0,0,1,329.93,411.77Zm12.8,3.45a2.11,2.11,0,0,1,1.49.65,2.07,2.07,0,0,1,.61,1.49,2.15,2.15,0,0,1-2.15,2.09,1.79,1.79,0,0,1-1-.38,11.08,11.08,0,0,0-1.44-.79v2.35l-4.2.8V410.74l-1-1.59,5.45,1.47-.25,4.47v1.25a15.74,15.74,0,0,0,1.47-.77A2,2,0,0,1,342.73,415.22Z" transform="translate(-211.84 -389.82)"/><path class="cls-2" d="M346.08,414.4v-1.5h10.65v1.5a15.62,15.62,0,0,1-.45,3.91,13.8,13.8,0,0,1-1.19,3.1,10.84,10.84,0,0,1-1.69,2.37,13.86,13.86,0,0,1-1.92,1.74,14.19,14.19,0,0,1-5.23,2.43,11.26,11.26,0,0,0,2.54-2.23,14.66,14.66,0,0,0,1.73-2.57,14.83,14.83,0,0,0,1.06-2.67,21.1,21.1,0,0,0,.56-2.52,18.72,18.72,0,0,0,.23-2.11c0-.62,0-1.1,0-1.45Zm13.3-5.25,5.45,1.47-.25,5.73v14.3l-4.2.8v-20.7Z" transform="translate(-211.84 -389.82)"/><path class="cls-3" d="M246.8,408.93l1.86,3.76A3.12,3.12,0,0,0,251,414.4l4.15.6a3.13,3.13,0,0,1,1.73,5.33l-3,2.92A3.14,3.14,0,0,0,253,426l.71,4.13a3.12,3.12,0,0,1-4.53,3.29l-3.71-1.95a3.12,3.12,0,0,0-2.91,0l-3.71,1.95a3.12,3.12,0,0,1-4.53-3.29L235,426a3.14,3.14,0,0,0-.9-2.77l-3-2.92a3.12,3.12,0,0,1,1.73-5.33l4.15-.6a3.15,3.15,0,0,0,2.35-1.71l1.85-3.76A3.12,3.12,0,0,1,246.8,408.93Z" transform="translate(-211.84 -389.82)"/></svg>