<?xml version="1.0" encoding="utf-8"?>
<!-- Generator: Adobe Illustrator 16.0.0, SVG Export Plug-In . SVG Version: 6.00 Build 0)  -->
<!DOCTYPE svg PUBLIC "-//W3C//DTD SVG 1.1//EN" "http://www.w3.org/Graphics/SVG/1.1/DTD/svg11.dtd">
<svg version="1.1" id="레이어_1" xmlns="http://www.w3.org/2000/svg" xmlns:xlink="http://www.w3.org/1999/xlink" x="0px"
	 y="0px" width="100px" height="100px" viewBox="0 0 100 100" enable-background="new 0 0 100 100" xml:space="preserve">
<g>
	<defs>
		<rect id="SVGID_1_" x="-23" y="2" width="146" height="121"/>
	</defs>
	<clipPath id="SVGID_2_">
		<use xlink:href="#SVGID_1_"  overflow="visible"/>
	</clipPath>
	<g clip-path="url(#SVGID_2_)">
		<path fill-rule="evenodd" clip-rule="evenodd" fill="none" d="M50.075,123.613c-24.097,0-48.193-0.001-72.29,0.007
			c-0.282,0-0.346-0.063-0.346-0.346c0.007-40.287,0.007-80.574,0-120.86c0-0.282,0.063-0.346,0.346-0.346
			c48.193,0.007,96.387,0.007,144.58,0c0.282,0,0.346,0.063,0.346,0.346c-0.007,40.287-0.007,80.573,0,120.86
			c0,0.282-0.063,0.346-0.346,0.346C98.269,123.612,74.172,123.613,50.075,123.613z M73.308,41.369c-7.253,0-14.507,0-21.761,0
			c-0.599,0-0.6,0-0.6,0.603c0,5.71,0,11.421,0,17.131c0,0.646,0.001,0.647,0.645,0.647c5.961,0.001,11.922,0,17.883,0
			c2.159,0,4.317,0.004,6.476-0.003c0.314-0.001,0.458,0.056,0.379,0.429c-0.811,3.831-2.501,7.22-5.123,10.125
			c-2.806,3.106-6.261,5.236-10.212,6.559c-4.36,1.459-8.837,1.898-13.402,1.344c-3.818-0.463-7.368-1.722-10.648-3.722
			c-4.176-2.546-7.504-5.938-9.942-10.178c-3.067-5.335-4.368-11.073-3.747-17.211c0.35-3.455,1.335-6.737,2.892-9.841
			c1.607-3.208,3.733-6.028,6.389-8.447c2.312-2.106,4.893-3.795,7.765-5.035c4.43-1.914,9.049-2.544,13.838-2.04
			c2.935,0.309,5.739,1.081,8.4,2.354c2.223,1.063,4.235,2.439,6.054,4.104c0.597,0.546,0.467,0.472,0.958-0.019
			c4.254-4.248,8.504-8.5,12.754-12.75c0.4-0.4,0.406-0.407-0.022-0.798c-2.963-2.705-6.217-4.998-9.777-6.848
			c-6.159-3.202-12.733-4.827-19.652-5.089C50.066,2.578,47.288,2.72,44.521,3.1c-4.773,0.655-9.34,2.003-13.691,4.063
			c-5.601,2.651-10.503,6.258-14.693,10.83c-3.394,3.703-6.146,7.828-8.209,12.41c-2.973,6.602-4.409,13.513-4.221,20.76
			c0.046,1.759,0.17,3.507,0.409,5.246c0.669,4.898,2.074,9.583,4.211,14.04c2.741,5.717,6.486,10.686,11.225,14.902
			c3.599,3.203,7.591,5.795,11.978,7.785c5.826,2.644,11.947,3.991,18.328,4.187c2.335,0.071,4.665-0.052,6.985-0.302
			c3.92-0.423,7.744-1.271,11.448-2.638c6.79-2.505,12.589-6.446,17.322-11.934c3.603-4.176,6.248-8.898,8.043-14.104
			c2.232-6.477,3.036-13.146,2.715-19.972c-0.102-2.146-0.335-4.273-0.684-6.391c-0.101-0.613-0.098-0.613-0.73-0.613
			C87.74,41.369,80.524,41.369,73.308,41.369z"/>
		<path fill-rule="evenodd" clip-rule="evenodd" fill="#FFFFFF" d="M73.244,41.373c7.217,0,14.433,0,21.648,0
			c0.633,0,0.63,0,0.73,0.613c0.349,2.117,0.582,4.245,0.684,6.391c0.321,6.826-0.482,13.496-2.715,19.973
			c-1.795,5.206-4.44,9.929-8.043,14.104c-4.733,5.487-10.532,9.429-17.322,11.934c-3.704,1.366-7.528,2.215-11.448,2.638
			c-2.32,0.25-4.65,0.373-6.985,0.302c-6.381-0.195-12.502-1.543-18.328-4.187c-4.387-1.99-8.379-4.582-11.978-7.785
			c-4.739-4.217-8.484-9.186-11.225-14.902c-2.137-4.457-3.542-9.142-4.211-14.04c-0.238-1.739-0.363-3.487-0.409-5.246
			c-0.188-7.248,1.249-14.159,4.221-20.761c2.063-4.582,4.815-8.708,8.209-12.41c4.19-4.571,9.092-8.178,14.693-10.83
			c4.352-2.06,8.918-3.408,13.691-4.063c2.767-0.38,5.545-0.522,8.331-0.416c6.919,0.262,13.493,1.888,19.652,5.089
			c3.561,1.85,6.814,4.143,9.777,6.848c0.429,0.392,0.423,0.398,0.022,0.798c-4.25,4.251-8.5,8.503-12.754,12.75
			c-0.491,0.491-0.361,0.565-0.958,0.019c-1.818-1.665-3.831-3.041-6.054-4.104c-2.661-1.273-5.466-2.045-8.4-2.354
			c-4.789-0.504-9.408,0.126-13.838,2.04c-2.872,1.24-5.453,2.929-7.765,5.035c-2.656,2.419-4.781,5.24-6.389,8.447
			c-1.556,3.104-2.542,6.386-2.892,9.841c-0.621,6.139,0.68,11.877,3.747,17.212c2.438,4.24,5.766,7.632,9.942,10.178
			c3.28,2,6.831,3.259,10.648,3.722c4.565,0.555,9.042,0.115,13.402-1.344c3.951-1.322,7.406-3.452,10.212-6.559
			c2.622-2.905,4.313-6.294,5.123-10.125c0.079-0.373-0.064-0.43-0.379-0.429c-2.158,0.007-4.316,0.003-6.476,0.003
			c-5.961,0-11.922,0.001-17.883,0c-0.644,0-0.645-0.001-0.645-0.647c0-5.71,0-11.421,0-17.131c0-0.603,0.001-0.603,0.6-0.603
			C58.737,41.373,65.991,41.373,73.244,41.373z"/>
	</g>
</g>
</svg>
