<svg id="레이어_1" data-name="레이어 1" xmlns="http://www.w3.org/2000/svg" xmlns:xlink="http://www.w3.org/1999/xlink" viewBox="0 0 334.6 293.49"><defs><style>.cls-1{fill:#fff;stroke:#231815;stroke-miterlimit:10;}.cls-2{fill:#d0391b;}.cls-3{fill:#517c45;}.cls-4{fill:#274121;}</style></defs><path class="cls-1" d="M134.64,353a25.22,25.22,0,0,0,.79,6.24,49,49,0,0,1-.75-7.51C134.65,352.11,134.64,352.53,134.64,353Z" transform="translate(-45.35 -187.02)"/><image width="260" height="280" transform="translate(74.6 13.49)" xlink:href="../%EC%B0%B8%EA%B3%A0%EA%B7%B8%EB%A6%BC/heart-leaves-symbol-logo-icon-260nw-217046629.jpg"/><path class="cls-2" d="M102.09,293.52s-8.56-59.4,60.83-65.34c0,0,6.65-39.21-34.22-40.64a27.26,27.26,0,0,0-23.76,12.12s-17.58-21.86-42.53-8.08S45.06,234.12,52.9,247,83.55,283.78,102.09,293.52Z" transform="translate(-45.35 -187.02)"/><path class="cls-3" d="M106,294.61s-9.56-66.53,76.69-58C182.64,236.63,172.31,319.32,106,294.61Z" transform="translate(-45.35 -187.02)"/><path class="cls-4" d="M112.89,290.44s-3.75-26.08,30.06-22.73C143,267.71,138.9,300.12,112.89,290.44Z" transform="translate(-45.35 -187.02)"/></svg>