<svg id="레이어_1" data-name="레이어 1" xmlns="http://www.w3.org/2000/svg" viewBox="0 0 137.3 112.2"><defs><style>.cls-1{fill:#c43a1d;}.cls-2{fill:#517943;}.cls-3{fill:#274020;}</style></defs><path class="cls-1" d="M289.54,465.46s-8.55-59.41,60.83-65.35c0,0,6.65-39.2-34.22-40.63a27.24,27.24,0,0,0-23.76,12.12s-17.58-21.86-42.53-8.08-17.35,42.53-9.51,55.37S271,455.72,289.54,465.46Z" transform="translate(-232.8 -358.96)"/><path class="cls-2" d="M293.4,466.55s-9.56-66.54,76.69-58C370.09,408.57,359.76,491.26,293.4,466.55Z" transform="translate(-232.8 -358.96)"/><path class="cls-3" d="M300.34,462.38s-3.75-26.09,30.06-22.73C330.4,439.65,326.35,472.06,300.34,462.38Z" transform="translate(-232.8 -358.96)"/></svg>