<svg id="레이어_1" data-name="레이어 1" xmlns="http://www.w3.org/2000/svg" viewBox="0 0 79 84.5"><defs><style>.cls-1{fill:#fff;stroke:#040000;stroke-miterlimit:10;stroke-width:2px;}.cls-2{fill:#468676;}.cls-3{fill:none;stroke:#fff;stroke-linecap:round;stroke-linejoin:round;stroke-width:3px;}</style></defs><rect class="cls-1" x="1" y="1" width="77" height="82.5" rx="38.5"/><circle class="cls-2" cx="39.5" cy="45.26" r="36.24"/><path class="cls-3" d="M298,447.33a38.69,38.69,0,0,0,6.37-4.4h0c5-4.14,9.75-9.47,11.77-12.79,2.9-4.74,5.7-15.35-3.51-20.44-7.68-4.25-13.47.66-15.18,2.41-1.71-1.75-7.5-6.66-15.18-2.41-9.21,5.09-6.41,15.7-3.51,20.44,2,3.28,6.64,8.52,11.58,12.64h0a38.9,38.9,0,0,0,6.57,4.56Z" transform="translate(-258 -378.25)"/></svg>