<svg id="레이어_1" data-name="레이어 1" xmlns="http://www.w3.org/2000/svg" viewBox="0 0 79 84.5"><defs><style>.cls-1,.cls-3{fill:#fff;stroke-miterlimit:10;}.cls-1{stroke:#040000;stroke-width:2px;}.cls-2{fill:#468676;}.cls-3{stroke:#fff;stroke-width:3px;}</style></defs><rect class="cls-1" x="1" y="1" width="77" height="82.5" rx="38.5"/><circle class="cls-2" cx="39.5" cy="45.18" r="36.24"/><path class="cls-3" d="M357.12,418.17l3.48,7a3.86,3.86,0,0,0,2.89,2.11l7.78,1.13A3.84,3.84,0,0,1,373.4,435l-5.63,5.49a3.83,3.83,0,0,0-1.1,3.4l1.32,7.74a3.85,3.85,0,0,1-5.58,4.06l-7-3.66a3.84,3.84,0,0,0-3.58,0l-6.95,3.66a3.85,3.85,0,0,1-5.58-4.06l1.33-7.74a3.84,3.84,0,0,0-1.11-3.4L334,435a3.84,3.84,0,0,1,2.13-6.55l7.77-1.13a3.85,3.85,0,0,0,2.9-2.11l3.48-7A3.84,3.84,0,0,1,357.12,418.17Z" transform="translate(-314.17 -390.58)"/></svg>