<svg id="레이어_1" data-name="레이어 1" xmlns="http://www.w3.org/2000/svg" viewBox="0 0 79 84.5"><defs><style>.cls-1{fill:#fff;stroke:#040000;stroke-width:2px;}.cls-1,.cls-3{stroke-miterlimit:10;}.cls-2{fill:#468676;}.cls-3{fill:none;stroke:#fff;stroke-width:3px;}</style></defs><rect class="cls-1" x="1" y="1" width="77" height="82.5" rx="38.5"/><circle class="cls-2" cx="39.5" cy="45.18" r="36.24"/><path class="cls-3" d="M301,405.84l3.47,7a3.87,3.87,0,0,0,2.9,2.11l7.77,1.12a3.84,3.84,0,0,1,2.13,6.56l-5.62,5.49a3.84,3.84,0,0,0-1.11,3.4l1.33,7.74a3.84,3.84,0,0,1-5.58,4.05l-6.95-3.65a3.84,3.84,0,0,0-3.58,0l-6.95,3.65a3.84,3.84,0,0,1-5.58-4.05l1.33-7.74a3.84,3.84,0,0,0-1.11-3.4l-5.62-5.49a3.84,3.84,0,0,1,2.13-6.56l7.77-1.12a3.87,3.87,0,0,0,2.9-2.11l3.47-7A3.85,3.85,0,0,1,301,405.84Z" transform="translate(-258 -378.25)"/></svg>