<svg id="레이어_1" data-name="레이어 1" xmlns="http://www.w3.org/2000/svg" viewBox="0 0 400 400"><defs><style>.cls-1{fill:#fff;}.cls-2{fill:#a4ada1;}.cls-3{fill:#537f46;}.cls-4,.cls-5{fill:#28421f;}.cls-5{stroke:#28421f;stroke-miterlimit:10;}</style></defs><rect class="cls-1" width="400" height="400"/><path class="cls-2" d="M530.76,187.59c-21.67,23.7,0,62.28,0,62.28,29.11-9.47,29.78-54.15,19.63-65s0-25,0-25c-55.32,19.21-51.54,59-49.4,69.71-.68-.68-1.35-1.35-2.05-2-73.79-70.4-163.58-47.79-195.65-13.54-29.78,31.82-41.29,93.43-29.11,102.9,0,0,12.86-48.74,47.39-52.12s52.13-38.59,46.71-54.84c0,0-51.45,6.09-87.33,69.73,0,0,10.16-70.41,104.26-85.3,25.4-4,49,1.39,69.29,13.07-7.47-1.6-24.32-2-36.12,22.13,0,0,10.83-6.09,22.34,6.77s33.17-4.74,33.17-4.74-17.6-20.3-36.56-9.47c0,0,5.7-11.92,30.07-6.12,46.74,35.51,71.37,105.52,51.85,161.82,0,0,6.09,16.93,23.69,8.13,0,0,24.88-73.55-27.22-140C503.7,211.51,530.76,187.59,530.76,187.59Z" transform="translate(-186.42 -134.11)"/><path class="cls-2" d="M245.14,484.58c22.87-22.54,3.23-62.2,3.23-62.2-29.56,8-32.55,52.55-23,63.89s-1.3,25-1.3,25c56.24-16.32,54.52-56.22,52.94-67,.65.7,1.28,1.41,1.95,2.11,70,74.14,160.88,56.21,194.68,23.66,31.4-30.23,46.08-91.16,34.4-101.25,0,0-15.37,48-50,49.6S404,454.18,408.56,470.69c0,0,51.69-3.42,90.82-65.11,0,0-13.79,69.78-108.53,79.78-25.58,2.7-48.85-3.92-68.53-16.64,7.38,2,24.19,3.24,37.23-20.23,0,0-11.14,5.52-22-7.92s-33.38,3-33.38,3,16.53,21.2,36,11.36c0,0-6.31,11.61-30.34,4.55-44.84-37.88-65.81-109.07-43.4-164.29,0,0-5.21-17.21-23.24-9.34,0,0-28.65,72.16,19.94,141.18C273.4,462.1,245.14,484.58,245.14,484.58Z" transform="translate(-186.42 -134.11)"/><path class="cls-2" d="M316.39,345.54a9.62,9.62,0,0,0,.05,1,5,5,0,0,1,.06.71.85.85,0,0,1-.35.63,1.19,1.19,0,0,1-.77.3.68.68,0,0,1-.5-.22,6.36,6.36,0,0,1-.47-.6l-14.59-20.07v17.24a2.28,2.28,0,0,0,.2,1,1.79,1.79,0,0,0,1.29,1c.49.12.74.36.74.71s-.12.59-.37.59l-.86,0c-.44,0-.95,0-1.52,0s-1.05,0-1.64,0l-1.38,0c-.5,0-.74-.18-.74-.55s.12-.51.37-.56a4.16,4.16,0,0,0,1.12-.34,2.61,2.61,0,0,0,.81-.59,1.62,1.62,0,0,0,.3-1.08V326.14c0-.47-.31-.84-.93-1.12l-.93-.41a4.28,4.28,0,0,1-.54-.29.51.51,0,0,1-.2-.45.8.8,0,0,1,.09-.39.3.3,0,0,1,.28-.17h2.75a1.91,1.91,0,0,1,1.68.6l14.37,19.73V326.25A1.24,1.24,0,0,0,314,325l-1-.41a4,4,0,0,1-.52-.3.51.51,0,0,1-.23-.45.8.8,0,0,1,.09-.39.31.31,0,0,1,.28-.16c.33,0,.74,0,1.23.05s1.09.06,1.79.06,1.08,0,1.53-.06.73-.05.85-.05c.5,0,.75.18.75.55a.52.52,0,0,1-.38.56c-.19.08-.42.15-.68.23a2.14,2.14,0,0,0-.62.26,1.36,1.36,0,0,0-.74,1.41Z" transform="translate(-186.42 -134.11)"/><path class="cls-2" d="M334.93,348.44a13,13,0,0,1-5-.93,11.31,11.31,0,0,1-3.89-2.6,11.61,11.61,0,0,1-2.51-4,15.33,15.33,0,0,1,0-10.35,11.84,11.84,0,0,1,2.51-4,11.09,11.09,0,0,1,3.89-2.62,13.85,13.85,0,0,1,10,0,11.18,11.18,0,0,1,3.89,2.62,11.84,11.84,0,0,1,2.51,4,15.33,15.33,0,0,1,0,10.35,11.61,11.61,0,0,1-2.51,4,11.41,11.41,0,0,1-3.89,2.6A13.08,13.08,0,0,1,334.93,348.44Zm.19-1.64A9,9,0,0,0,339,346a8.77,8.77,0,0,0,3-2.27,10.08,10.08,0,0,0,1.92-3.49,13.62,13.62,0,0,0,.64-4.49,13.86,13.86,0,0,0-.79-4.52,10.87,10.87,0,0,0-2-3.52,8.9,8.9,0,0,0-3.07-2.29,9.19,9.19,0,0,0-3.91-.82,9,9,0,0,0-3.87.82,8.64,8.64,0,0,0-3,2.29,10.29,10.29,0,0,0-1.91,3.52,14.65,14.65,0,0,0,.14,9,11,11,0,0,0,2,3.49,9,9,0,0,0,3.08,2.27A9.19,9.19,0,0,0,335.12,346.8Z" transform="translate(-186.42 -134.11)"/><path class="cls-2" d="M365.2,347.88c-.5,0-.75-.18-.75-.55s.13-.51.38-.56l.52-.11a1.94,1.94,0,0,0,.59-.27,2.77,2.77,0,0,0,.82-.65,1.51,1.51,0,0,0,.3-1V326.25a1.22,1.22,0,0,0-.26-.82,1.86,1.86,0,0,0-.67-.48l-.93-.41a2.89,2.89,0,0,1-.54-.3.52.52,0,0,1-.21-.45.71.71,0,0,1,.1-.39.29.29,0,0,1,.28-.16c.32,0,.75,0,1.28.05s1.24.06,2.1.06,1.39,0,1.94-.06.88-.05,1-.05c.49,0,.74.18.74.55a.59.59,0,0,1-.37.56l-.62.26a4.44,4.44,0,0,0-.65.34,1.73,1.73,0,0,0-.56.48,1.33,1.33,0,0,0-.22.82v18.36a1.73,1.73,0,0,0,.75,1.67,2.4,2.4,0,0,0,.93.3c.49.08.74.31.74.71s-.12.59-.37.59l-1.19,0c-.67,0-1.38,0-2.13,0s-1.29,0-1.78,0Z" transform="translate(-186.42 -134.11)"/><path class="cls-2" d="M391,343.73a1.25,1.25,0,0,1-.82.36c-.27,0-.53-.19-.78-.56l-9.16-15.68v16.72a2.28,2.28,0,0,0,.2,1,1.79,1.79,0,0,0,1.29,1c.49.12.74.36.74.71s-.12.59-.37.59l-.86,0c-.44,0-.95,0-1.52,0s-1,0-1.64,0l-1.38,0c-.5,0-.74-.18-.74-.55s.12-.51.37-.56a4.16,4.16,0,0,0,1.12-.34,2.79,2.79,0,0,0,.82-.59,1.68,1.68,0,0,0,.29-1.08V326.14c0-.47-.31-.84-.93-1.12l-.93-.41a4.28,4.28,0,0,1-.54-.29.54.54,0,0,1-.2-.45.8.8,0,0,1,.09-.39.3.3,0,0,1,.28-.17h2.75q1.31,0,1.68.6l9.94,17,9.31-17q.3-.6,1.68-.6h2.19c.5,0,.75.19.75.56a.52.52,0,0,1-.38.56l-.68.24a2.81,2.81,0,0,0-.62.28,1.74,1.74,0,0,0-.58.56,1.79,1.79,0,0,0-.16.85v18.21a1.94,1.94,0,0,0,.74,1.68,1.91,1.91,0,0,0,.5.16l.62.17c.5.12.74.36.74.71s-.12.59-.37.59l-1,0c-.55,0-1.2,0-1.94,0s-1.35,0-2,0l-1.42,0c-.5,0-.74-.18-.74-.55s.12-.51.37-.56a4.16,4.16,0,0,0,1.12-.34,1.7,1.7,0,0,0,.72-.59,2.14,2.14,0,0,0,.21-1.08v-17l-8.27,15.12A1.51,1.51,0,0,1,391,343.73Z" transform="translate(-186.42 -134.11)"/><path class="cls-2" d="M431.74,346.62c.49.12.74.36.74.71s-.12.59-.37.59l-1,0c-.54,0-1.19,0-1.93,0s-1.36,0-2,0-1.09,0-1.41,0c-.5,0-.75-.18-.75-.56a.47.47,0,0,1,.38-.52c1.14-.2,1.71-.52,1.71-1a3.86,3.86,0,0,0-.34-1.3l-1.63-4.32a1.13,1.13,0,0,0-.94-.37l-9.27.07a1,1,0,0,0-.82.41l-1.86,4.69a2.3,2.3,0,0,0-.22.86.48.48,0,0,0,.3.45,4.71,4.71,0,0,0,.85.3,1.11,1.11,0,0,1,.6.29.65.65,0,0,1,.15.41c0,.38-.14.56-.41.56l-.91,0q-.74,0-1.59,0l-1.64,0c-.59,0-1.05,0-1.37,0-.5,0-.75-.18-.75-.56s.13-.51.37-.56.33-.06.54-.11a2.69,2.69,0,0,0,.62-.22,3.53,3.53,0,0,0,1.15-.69,2.3,2.3,0,0,0,.6-.91l7.74-19.59c.13-.32.25-.62.38-.89a2.81,2.81,0,0,0,.22-.71,1,1,0,0,1,.5-.69,1.68,1.68,0,0,1,.95-.31.8.8,0,0,1,.5.15,1.42,1.42,0,0,1,.4.55l7.93,20.71a4.76,4.76,0,0,0,.68,1.23,5.7,5.7,0,0,0,.77.78,1.86,1.86,0,0,0,.56.31Zm-8.49-8.38c.64,0,1-.14,1-.41l-4.46-11.69-4.66,11.77c0,.27.24.41.71.41Z" transform="translate(-186.42 -134.11)"/><path class="cls-2" d="M458.13,336.42c.5,0,.75.18.75.55a.52.52,0,0,1-.37.56l-.6.23a2.3,2.3,0,0,0-.52.26,1.65,1.65,0,0,0-.58.56,1.75,1.75,0,0,0-.17.85V344a5.81,5.81,0,0,0,.06,1,3.57,3.57,0,0,1,.06.6.85.85,0,0,1-.17.52.51.51,0,0,1-.43.22c-.27,0-.54,0-.8,0a5.75,5.75,0,0,0-.84.15,8.16,8.16,0,0,0-1.38.48,18.05,18.05,0,0,1-1.69.67,15.1,15.1,0,0,1-2.1.58,12.69,12.69,0,0,1-2.57.24,13.11,13.11,0,0,1-4.9-.89,11.18,11.18,0,0,1-3.83-2.55,11.65,11.65,0,0,1-2.52-4,14.74,14.74,0,0,1-.89-5.22,15.06,15.06,0,0,1,.87-5.23,12.32,12.32,0,0,1,2.44-4.06,10.85,10.85,0,0,1,3.76-2.62,12.32,12.32,0,0,1,4.84-.93,12.18,12.18,0,0,1,3,.33,14.84,14.84,0,0,1,2.31.77,11,11,0,0,1,1.62.82,9.49,9.49,0,0,0,.93.53c.33.15.56.16.69,0a1.07,1.07,0,0,0,.28-.42,4.5,4.5,0,0,0,.17-.53c0-.14.18-.22.43-.22a.88.88,0,0,1,.5.17.65.65,0,0,1,.24.58c0,.91,0,1.87,0,2.86s0,1.83.09,2.5-.21.93-.7.93c-.28,0-.49-.25-.64-.75a7.11,7.11,0,0,0-1.3-2.44,9.38,9.38,0,0,0-2.09-1.88,10,10,0,0,0-5.51-1.63,8.63,8.63,0,0,0-3.59.76,8.42,8.42,0,0,0-2.94,2.2,10.56,10.56,0,0,0-2,3.53,14.19,14.19,0,0,0-.73,4.73,13,13,0,0,0,.75,4.5,10.52,10.52,0,0,0,2,3.48,9.12,9.12,0,0,0,3,2.24,8.77,8.77,0,0,0,3.68.78,14.1,14.1,0,0,0,2.89-.28,8,8,0,0,0,2.38-.84,4.44,4.44,0,0,0,1.62-1.43,3.61,3.61,0,0,0,.6-2.08v-2.54a1.57,1.57,0,0,0-1.27-1.57l-1-.34c-.49-.17-.74-.42-.74-.74a.77.77,0,0,1,.11-.4.39.39,0,0,1,.34-.16c.27,0,.68,0,1.23.05s1.34.06,2.38.06c.74,0,1.36,0,1.84-.06S458,336.42,458.13,336.42Z" transform="translate(-186.42 -134.11)"/><path class="cls-2" d="M464.69,347.85l-1.42,0c-.5,0-.74-.18-.74-.55s.12-.51.37-.56a4.16,4.16,0,0,0,1.12-.34,2.78,2.78,0,0,0,.82-.58,1.5,1.5,0,0,0,.29-1V326.25a1.17,1.17,0,0,0-.26-.82,1.78,1.78,0,0,0-.67-.48l-.93-.41a3.26,3.26,0,0,1-.54-.3.54.54,0,0,1-.2-.45.8.8,0,0,1,.09-.39.29.29,0,0,1,.28-.16c.32,0,.75,0,1.28.05s1.24.06,2.11.06H476.6q1.41,0,2-.06c.37,0,.62-.05.74-.05a2.09,2.09,0,0,1,.67.09.35.35,0,0,1,.26.35v3.65a.68.68,0,0,1-.26.52.84.84,0,0,1-.56.23.41.41,0,0,1-.3-.12,1,1,0,0,1-.18-.44,3.84,3.84,0,0,0-.88-2,2,2,0,0,0-1.47-.62h-9.05v8.57a.56.56,0,0,0,.26.54,2.2,2.2,0,0,0,.86.13l5.7,0a2.21,2.21,0,0,0,1.39-.35,2.71,2.71,0,0,0,.73-1.14c.07-.2.14-.37.2-.52a.39.39,0,0,1,.4-.22.87.87,0,0,1,.5.16.67.67,0,0,1,.24.58l-.07,4.69c0,.62-.19.93-.56.93s-.7-.24-.75-.74a1.94,1.94,0,0,0-.59-1.45,2.34,2.34,0,0,0-1.49-.41h-5.7c-.74,0-1.12.23-1.12.7v9.95h8.94a3.12,3.12,0,0,0,2-.67,5.53,5.53,0,0,0,1.45-2.24.55.55,0,0,1,.56-.37,1,1,0,0,1,.56.22.63.63,0,0,1,.22.67l-.56,2.8a1.21,1.21,0,0,1-1.26,1.15H466.66C466,347.81,465.31,347.82,464.69,347.85Z" transform="translate(-186.42 -134.11)"/><path class="cls-3" d="M528.76,186.14c-21.67,23.7,0,62.29,0,62.29,29.11-9.48,29.78-54.16,19.63-65s0-25.05,0-25.05c-55.32,19.21-51.54,59-49.4,69.71-.68-.67-1.35-1.35-2.05-2-73.79-70.41-163.58-47.8-195.65-13.54C271.51,244.36,260,306,272.18,315.45c0,0,12.86-48.75,47.39-52.13s52.13-38.59,46.71-54.84c0,0-51.45,6.1-87.33,69.73,0,0,10.16-70.4,104.26-85.3,25.4-4,49,1.39,69.29,13.08-7.47-1.6-24.32-2-36.12,22.13,0,0,10.83-6.1,22.34,6.77s33.17-4.74,33.17-4.74-17.6-20.31-36.56-9.48c0,0,5.7-11.92,30.07-6.11,46.74,35.5,71.37,105.51,51.85,161.81,0,0,6.09,16.93,23.69,8.13,0,0,24.88-73.55-27.22-140C501.7,210.06,528.76,186.14,528.76,186.14Z" transform="translate(-186.42 -134.11)"/><path class="cls-4" d="M243.14,483.13c22.87-22.54,3.23-62.19,3.23-62.19-29.56,7.95-32.55,52.54-23,63.88s-1.3,25-1.3,25c56.24-16.33,54.52-56.22,52.94-67.06.65.7,1.28,1.41,1.95,2.12,70,74.13,160.88,56.2,194.68,23.65,31.4-30.23,46.08-91.16,34.4-101.25,0,0-15.37,48-50,49.6S402,452.74,406.56,469.24c0,0,51.69-3.42,90.82-65.11,0,0-13.79,69.79-108.53,79.78-25.58,2.7-48.85-3.92-68.53-16.64,7.38,2,24.19,3.24,37.23-20.23,0,0-11.14,5.52-22-7.92s-33.38,3-33.38,3,16.53,21.19,36,11.36c0,0-6.31,11.6-30.34,4.54-44.84-37.88-65.81-109.07-43.4-164.28,0,0-5.21-17.22-23.24-9.34,0,0-28.65,72.15,19.94,141.18C271.4,460.65,243.14,483.13,243.14,483.13Z" transform="translate(-186.42 -134.11)"/><path class="cls-5" d="M314.39,344.09a9.62,9.62,0,0,0,.05,1,5.08,5.08,0,0,1,.06.71.84.84,0,0,1-.36.63,1.15,1.15,0,0,1-.76.3.65.65,0,0,1-.5-.22,6.36,6.36,0,0,1-.47-.6l-14.59-20.07v17.24a2.3,2.3,0,0,0,.2,1,2.13,2.13,0,0,0,.54.65,2,2,0,0,0,.75.33c.49.13.74.36.74.71s-.12.6-.37.6l-.86,0c-.44,0-.95,0-1.52,0s-1.05,0-1.64,0l-1.38,0c-.5,0-.74-.19-.74-.56s.12-.51.37-.56A4,4,0,0,0,295,345a2.55,2.55,0,0,0,.82-.59,1.58,1.58,0,0,0,.3-1.08V324.69q0-.7-.93-1.11l-.93-.41a3.26,3.26,0,0,1-.54-.3.51.51,0,0,1-.2-.45.8.8,0,0,1,.09-.39.3.3,0,0,1,.28-.17h2.75a1.91,1.91,0,0,1,1.68.6l14.37,19.73V324.8a1.26,1.26,0,0,0-.71-1.3l-1-.41a5,5,0,0,1-.53-.3.51.51,0,0,1-.22-.44.8.8,0,0,1,.09-.39.3.3,0,0,1,.28-.17c.33,0,.74,0,1.23,0s1.09.06,1.79.06,1.08,0,1.53-.06l.85,0c.5,0,.75.18.75.56a.51.51,0,0,1-.38.55c-.19.08-.42.15-.68.23a2.14,2.14,0,0,0-.62.26,1.74,1.74,0,0,0-.58.56,1.79,1.79,0,0,0-.16.85Z" transform="translate(-186.42 -134.11)"/><path class="cls-5" d="M332.93,347a13,13,0,0,1-5-.94,11.17,11.17,0,0,1-3.89-2.6,11.83,11.83,0,0,1-2.52-4,15.49,15.49,0,0,1,0-10.35,11.92,11.92,0,0,1,2.52-4,11.11,11.11,0,0,1,3.89-2.63,13.85,13.85,0,0,1,10,0,11.2,11.2,0,0,1,3.89,2.63,11.75,11.75,0,0,1,2.51,4,15.33,15.33,0,0,1,0,10.35,11.66,11.66,0,0,1-2.51,4,11.27,11.27,0,0,1-3.89,2.6A13.08,13.08,0,0,1,332.93,347Zm.18-1.64a9.14,9.14,0,0,0,3.88-.82,8.92,8.92,0,0,0,3-2.28,10.08,10.08,0,0,0,1.92-3.49,14.53,14.53,0,0,0-.15-9,10.82,10.82,0,0,0-2-3.53,9,9,0,0,0-3.07-2.29,9.19,9.19,0,0,0-3.91-.82,9,9,0,0,0-3.87.82,8.77,8.77,0,0,0-3,2.29,10.25,10.25,0,0,0-1.91,3.53,14.62,14.62,0,0,0,.14,9,11,11,0,0,0,2,3.49,9.17,9.17,0,0,0,3.08,2.28A9.33,9.33,0,0,0,333.11,345.36Z" transform="translate(-186.42 -134.11)"/><path class="cls-5" d="M363.2,346.44c-.5,0-.75-.19-.75-.56s.13-.51.38-.56l.52-.11a2.17,2.17,0,0,0,.59-.26,3.13,3.13,0,0,0,.82-.65,1.56,1.56,0,0,0,.3-1V324.8a1.24,1.24,0,0,0-.26-.82,2.13,2.13,0,0,0-.67-.48l-.93-.41a2.89,2.89,0,0,1-.54-.3.5.5,0,0,1-.21-.44.71.71,0,0,1,.1-.39.28.28,0,0,1,.28-.17c.32,0,.75,0,1.28,0s1.24.06,2.1.06,1.39,0,1.94-.06l1,0c.49,0,.74.18.74.56a.58.58,0,0,1-.37.55l-.62.27a5.64,5.64,0,0,0-.65.33,2,2,0,0,0-.56.48,1.35,1.35,0,0,0-.22.82v18.36a1.75,1.75,0,0,0,.75,1.68,2.61,2.61,0,0,0,.93.29c.49.08.74.31.74.71s-.12.6-.37.6l-1.19,0c-.67,0-1.38,0-2.13,0s-1.29,0-1.78,0S363.52,346.44,363.2,346.44Z" transform="translate(-186.42 -134.11)"/><path class="cls-5" d="M389,342.28a1.25,1.25,0,0,1-.82.36c-.27,0-.53-.19-.78-.56l-9.16-15.68v16.72a2.3,2.3,0,0,0,.2,1,2.13,2.13,0,0,0,.54.65,2,2,0,0,0,.75.33c.49.13.74.36.74.71s-.12.6-.37.6l-.86,0c-.44,0-.95,0-1.52,0s-1,0-1.64,0l-1.38,0c-.5,0-.74-.19-.74-.56s.12-.51.37-.56a4.16,4.16,0,0,0,1.12-.34,2.79,2.79,0,0,0,.82-.59,1.64,1.64,0,0,0,.29-1.08V324.69q0-.7-.93-1.11l-.93-.41a3.26,3.26,0,0,1-.54-.3.54.54,0,0,1-.2-.45.8.8,0,0,1,.09-.39.3.3,0,0,1,.28-.17h2.75q1.31,0,1.68.6l9.94,17,9.31-17q.3-.6,1.68-.6h2.19c.5,0,.75.19.75.56a.52.52,0,0,1-.38.56l-.68.24a2.81,2.81,0,0,0-.62.28,1.74,1.74,0,0,0-.58.56,1.8,1.8,0,0,0-.16.86v18.2a2.17,2.17,0,0,0,.2,1,2.13,2.13,0,0,0,.54.65,2.24,2.24,0,0,0,.5.17c.26.06.47.11.62.16.49.13.74.36.74.71s-.12.6-.37.6l-1,0c-.55,0-1.2,0-1.94,0s-1.35,0-2,0l-1.42,0c-.5,0-.74-.19-.74-.56s.12-.51.37-.56a4.16,4.16,0,0,0,1.12-.34,1.7,1.7,0,0,0,.72-.59,2.09,2.09,0,0,0,.21-1.08v-17l-8.27,15.12A1.51,1.51,0,0,1,389,342.28Z" transform="translate(-186.42 -134.11)"/><path class="cls-5" d="M429.73,345.17c.5.12.75.36.75.71s-.12.59-.37.59l-1,0c-.54,0-1.19,0-1.93,0s-1.36,0-2,0l-1.41,0c-.5,0-.75-.18-.75-.55a.47.47,0,0,1,.38-.53c1.14-.19,1.71-.52,1.71-1a3.85,3.85,0,0,0-.34-1.31l-1.64-4.32a1.12,1.12,0,0,0-.93-.37l-9.27.08a1,1,0,0,0-.82.41l-1.86,4.69a2.22,2.22,0,0,0-.22.85.48.48,0,0,0,.3.45,4.44,4.44,0,0,0,.85.3,1,1,0,0,1,.6.3.63.63,0,0,1,.15.41c0,.37-.14.55-.41.55l-.91,0c-.49,0-1,0-1.59,0s-1,0-1.64,0l-1.37,0c-.5,0-.75-.18-.75-.55s.13-.51.37-.56l.54-.11a2.72,2.72,0,0,0,.62-.23,3.53,3.53,0,0,0,1.15-.69,2.3,2.3,0,0,0,.6-.91l7.74-19.58c.13-.33.25-.62.38-.9a2.81,2.81,0,0,0,.22-.71,1,1,0,0,1,.5-.68,1.69,1.69,0,0,1,.95-.32.8.8,0,0,1,.5.15,1.39,1.39,0,0,1,.4.56l7.93,20.7a4.45,4.45,0,0,0,.68,1.23,5.7,5.7,0,0,0,.77.78,2.11,2.11,0,0,0,.56.32Zm-8.48-8.38c.64,0,1-.13,1-.41l-4.46-11.69-4.66,11.77c0,.27.24.41.71.41Z" transform="translate(-186.42 -134.11)"/><path class="cls-5" d="M456.13,335c.5,0,.75.18.75.56a.53.53,0,0,1-.37.56l-.6.22a2.3,2.3,0,0,0-.52.26,1.65,1.65,0,0,0-.58.56,1.77,1.77,0,0,0-.17.85v4.55a6,6,0,0,0,.06,1,3.37,3.37,0,0,1,.06.59.85.85,0,0,1-.17.52.52.52,0,0,1-.43.23c-.27,0-.54,0-.8,0a7.06,7.06,0,0,0-2.22.64c-.49.22-1.06.44-1.69.67a16.68,16.68,0,0,1-2.1.57,12.66,12.66,0,0,1-2.57.25,12.91,12.91,0,0,1-4.9-.9,10.9,10.9,0,0,1-3.83-2.55,11.56,11.56,0,0,1-2.52-4,14.68,14.68,0,0,1-.89-5.21,15.08,15.08,0,0,1,.87-5.24,12.27,12.27,0,0,1,2.44-4.05,10.87,10.87,0,0,1,3.76-2.63,12.32,12.32,0,0,1,4.84-.93,11.69,11.69,0,0,1,3,.34,14.22,14.22,0,0,1,2.31.76,12.05,12.05,0,0,1,1.62.82q.63.39.93.54c.33.15.56.15.69,0a1.1,1.1,0,0,0,.28-.43,4.41,4.41,0,0,0,.17-.52c0-.15.18-.23.43-.23a.88.88,0,0,1,.5.17.66.66,0,0,1,.24.58c0,.92,0,1.87,0,2.86s0,1.83.09,2.5-.21.93-.7.93c-.28,0-.49-.25-.64-.74a6.93,6.93,0,0,0-1.3-2.44,8.92,8.92,0,0,0-2.09-1.88,10.09,10.09,0,0,0-5.51-1.64,8.63,8.63,0,0,0-3.59.76,8.55,8.55,0,0,0-2.94,2.2,10.66,10.66,0,0,0-2,3.53,14.19,14.19,0,0,0-.73,4.73,13.15,13.15,0,0,0,.74,4.5,10.77,10.77,0,0,0,2.05,3.49,9.09,9.09,0,0,0,3,2.23,8.63,8.63,0,0,0,3.68.79,14.84,14.84,0,0,0,2.89-.28,8.65,8.65,0,0,0,2.38-.84,4.55,4.55,0,0,0,1.62-1.44,3.61,3.61,0,0,0,.6-2.08v-2.54a1.58,1.58,0,0,0-1.27-1.57l-1-.33c-.49-.18-.74-.43-.74-.75a.71.71,0,0,1,.11-.39.37.37,0,0,1,.34-.17c.27,0,.68,0,1.23,0s1.34.06,2.38.06c.74,0,1.36,0,1.84-.06Z" transform="translate(-186.42 -134.11)"/><path class="cls-5" d="M462.69,346.4l-1.42,0c-.5,0-.74-.19-.74-.56s.12-.51.37-.56A4.16,4.16,0,0,0,462,345a3,3,0,0,0,.82-.57,1.51,1.51,0,0,0,.29-1V324.8a1.19,1.19,0,0,0-.26-.82,2,2,0,0,0-.67-.48l-.93-.41a3.26,3.26,0,0,1-.54-.3.52.52,0,0,1-.2-.44.8.8,0,0,1,.09-.39.28.28,0,0,1,.28-.17c.32,0,.75,0,1.28,0s1.24.06,2.11.06H474.6q1.41,0,2-.06l.74,0a2.09,2.09,0,0,1,.67.09.35.35,0,0,1,.26.35v3.65a.66.66,0,0,1-.26.52.84.84,0,0,1-.56.23.44.44,0,0,1-.3-.11,1.08,1.08,0,0,1-.18-.45,3.88,3.88,0,0,0-.88-2,2,2,0,0,0-1.47-.61h-9.05V332a.56.56,0,0,0,.26.54,2,2,0,0,0,.86.13l5.7,0a2.15,2.15,0,0,0,1.39-.35,2.71,2.71,0,0,0,.73-1.14c.07-.2.14-.37.2-.52a.39.39,0,0,1,.4-.22.82.82,0,0,1,.5.17.64.64,0,0,1,.24.57l-.07,4.69c0,.63-.19.94-.56.94s-.7-.25-.75-.75a2,2,0,0,0-.59-1.45,2.4,2.4,0,0,0-1.49-.41h-5.7c-.74,0-1.12.24-1.12.71v9.94h8.94a3.07,3.07,0,0,0,2-.67,5.46,5.46,0,0,0,1.45-2.24.57.57,0,0,1,.56-.37,1,1,0,0,1,.56.23.63.63,0,0,1,.22.67l-.56,2.79a1.21,1.21,0,0,1-1.26,1.15H464.66C464,346.36,463.31,346.37,462.69,346.4Z" transform="translate(-186.42 -134.11)"/></svg>