<svg id="레이어_1" data-name="레이어 1" xmlns="http://www.w3.org/2000/svg" viewBox="0 0 118.73 119.23"><defs><style>.cls-1{fill:#468676;stroke:#468676;stroke-linecap:round;stroke-linejoin:round;stroke-width:4px;}.cls-2{fill:#fff;}</style></defs><rect class="cls-1" x="2" y="2" width="114.73" height="115.23" rx="20.4"/><path class="cls-2" d="M130.24,384.37a2.75,2.75,0,0,1,1.13-.47,3.17,3.17,0,0,1,1.19,0,3.1,3.1,0,0,1,1.1.49,2.83,2.83,0,0,1,.81.94l.78,1.43H112.48v-1.56h16a1.91,1.91,0,0,0,1.07-.34Zm-3.2-3.22a2.77,2.77,0,0,1,1.16-.5,3.17,3.17,0,0,1,1.19,0,2.82,2.82,0,0,1,1.89,1.43l.8,1.43H118.8l-3.54.13-.6-1.69h8l.59-3.74L123,377l4.5.8-1,3.7Zm-12-4.58V375h9.47a1.58,1.58,0,0,0,.59-.11,1.27,1.27,0,0,0,.6-.49l5.12.78-.07,1.1,0,.28Zm17,20.18H119.94l-1.72.15a1.65,1.65,0,0,1-1.3-.45,1.77,1.77,0,0,1-.57-1.27l-.36-4.13,3.79.34,6.45.05V389.7H116.4v-1.56h8a1.78,1.78,0,0,0,.61-.12,1.28,1.28,0,0,0,.61-.48l5.1.81-.32,3.22.13,1.43H119.78v2.19h5.49a1.69,1.69,0,0,0,1.07-.34l.72-.49a2.73,2.73,0,0,1,1.14-.48,2.81,2.81,0,0,1,1.19,0,3.3,3.3,0,0,1,1.08.49,2.81,2.81,0,0,1,.81.93ZM118,376.88l1.41.91c.36.26.71.53,1,.81a3,3,0,0,1,.65.7,1.59,1.59,0,0,1,.13,1.22,1.49,1.49,0,0,1-.78.94,1.57,1.57,0,0,1-2.16-.68,2.56,2.56,0,0,1-.22-.92c0-.42-.07-.86-.09-1.31S117.93,377.47,118,376.88Z" transform="translate(-87.57 -339.28)"/><path class="cls-2" d="M148.12,375.14l4.84,1.53-.21,4.22V387l-3.74.83V385.7l-9.67,1a1.66,1.66,0,0,1-1.3-.46,1.74,1.74,0,0,1-.58-1.26l-.39-5.07,3.83.34,2,0v-2.52h-5.38v-1.56h2.31l.49,0a5.07,5.07,0,0,0,.76-.09,4.56,4.56,0,0,0,.75-.18,1,1,0,0,0,.5-.3l5.12.81-.31,4,.13,1.43h-5.33v3.15h.28l6.79-.81v-.41l-3.8.33-.52-1.89H149v-5.49Zm9.81,14.71-.26,6.12-4.22.75v-6.6H142v-1.56h9.7a2,2,0,0,0,.61-.11,1.27,1.27,0,0,0,.61-.46l5.12.78Zm.23-14.71-.21,5.93v5.72l-3.74.86v-12.4l-.89-1.64Z" transform="translate(-87.57 -339.28)"/><path class="cls-2" d="M174.07,390.72a2.46,2.46,0,0,1-.8.54,2.42,2.42,0,0,1-.91.18,2.34,2.34,0,0,1-.91-.18,2.4,2.4,0,0,1-.81-.54,4,4,0,0,1-.56-.84c-.22-.39-.44-.84-.66-1.33s-.45-1-.66-1.53-.41-1-.56-1.4a9.55,9.55,0,0,1-1.2,2,11.63,11.63,0,0,1-1.4,1.47,8.13,8.13,0,0,1-1.5,1,9.11,9.11,0,0,1-1.47.64,9.54,9.54,0,0,1-3.43.57,6.78,6.78,0,0,0,2.08-1.37,9.83,9.83,0,0,0,1.52-1.9,11.11,11.11,0,0,0,1-2.2,19.35,19.35,0,0,0,.68-2.27,23.72,23.72,0,0,0,.55-5.65L164,376.6l5.54,1a24.53,24.53,0,0,1-.21,4,16,16,0,0,1-.75,3.13c.38.16.84.35,1.4.56s1.1.45,1.65.7l1.5.73a4.21,4.21,0,0,1,.93.61,2.65,2.65,0,0,1,.55.81,2.42,2.42,0,0,1,.18.91,2.47,2.47,0,0,1-.18.92A2.21,2.21,0,0,1,174.07,390.72Zm7.07,5.25-4.36.83V375.27l-1.06-1.66,5.68,1.56-.26,5.93Z" transform="translate(-87.57 -339.28)"/><path class="cls-2" d="M126.48,406.16v3.25L125,407.64h-7.44v6h6v1.49h-6v9h-4.24V407.64l-1.22-1.48Z" transform="translate(-87.57 -339.28)"/><path class="cls-2" d="M140,422.7v1.48h-12.3l1.23-1.48V407.64l-1.23-1.48h5.47V422.7Z" transform="translate(-87.57 -339.28)"/><path class="cls-2" d="M155.6,419.58l-.73,4.57v0H142.21V407.64L141,406.16h14.37v3.25l-1.48-1.77h-7.41v6.79h6.09v1.48h-6.09v6.79h6.92Z" transform="translate(-87.57 -339.28)"/><path class="cls-2" d="M167.25,414.25l5.17,9.9h-4.24l-3.25-6.24-4,6.24h-1.77l4.94-7.77-4.5-8.74-2.29-1.48h5.75l3.41,6.55,4.16-6.55h1.79Z" transform="translate(-87.57 -339.28)"/><path class="cls-2" d="M176.27,424.18V407.64l-1.48-1.48h5.51V422.7l1.48,1.48Z" transform="translate(-87.57 -339.28)"/></svg>