<svg id="레이어_1" data-name="레이어 1" xmlns="http://www.w3.org/2000/svg" viewBox="0 0 118.73 118.73"><defs><style>.cls-1{fill:#fff;stroke:#468676;stroke-linecap:round;stroke-linejoin:round;stroke-width:4px;}.cls-2{fill:#468676;}</style></defs><rect class="cls-1" x="2" y="2" width="114.73" height="114.73" rx="20.4"/><path class="cls-2" d="M216.52,397.69l-11.18,1.06a1.61,1.61,0,0,1-1.26-.44,1.69,1.69,0,0,1-.56-1.23l-.38-4.94,3.71.33,3.21,0v-2.45h-6.49v-1.52h2.25l.67,0,1.17-.09a9.6,9.6,0,0,0,1.17-.18,1.07,1.07,0,0,0,.67-.29l5,.78-.3,3.89.13,1.39h-6.44v3.05h.28l7.85-.78Zm4.77,4.06-.25,5.94-4.09.73V402H205.82v-1.52h9.41a1.89,1.89,0,0,0,.6-.1,1.33,1.33,0,0,0,.59-.45l5,.75Zm2.55-8.86a2.22,2.22,0,0,1,.85.17,1.93,1.93,0,0,1,.66.45,2.24,2.24,0,0,1,.45.68,2.18,2.18,0,0,1,.16.85,1.9,1.9,0,0,1-.18.83,2.22,2.22,0,0,1-.46.67,2.1,2.1,0,0,1-.68.46,2.15,2.15,0,0,1-.83.16,1.82,1.82,0,0,1-1-.38,11.15,11.15,0,0,0-1.42-.81v2.38l-4.27.8V387.59l-1-1.61,5.5,1.51-.22,5.25V394a14,14,0,0,0,1.45-.78A1.9,1.9,0,0,1,223.84,392.89Z" transform="translate(-190.76 -367.46)"/><path class="cls-2" d="M244,392.94l.2,1.47h-10v2.7l11.54.2.33,1.39-6.36,0-.08,4.85h3.16a1.87,1.87,0,0,0,1-.33l.71-.5a2.61,2.61,0,0,1,1.1-.46,3.23,3.23,0,0,1,1.16,0,2.74,2.74,0,0,1,1.06.48,2.58,2.58,0,0,1,.79.91l.76,1.39H227.25v-1.52h8.18l-.08-4.82h-1.84l-1.67.13a1.61,1.61,0,0,1-1.26-.44,1.69,1.69,0,0,1-.56-1.23l-.35-8.58H240.8a1.2,1.2,0,0,0,.28,0,1.17,1.17,0,0,0,.25-.07l1.29-.53a1.52,1.52,0,0,1,1-.08,1.5,1.5,0,0,1,.81.56l1.34,1.66H234.16v2.8Z" transform="translate(-190.76 -367.46)"/><path class="cls-2" d="M261.78,389.08a9.29,9.29,0,0,1,3.3.52,6.74,6.74,0,0,1,2.16,1.27,4.56,4.56,0,0,1,1.5,3.24v.48a4.07,4.07,0,0,1-.26,1.38,4.67,4.67,0,0,1-.87,1.47,5.8,5.8,0,0,1-1.6,1.26,7.37,7.37,0,0,1-2.44.78l-.1,4.09h3.15a1.88,1.88,0,0,0,1-.33l.71-.5a2.63,2.63,0,0,1,1.09-.46,3.28,3.28,0,0,1,1.17,0,2.81,2.81,0,0,1,1.06.48,2.69,2.69,0,0,1,.79.91l.76,1.39H251.13v-1.52h8.17l-.07-4a8.29,8.29,0,0,1-2.72-.72,5.94,5.94,0,0,1-1.77-1.28,4.48,4.48,0,0,1-1-1.52,4.38,4.38,0,0,1-.29-1.45v-.48a4.2,4.2,0,0,1,.36-1.59,4.57,4.57,0,0,1,1.16-1.65,6.74,6.74,0,0,1,2.16-1.27,9.4,9.4,0,0,1,3.32-.52Zm.93,8.56a3.38,3.38,0,0,0,1.54-1.27,3.48,3.48,0,0,0,.61-2,3.58,3.58,0,0,0-.61-2.05,3.23,3.23,0,0,0-1.54-1.26,3.51,3.51,0,0,0-.78-.21,4.93,4.93,0,0,0-.81-.09,4.52,4.52,0,0,0-.79.09,3.56,3.56,0,0,0-.77.21,3.13,3.13,0,0,0-1.56,1.28,3.7,3.7,0,0,0-.59,2,3.61,3.61,0,0,0,.59,2,3.33,3.33,0,0,0,1.56,1.27,3.12,3.12,0,0,0,.77.2,5.51,5.51,0,0,0,.79.08,6,6,0,0,0,.81-.08A3.1,3.1,0,0,0,262.71,397.64Z" transform="translate(-190.76 -367.46)"/><path class="cls-2" d="M292.24,402.74a2.72,2.72,0,0,1,1.1-.46,3.22,3.22,0,0,1,1.16,0,2.68,2.68,0,0,1,1.06.48,2.61,2.61,0,0,1,.8.91l.76,1.39H275v-1.52h8.16l-.08-4.57,4.34.33-.1,4.24h3.18a1.88,1.88,0,0,0,1-.33Zm1.65-13-.33,3.41-.33,6.44-4-.58v-.51h-7.63l-3.93.76-.18-9.87,4.11.3v2.55h7.63v-2L289,389ZM289.27,397v-3.23h-7.63V397Z" transform="translate(-190.76 -367.46)"/><path class="cls-2" d="M222.45,436v1.44H210.51L211.7,436V421.34l-1.19-1.44h5.3V436Z" transform="translate(-190.76 -367.46)"/><path class="cls-2" d="M232.72,432.52h-6.23l-2,4.88H223l6.67-16.08-1.19-1.42h3.21L239,437.4h-4.21Zm-.58-1.44L229.62,425l-2.52,6.05Z" transform="translate(-190.76 -367.46)"/><path class="cls-2" d="M255.49,432.85a8.61,8.61,0,0,1-1.36,2.11,7.32,7.32,0,0,1-1.65,1.4,7,7,0,0,1-1.78.79,6.91,6.91,0,0,1-1.75.25,8.44,8.44,0,0,1-3.4-.69,8.85,8.85,0,0,1-2.79-1.86,8.59,8.59,0,0,1-1.88-2.78,8.89,8.89,0,0,1,0-6.82,8.74,8.74,0,0,1,1.88-2.79,9.08,9.08,0,0,1,2.79-1.88,8.6,8.6,0,0,1,3.4-.68,10.54,10.54,0,0,1,2.28.27,14.3,14.3,0,0,1,2.27.69l1.29-1v5s-.07-.15-.14-.33a5.87,5.87,0,0,0-.36-.68,7.39,7.39,0,0,0-.59-.86,5.21,5.21,0,0,0-.85-.84,4.54,4.54,0,0,0-1.13-.63,4.12,4.12,0,0,0-1.45-.25,5,5,0,0,0-2.35.58A6.21,6.21,0,0,0,246,423.5a7.71,7.71,0,0,0-1.28,2.33,8.5,8.5,0,0,0-.46,2.84,7.75,7.75,0,0,0,.49,2.81,7.41,7.41,0,0,0,1.32,2.24,6.23,6.23,0,0,0,2,1.48,5.36,5.36,0,0,0,2.32.53,3.34,3.34,0,0,0,1.85-.51,6.61,6.61,0,0,0,2.52-2.75Z" transform="translate(-190.76 -367.46)"/><path class="cls-2" d="M271.17,421.37h-5.1v16.05H262V421.37h-3.69l-1.43,2.27v-3.71h14.31Z" transform="translate(-190.76 -367.46)"/><path class="cls-2" d="M279.9,419.9a8.6,8.6,0,0,1,3.4.68,9,9,0,0,1,2.76,1.88,9.06,9.06,0,0,1,1.87,2.79,8.89,8.89,0,0,1,0,6.82,8.89,8.89,0,0,1-1.87,2.78,8.72,8.72,0,0,1-2.76,1.86,8.75,8.75,0,0,1-6.81,0,8.85,8.85,0,0,1-2.79-1.86,8.75,8.75,0,0,1-1.88-2.78,8.89,8.89,0,0,1,0-6.82,8.91,8.91,0,0,1,1.88-2.79,9.08,9.08,0,0,1,2.79-1.88A8.65,8.65,0,0,1,279.9,419.9Zm0,16.06a3.13,3.13,0,0,0,1.78-.57,5.21,5.21,0,0,0,1.48-1.57,8.45,8.45,0,0,0,1-2.32,10.37,10.37,0,0,0,.37-2.84,10.5,10.5,0,0,0-.37-2.85,8.2,8.2,0,0,0-1-2.32,5.45,5.45,0,0,0-1.48-1.57,3.05,3.05,0,0,0-3.58,0,5.32,5.32,0,0,0-1.48,1.57,8.5,8.5,0,0,0-1,2.32,10.91,10.91,0,0,0-.36,2.85,10.78,10.78,0,0,0,.36,2.84,8.78,8.78,0,0,0,1,2.32,5.09,5.09,0,0,0,1.48,1.57A3.15,3.15,0,0,0,279.9,436Z" transform="translate(-190.76 -367.46)"/><path class="cls-2" d="M232.17,450.19a8.52,8.52,0,0,1,3.39.68,8.88,8.88,0,0,1,2.77,1.88,9.06,9.06,0,0,1,1.87,2.79,8.89,8.89,0,0,1,0,6.82,8.89,8.89,0,0,1-1.87,2.78,8.65,8.65,0,0,1-2.77,1.86,8.35,8.35,0,0,1-3.39.69,8.48,8.48,0,0,1-3.41-.69,8.85,8.85,0,0,1-2.79-1.86,8.75,8.75,0,0,1-1.88-2.78,8.89,8.89,0,0,1,0-6.82,8.91,8.91,0,0,1,1.88-2.79,9.08,9.08,0,0,1,2.79-1.88A8.65,8.65,0,0,1,232.17,450.19Zm0,16.06a3.13,3.13,0,0,0,1.78-.57,5.21,5.21,0,0,0,1.48-1.57,8.45,8.45,0,0,0,1-2.32,10.37,10.37,0,0,0,.37-2.84,10.5,10.5,0,0,0-.37-2.85,8.2,8.2,0,0,0-1-2.32,5.45,5.45,0,0,0-1.48-1.57,3.14,3.14,0,0,0-1.78-.58,3.21,3.21,0,0,0-1.81.58,5.42,5.42,0,0,0-1.47,1.57,8.5,8.5,0,0,0-1,2.32,10.9,10.9,0,0,0-.37,2.85,10.77,10.77,0,0,0,.37,2.84,8.78,8.78,0,0,0,1,2.32,5.18,5.18,0,0,0,1.47,1.57A3.2,3.2,0,0,0,232.17,466.25Z" transform="translate(-190.76 -367.46)"/><path class="cls-2" d="M256.86,450.22l-6,17.47h-1.72l0,0-5.53-16L242,450.22h5.3l4.22,10.65,3.63-10.65Z" transform="translate(-190.76 -367.46)"/><path class="cls-2" d="M266.88,450.19a8.52,8.52,0,0,1,3.39.68,9.11,9.11,0,0,1,2.77,1.88,8.85,8.85,0,0,1,1.86,2.79,8.77,8.77,0,0,1,0,6.82,8.7,8.7,0,0,1-1.86,2.78,8.88,8.88,0,0,1-2.77,1.86,8.35,8.35,0,0,1-3.39.69,8.48,8.48,0,0,1-3.41-.69,8.85,8.85,0,0,1-2.79-1.86,8.8,8.8,0,0,1-1.88-9.6,8.74,8.74,0,0,1,1.88-2.79,9.08,9.08,0,0,1,2.79-1.88A8.65,8.65,0,0,1,266.88,450.19Zm0,16.06a3.16,3.16,0,0,0,1.78-.57,5.18,5.18,0,0,0,1.47-1.57,8.46,8.46,0,0,0,1-2.32,10.77,10.77,0,0,0,.37-2.84,10.9,10.9,0,0,0-.37-2.85,8.21,8.21,0,0,0-1-2.32,5.42,5.42,0,0,0-1.47-1.57,3.17,3.17,0,0,0-1.78-.58,3.21,3.21,0,0,0-1.81.58,5.42,5.42,0,0,0-1.47,1.57,7.93,7.93,0,0,0-1,2.32,10.5,10.5,0,0,0-.37,2.85,10.37,10.37,0,0,0,.37,2.84,8.17,8.17,0,0,0,1,2.32,5.18,5.18,0,0,0,1.47,1.57A3.2,3.2,0,0,0,266.88,466.25Z" transform="translate(-190.76 -367.46)"/></svg>