<svg id="레이어_1" data-name="레이어 1" xmlns="http://www.w3.org/2000/svg" viewBox="0 0 118.73 118.73"><defs><style>.cls-1{fill:#fff;stroke:#468676;stroke-linecap:round;stroke-linejoin:round;stroke-width:4px;}.cls-2{fill:#468676;}</style></defs><rect class="cls-1" x="2" y="2" width="114.73" height="114.73" rx="20.4"/><path class="cls-2" d="M222.73,412.82l-11.18,1.06a1.61,1.61,0,0,1-1.27-.44,1.72,1.72,0,0,1-.55-1.23l-.38-4.94,3.71.33,3.21,0V405.2h-6.49v-1.51H212l.67,0,1.17-.09a9.6,9.6,0,0,0,1.17-.18,1.07,1.07,0,0,0,.67-.29l5,.79-.3,3.88.13,1.39h-6.44v3.06h.28l7.85-.79Zm4.77,4.06-.25,5.94-4.09.73v-6.41H212v-1.52h9.41a1.83,1.83,0,0,0,.59-.1,1.24,1.24,0,0,0,.6-.45l5,.76Zm2.55-8.85a2.13,2.13,0,0,1,.84.16,1.78,1.78,0,0,1,.67.46,2.12,2.12,0,0,1,.61,1.52,2,2,0,0,1-.18.84,2.18,2.18,0,0,1-.46.66,2,2,0,0,1-.69.46,2.07,2.07,0,0,1-.82.16,1.75,1.75,0,0,1-1-.38,10.74,10.74,0,0,0-1.42-.8v2.37l-4.27.81V402.73l-1-1.62,5.5,1.52-.22,5.24v1.27c.58-.29,1.07-.55,1.45-.78A1.74,1.74,0,0,1,230.05,408Z" transform="translate(-190.76 -367.46)"/><path class="cls-2" d="M285.5,408.08l.21,1.46h-10v2.7l11.54.2.32,1.39-6.36,0-.07,4.84h3.15a2,2,0,0,0,1-.32l.7-.51a2.7,2.7,0,0,1,1.1-.45,2.87,2.87,0,0,1,2.22.5,2.7,2.7,0,0,1,.8.91l.76,1.39H268.79V418.7H277l-.07-4.82h-1.85l-1.66.13a1.61,1.61,0,0,1-1.26-.44,1.66,1.66,0,0,1-.56-1.23l-.35-8.58h11.13l.28,0,.25-.08,1.29-.53a1.58,1.58,0,0,1,1-.08,1.5,1.5,0,0,1,.81.56l1.34,1.67H275.71v2.8Z" transform="translate(-190.76 -367.46)"/><path class="cls-2" d="M222.45,451.09v1.44H210.51l1.19-1.44V436.47L210.51,435h5.3v16Z" transform="translate(-190.76 -367.46)"/><path class="cls-2" d="M232.72,447.66h-6.23l-2,4.87H223l6.67-16.08L228.51,435h3.21L239,452.53h-4.21Zm-.58-1.44-2.52-6.06-2.52,6.06Z" transform="translate(-190.76 -367.46)"/><path class="cls-2" d="M255.49,448a8.33,8.33,0,0,1-1.36,2.11,7.64,7.64,0,0,1-1.65,1.41,7.31,7.31,0,0,1-1.78.78,6.91,6.91,0,0,1-1.75.25,8.6,8.6,0,0,1-3.4-.68,9.06,9.06,0,0,1-2.79-1.87,8.59,8.59,0,0,1-1.88-2.78,8.87,8.87,0,0,1,0-6.81,8.79,8.79,0,0,1,4.67-4.67A8.43,8.43,0,0,1,249,435a10.49,10.49,0,0,1,2.28.26,15.42,15.42,0,0,1,2.27.69l1.29-.95v5a2.29,2.29,0,0,1-.14-.33,6.82,6.82,0,0,0-.36-.68,7.39,7.39,0,0,0-.59-.86,4.79,4.79,0,0,0-.85-.83,4.54,4.54,0,0,0-1.13-.63,3.9,3.9,0,0,0-1.45-.26,4.88,4.88,0,0,0-2.35.59,6,6,0,0,0-1.89,1.58,7.66,7.66,0,0,0-1.28,2.32,8.61,8.61,0,0,0-.47,2.85,7.74,7.74,0,0,0,.5,2.8,7.41,7.41,0,0,0,1.32,2.24,6.08,6.08,0,0,0,2,1.48,5.22,5.22,0,0,0,2.32.53,3.41,3.41,0,0,0,1.85-.5,7.79,7.79,0,0,0,1.38-1.11,7.25,7.25,0,0,0,1.14-1.64Z" transform="translate(-190.76 -367.46)"/><path class="cls-2" d="M271.17,436.5h-5.1v16.05H262V436.5h-3.69l-1.43,2.27v-3.71h14.31Z" transform="translate(-190.76 -367.46)"/><path class="cls-2" d="M279.9,435a8.43,8.43,0,0,1,3.4.68,8.61,8.61,0,0,1,2.76,1.88,9.06,9.06,0,0,1,1.87,2.79,8.87,8.87,0,0,1,0,6.81,8.78,8.78,0,0,1-4.63,4.65,8.87,8.87,0,0,1-6.81,0A9.06,9.06,0,0,1,273.7,450a8.92,8.92,0,0,1-1.88-2.78,8.87,8.87,0,0,1,0-6.81,9.08,9.08,0,0,1,1.88-2.79,8.74,8.74,0,0,1,2.79-1.88A8.48,8.48,0,0,1,279.9,435Zm0,16a3.13,3.13,0,0,0,1.78-.57,5.29,5.29,0,0,0,1.48-1.56,8.85,8.85,0,0,0,1-2.33,10.78,10.78,0,0,0,.36-2.84,10.91,10.91,0,0,0-.36-2.85,8.64,8.64,0,0,0-1-2.32,5.45,5.45,0,0,0-1.48-1.57,3.05,3.05,0,0,0-3.58,0,5.32,5.32,0,0,0-1.48,1.57,8.64,8.64,0,0,0-1,2.32,10.91,10.91,0,0,0-.36,2.85,10.78,10.78,0,0,0,.36,2.84,8.85,8.85,0,0,0,1,2.33,5.16,5.16,0,0,0,1.48,1.56A3.15,3.15,0,0,0,279.9,451.09Z" transform="translate(-190.76 -367.46)"/></svg>