<svg id="레이어_1" data-name="레이어 1" xmlns="http://www.w3.org/2000/svg" viewBox="0 0 118.73 118.73"><defs><style>.cls-1{fill:#468676;stroke:#468676;stroke-linecap:round;stroke-linejoin:round;stroke-width:4px;}.cls-2{fill:#fff;}</style></defs><rect class="cls-1" x="2" y="2" width="114.73" height="114.73" rx="20.4"/><path class="cls-2" d="M216.84,398l-11.07,1a1.59,1.59,0,0,1-1.25-.44,1.64,1.64,0,0,1-.55-1.21l-.38-4.9,3.68.32,3.17,0v-2.42H204v-1.5h2.22l.66,0c.36,0,.75,0,1.17-.08a9.73,9.73,0,0,0,1.16-.18,1.06,1.06,0,0,0,.66-.29l4.93.78-.3,3.85.12,1.37h-6.37v3h.27l7.78-.78Zm4.73,4-.25,5.88-4,.72v-6.35h-11v-1.5h9.33a1.77,1.77,0,0,0,.58-.1,1.16,1.16,0,0,0,.59-.45l4.93.75Zm2.52-8.77a2.13,2.13,0,0,1,.84.16,1.93,1.93,0,0,1,.66.45,2.28,2.28,0,0,1,.44.68,2.08,2.08,0,0,1,.16.83,2.05,2.05,0,0,1-.17.83,2.21,2.21,0,0,1-.47.66,2.08,2.08,0,0,1-.67.45,2.05,2.05,0,0,1-.81.16,1.8,1.8,0,0,1-1-.37,9.94,9.94,0,0,0-1.41-.8v2.35l-4.22.8V388l-1-1.6,5.45,1.5-.23,5.2v1.25a14.77,14.77,0,0,0,1.44-.78A1.75,1.75,0,0,1,224.09,393.22Z" transform="translate(-190.76 -367.46)"/><path class="cls-2" d="M244,393.27l.2,1.45h-9.9v2.67l11.42.2.33,1.38-6.3,0-.08,4.8h3.13a1.8,1.8,0,0,0,1-.32l.7-.5a2.75,2.75,0,0,1,1.09-.45,3,3,0,0,1,1.15,0,3.11,3.11,0,0,1,1.05.48,2.65,2.65,0,0,1,.79.9l.75,1.37h-21.9v-1.5h8.1l-.08-4.77h-1.82l-1.65.12a1.58,1.58,0,0,1-1.25-.43,1.63,1.63,0,0,1-.55-1.22l-.35-8.5h11a1.27,1.27,0,0,0,.28,0,1.44,1.44,0,0,0,.25-.08l1.27-.52a1.58,1.58,0,0,1,1-.08,1.55,1.55,0,0,1,.8.55l1.32,1.65H234.32v2.78Z" transform="translate(-190.76 -367.46)"/><path class="cls-2" d="M261.67,389.44a8.9,8.9,0,0,1,3.27.52,6.65,6.65,0,0,1,2.14,1.26,4.45,4.45,0,0,1,1.15,1.62,4.6,4.6,0,0,1,.34,1.58v.47a4.1,4.1,0,0,1-.27,1.38,4.48,4.48,0,0,1-.86,1.45,5.73,5.73,0,0,1-1.59,1.25,7.19,7.19,0,0,1-2.41.77l-.1,4.05h3.13a1.8,1.8,0,0,0,1-.32l.7-.5a2.75,2.75,0,0,1,1.09-.45,3,3,0,0,1,1.15,0,3.11,3.11,0,0,1,1.05.48,2.65,2.65,0,0,1,.79.9l.75,1.37h-21.9v-1.5h8.1l-.08-4a8.11,8.11,0,0,1-2.69-.71,6,6,0,0,1-1.76-1.27,4.37,4.37,0,0,1-1-1.51,4.24,4.24,0,0,1-.29-1.44v-.47a4.41,4.41,0,0,1,.35-1.58,4.57,4.57,0,0,1,1.15-1.62,6.44,6.44,0,0,1,2.14-1.26,9,9,0,0,1,3.29-.52Zm.92,8.48a3.33,3.33,0,0,0,1.53-1.26,3.48,3.48,0,0,0,.6-2,3.58,3.58,0,0,0-.6-2,3.19,3.19,0,0,0-1.53-1.25,3.56,3.56,0,0,0-.77-.21,4.83,4.83,0,0,0-.8-.09,4.52,4.52,0,0,0-.79.09,3.45,3.45,0,0,0-.76.21,3.07,3.07,0,0,0-1.54,1.27,3.66,3.66,0,0,0-.59,2,3.55,3.55,0,0,0,.59,2,3.21,3.21,0,0,0,1.54,1.26,3,3,0,0,0,.76.2,5.28,5.28,0,0,0,.79.07,5.62,5.62,0,0,0,.8-.07A3.12,3.12,0,0,0,262.59,397.92Z" transform="translate(-190.76 -367.46)"/><path class="cls-2" d="M291.84,403a2.75,2.75,0,0,1,1.09-.45,3,3,0,0,1,1.15,0,3.11,3.11,0,0,1,1.05.48,2.65,2.65,0,0,1,.79.9l.75,1.37h-21.9v-1.5h8.07l-.07-4.52,4.3.32-.1,4.2h3.15a1.8,1.8,0,0,0,1-.32Zm1.63-12.85-.33,3.37-.32,6.38-3.93-.58v-.5h-7.55l-3.9.75-.17-9.77,4.07.3v2.52h7.55v-2l-.25-1.23Zm-4.58,7.17v-3.2h-7.55v3.2Z" transform="translate(-190.76 -367.46)"/><path class="cls-2" d="M222.72,435.87v1.42H210.89l1.18-1.42V421.39L210.89,420h5.25v15.9Z" transform="translate(-190.76 -367.46)"/><path class="cls-2" d="M232.89,432.47h-6.17l-2,4.82h-1.43l6.6-15.92-1.17-1.4h3.17l7.2,17.32h-4.17Zm-.57-1.43-2.5-6-2.5,6Z" transform="translate(-190.76 -367.46)"/><path class="cls-2" d="M255.44,432.79a8.18,8.18,0,0,1-1.35,2.09,7.22,7.22,0,0,1-1.64,1.39,6.59,6.59,0,0,1-3.48,1,8.5,8.5,0,0,1-3.38-.67,8.86,8.86,0,0,1-2.76-1.85,8.6,8.6,0,0,1-2.54-6.13,8.46,8.46,0,0,1,.68-3.37,8.77,8.77,0,0,1,4.62-4.63A8.5,8.5,0,0,1,249,420a10.88,10.88,0,0,1,2.25.26,14.8,14.8,0,0,1,2.25.69l1.27-.95v5s-.06-.14-.14-.32a5,5,0,0,0-.35-.68,10,10,0,0,0-.58-.85,5,5,0,0,0-.84-.82,4.72,4.72,0,0,0-1.13-.63,4,4,0,0,0-1.43-.25,4.91,4.91,0,0,0-2.33.58,6,6,0,0,0-1.87,1.57,7.42,7.42,0,0,0-1.27,2.3,8.42,8.42,0,0,0-.46,2.82,7.63,7.63,0,0,0,.49,2.78,7,7,0,0,0,1.31,2.21,5.87,5.87,0,0,0,1.93,1.47,5.26,5.26,0,0,0,2.3.52,3.26,3.26,0,0,0,1.83-.5,7.26,7.26,0,0,0,1.37-1.1,7.15,7.15,0,0,0,1.12-1.62Z" transform="translate(-190.76 -367.46)"/><path class="cls-2" d="M271,421.42h-5.05v15.9h-4.05v-15.9h-3.65l-1.43,2.25V420H271Z" transform="translate(-190.76 -367.46)"/><path class="cls-2" d="M279.62,420a8.37,8.37,0,0,1,3.36.67,8.76,8.76,0,0,1,4.59,4.63,8.84,8.84,0,0,1,0,6.75,8.7,8.7,0,0,1-1.85,2.75,8.89,8.89,0,0,1-2.74,1.85,8.37,8.37,0,0,1-3.36.67,8.5,8.5,0,0,1-3.38-.67,8.86,8.86,0,0,1-2.76-1.85,8.6,8.6,0,0,1-2.54-6.13,8.46,8.46,0,0,1,.68-3.37,8.77,8.77,0,0,1,4.62-4.63A8.5,8.5,0,0,1,279.62,420Zm0,15.9a3.16,3.16,0,0,0,1.76-.56,5.19,5.19,0,0,0,1.46-1.55,8.45,8.45,0,0,0,1-2.3,11.23,11.23,0,0,0,0-5.64,8.19,8.19,0,0,0-1-2.3,5.31,5.31,0,0,0-1.46-1.55,3,3,0,0,0-3.55,0,5.18,5.18,0,0,0-1.46,1.55,8.19,8.19,0,0,0-1,2.3,11.22,11.22,0,0,0,0,5.64,8.45,8.45,0,0,0,1,2.3,5.07,5.07,0,0,0,1.46,1.55A3.18,3.18,0,0,0,279.62,435.87Z" transform="translate(-190.76 -367.46)"/><path class="cls-2" d="M232.34,450a8.37,8.37,0,0,1,3.36.67,8.55,8.55,0,0,1,2.74,1.87,8.86,8.86,0,0,1,1.85,2.76,8.72,8.72,0,0,1,0,6.75,8.66,8.66,0,0,1-4.59,4.6,8.79,8.79,0,0,1-6.73,0,9,9,0,0,1-2.77-1.85,8.53,8.53,0,0,1-2.53-6.13,8.45,8.45,0,0,1,.67-3.37,8.72,8.72,0,0,1,1.86-2.76,8.91,8.91,0,0,1,2.77-1.87A8.45,8.45,0,0,1,232.34,450Zm0,15.9a3.13,3.13,0,0,0,1.76-.56,5.22,5.22,0,0,0,1.47-1.55,8.76,8.76,0,0,0,1-2.3,10.93,10.93,0,0,0,0-5.64,8.48,8.48,0,0,0-1-2.3A5.34,5.34,0,0,0,234.1,452a3.08,3.08,0,0,0-1.76-.58,3.15,3.15,0,0,0-1.79.58,5.45,5.45,0,0,0-1.46,1.55,8.49,8.49,0,0,0-1,2.3,11.23,11.23,0,0,0,0,5.64,8.77,8.77,0,0,0,1,2.3,5.32,5.32,0,0,0,1.46,1.55A3.2,3.2,0,0,0,232.34,465.87Z" transform="translate(-190.76 -367.46)"/><path class="cls-2" d="M256.79,450l-6,17.3h-1.7l0,0-5.48-15.85L242,450h5.25l4.18,10.55,3.6-10.55Z" transform="translate(-190.76 -367.46)"/><path class="cls-2" d="M266.72,450a8.37,8.37,0,0,1,3.36.67,8.76,8.76,0,0,1,4.59,4.63,8.84,8.84,0,0,1,0,6.75,8.7,8.7,0,0,1-1.85,2.75,8.89,8.89,0,0,1-2.74,1.85,8.37,8.37,0,0,1-3.36.67,8.5,8.5,0,0,1-3.38-.67,8.86,8.86,0,0,1-2.76-1.85,8.6,8.6,0,0,1-2.54-6.13,8.46,8.46,0,0,1,.68-3.37,8.77,8.77,0,0,1,4.62-4.63A8.5,8.5,0,0,1,266.72,450Zm0,15.9a3.16,3.16,0,0,0,1.76-.56,5.19,5.19,0,0,0,1.46-1.55,8.45,8.45,0,0,0,1-2.3,11.23,11.23,0,0,0,0-5.64,8.19,8.19,0,0,0-1-2.3,5.31,5.31,0,0,0-1.46-1.55,3,3,0,0,0-3.55,0,5.18,5.18,0,0,0-1.46,1.55,8.19,8.19,0,0,0-1,2.3,11.22,11.22,0,0,0,0,5.64,8.45,8.45,0,0,0,1,2.3,5.07,5.07,0,0,0,1.46,1.55A3.18,3.18,0,0,0,266.72,465.87Z" transform="translate(-190.76 -367.46)"/></svg>