<svg id="레이어_1" data-name="레이어 1" xmlns="http://www.w3.org/2000/svg" viewBox="0 0 118.73 118.73"><defs><style>.cls-1{fill:#468676;stroke:#468676;stroke-linecap:round;stroke-linejoin:round;stroke-width:4px;}.cls-2{fill:#fff;}</style></defs><rect class="cls-1" x="2" y="2" width="114.73" height="114.73" rx="20.4"/><path class="cls-2" d="M223,413,211.92,414a1.62,1.62,0,0,1-1.25-.44,1.66,1.66,0,0,1-.55-1.22l-.38-4.89,3.68.32,3.17.05v-2.42h-6.42v-1.5h2.22l.66,0c.36,0,.75,0,1.17-.09s.8-.1,1.16-.17.58-.17.66-.29l4.93.78-.3,3.85.12,1.37h-6.37v3h.27l7.78-.78Zm4.73,4-.25,5.88-4.05.72v-6.35h-11v-1.5h9.33a1.77,1.77,0,0,0,.58-.1,1.16,1.16,0,0,0,.59-.45l4.93.75Zm2.52-8.77a2.13,2.13,0,0,1,.84.16,1.93,1.93,0,0,1,.66.45,2.36,2.36,0,0,1,.44.67,2.13,2.13,0,0,1,.16.84,2.05,2.05,0,0,1-.17.83,2.21,2.21,0,0,1-.47.66,2.08,2.08,0,0,1-.67.45,2.05,2.05,0,0,1-.81.16,1.8,1.8,0,0,1-1-.37,9.94,9.94,0,0,0-1.41-.8v2.35l-4.22.8V403l-1-1.6,5.45,1.5-.23,5.2v1.25c.58-.29,1.06-.54,1.44-.78A1.75,1.75,0,0,1,230.24,408.21Z" transform="translate(-190.76 -367.46)"/><path class="cls-2" d="M285.17,408.26l.2,1.45h-9.9v2.67l11.42.2.33,1.38-6.3,0-.08,4.8H284a1.88,1.88,0,0,0,1-.32l.7-.5a2.48,2.48,0,0,1,1.09-.45,3,3,0,0,1,1.15,0A2.77,2.77,0,0,1,289,418a2.65,2.65,0,0,1,.79.9l.75,1.37h-21.9v-1.5h8.1l-.08-4.77h-1.82l-1.65.12a1.58,1.58,0,0,1-1.25-.43,1.64,1.64,0,0,1-.55-1.22L271,404h11l.28,0a1.44,1.44,0,0,0,.25-.08l1.27-.52a1.52,1.52,0,0,1,1-.08,1.5,1.5,0,0,1,.8.55l1.32,1.65H275.47v2.78Z" transform="translate(-190.76 -367.46)"/><path class="cls-2" d="M222.72,450.86v1.42H210.89l1.18-1.42V436.38L210.89,435h5.25v15.9Z" transform="translate(-190.76 -367.46)"/><path class="cls-2" d="M232.89,447.46h-6.17l-2,4.82h-1.43l6.6-15.92-1.17-1.4h3.17l7.2,17.32h-4.17Zm-.57-1.43-2.5-6-2.5,6Z" transform="translate(-190.76 -367.46)"/><path class="cls-2" d="M255.44,447.78a8.36,8.36,0,0,1-1.35,2.09,7.49,7.49,0,0,1-1.64,1.39,7,7,0,0,1-1.76.78,6.66,6.66,0,0,1-1.72.24,8.5,8.5,0,0,1-3.38-.67,8.86,8.86,0,0,1-2.76-1.85A8.68,8.68,0,0,1,241,447a8.72,8.72,0,0,1,0-6.75,8.88,8.88,0,0,1,1.86-2.77,8.72,8.72,0,0,1,2.76-1.86A8.5,8.5,0,0,1,249,435a10.23,10.23,0,0,1,2.25.26,12.84,12.84,0,0,1,2.25.69l1.27-1v5s-.06-.14-.14-.32a4.45,4.45,0,0,0-.35-.68,10,10,0,0,0-.58-.85,5,5,0,0,0-.84-.82,4.72,4.72,0,0,0-1.13-.63,4,4,0,0,0-1.43-.25,4.79,4.79,0,0,0-2.33.58,5.93,5.93,0,0,0-1.87,1.56,7.59,7.59,0,0,0-1.27,2.31,8.32,8.32,0,0,0-.46,2.81,7.59,7.59,0,0,0,.49,2.78,7,7,0,0,0,1.31,2.22,5.87,5.87,0,0,0,1.93,1.47,5.26,5.26,0,0,0,2.3.52,3.26,3.26,0,0,0,1.83-.5,7.26,7.26,0,0,0,1.37-1.1,7.38,7.38,0,0,0,1.12-1.62Z" transform="translate(-190.76 -367.46)"/><path class="cls-2" d="M271,436.41h-5.05v15.9h-4.05v-15.9h-3.65l-1.43,2.25V435H271Z" transform="translate(-190.76 -367.46)"/><path class="cls-2" d="M279.62,435a8.37,8.37,0,0,1,3.36.67,8.75,8.75,0,0,1,2.74,1.86,9,9,0,0,1,1.85,2.77,8.84,8.84,0,0,1,0,6.75,8.66,8.66,0,0,1-4.59,4.6,8.37,8.37,0,0,1-3.36.67,8.5,8.5,0,0,1-3.38-.67,8.86,8.86,0,0,1-2.76-1.85,8.68,8.68,0,0,1-1.86-2.75,8.72,8.72,0,0,1,0-6.75,8.88,8.88,0,0,1,1.86-2.77,8.72,8.72,0,0,1,2.76-1.86A8.5,8.5,0,0,1,279.62,435Zm0,15.9a3.1,3.1,0,0,0,1.76-.57,5.07,5.07,0,0,0,1.46-1.55,8.19,8.19,0,0,0,1-2.3,10.55,10.55,0,0,0,.36-2.81,10.68,10.68,0,0,0-.36-2.82,8.06,8.06,0,0,0-1-2.3,5.31,5.31,0,0,0-1.46-1.55,3,3,0,0,0-3.55,0,5.18,5.18,0,0,0-1.46,1.55,8.06,8.06,0,0,0-1,2.3,10.68,10.68,0,0,0-.36,2.82,10.55,10.55,0,0,0,.36,2.81,8.19,8.19,0,0,0,1,2.3,5,5,0,0,0,1.46,1.55A3.12,3.12,0,0,0,279.62,450.86Z" transform="translate(-190.76 -367.46)"/></svg>