<svg id="레이어_1" data-name="레이어 1" xmlns="http://www.w3.org/2000/svg" viewBox="0 0 118.73 118.73"><defs><style>.cls-1{fill:#468676;stroke:#468676;stroke-linecap:round;stroke-linejoin:round;stroke-width:4px;}.cls-2{fill:#fff;}</style></defs><rect class="cls-1" x="2" y="2" width="114.73" height="114.73" rx="20.4"/><path class="cls-2" d="M220.5,402.94a9.11,9.11,0,0,1,3.27.52,6.55,6.55,0,0,1,2.14,1.26,4.48,4.48,0,0,1,1.49,3.2v.47a4.33,4.33,0,0,1-.26,1.38,4.7,4.7,0,0,1-.87,1.45,5.73,5.73,0,0,1-1.59,1.25,7.12,7.12,0,0,1-2.41.77l-.1,4.05h3.13a1.8,1.8,0,0,0,1-.32l.7-.5a2.81,2.81,0,0,1,1.09-.45,2.82,2.82,0,0,1,2.2.5,2.55,2.55,0,0,1,.79.9l.75,1.37H210v-1.5h8.1l-.08-4a8.3,8.3,0,0,1-2.68-.71,5.92,5.92,0,0,1-1.77-1.27,4.37,4.37,0,0,1-1-1.51,4.24,4.24,0,0,1-.29-1.44v-.47a4.41,4.41,0,0,1,.35-1.58,4.7,4.7,0,0,1,1.15-1.62,6.55,6.55,0,0,1,2.14-1.26,9.27,9.27,0,0,1,3.29-.52Zm.92,8.48a3.33,3.33,0,0,0,1.53-1.26,3.5,3.5,0,0,0,.6-2,3.58,3.58,0,0,0-.6-2,3.19,3.19,0,0,0-1.53-1.25,3.56,3.56,0,0,0-.77-.21,4.83,4.83,0,0,0-.8-.09,4.62,4.62,0,0,0-.79.09,3.62,3.62,0,0,0-.76.21,3.07,3.07,0,0,0-1.54,1.27,3.64,3.64,0,0,0-.59,2,3.57,3.57,0,0,0,.59,2,3.21,3.21,0,0,0,1.54,1.26,3.15,3.15,0,0,0,.76.2,5.39,5.39,0,0,0,.79.07,5.62,5.62,0,0,0,.8-.07A3.12,3.12,0,0,0,221.42,411.42Z" transform="translate(-190.76 -367.46)"/><path class="cls-2" d="M285.67,416.47a2.81,2.81,0,0,1,1.09-.45,2.82,2.82,0,0,1,2.2.5,2.55,2.55,0,0,1,.79.9l.75,1.37H268.6v-1.5h8.07l-.07-4.52,4.3.32-.1,4.2H284a1.8,1.8,0,0,0,1-.32Zm1.63-12.85L287,407l-.32,6.38-3.93-.58v-.5h-7.55l-3.9.75-.17-9.77,4.07.3v2.52h7.55v-2l-.25-1.23Zm-4.58,7.17v-3.2h-7.55v3.2Z" transform="translate(-190.76 -367.46)"/><path class="cls-2" d="M218.44,433.47a8.37,8.37,0,0,1,3.36.67,8.61,8.61,0,0,1,2.74,1.87,8.86,8.86,0,0,1,1.85,2.76,8.84,8.84,0,0,1,0,6.75,8.7,8.7,0,0,1-1.85,2.75,8.89,8.89,0,0,1-2.74,1.85,8.37,8.37,0,0,1-3.36.67,8.5,8.5,0,0,1-3.38-.67,8.86,8.86,0,0,1-2.76-1.85,8.6,8.6,0,0,1-2.54-6.13,8.46,8.46,0,0,1,.68-3.37A8.72,8.72,0,0,1,212.3,436a8.59,8.59,0,0,1,2.76-1.87A8.5,8.5,0,0,1,218.44,433.47Zm0,15.9a3.16,3.16,0,0,0,1.76-.56,5.19,5.19,0,0,0,1.46-1.55,8.45,8.45,0,0,0,1-2.3,11.22,11.22,0,0,0,0-5.64,8.19,8.19,0,0,0-1-2.3,5.31,5.31,0,0,0-1.46-1.55,3,3,0,0,0-3.55,0,5.18,5.18,0,0,0-1.46,1.55,8.19,8.19,0,0,0-1,2.3,11.23,11.23,0,0,0,0,5.64,8.45,8.45,0,0,0,1,2.3,5.07,5.07,0,0,0,1.46,1.55A3.18,3.18,0,0,0,218.44,449.37Z" transform="translate(-190.76 -367.46)"/><path class="cls-2" d="M256.89,433.49l-5.95,17.3h-1.7l0,0-5.47-15.85-1.65-1.43h5.25L251.56,444l3.6-10.55Z" transform="translate(-190.76 -367.46)"/><path class="cls-2" d="M280.81,433.47a8.37,8.37,0,0,1,3.36.67,8.5,8.5,0,0,1,2.74,1.87,8.86,8.86,0,0,1,1.85,2.76,8.84,8.84,0,0,1,0,6.75,8.66,8.66,0,0,1-4.59,4.6,8.37,8.37,0,0,1-3.36.67,8.5,8.5,0,0,1-3.38-.67,9,9,0,0,1-2.76-1.85,8.53,8.53,0,0,1-2.53-6.13,8.45,8.45,0,0,1,.67-3.37,8.77,8.77,0,0,1,4.62-4.63A8.5,8.5,0,0,1,280.81,433.47Zm0,15.9a3.13,3.13,0,0,0,1.76-.56,5.07,5.07,0,0,0,1.46-1.55,8.45,8.45,0,0,0,1-2.3,10.93,10.93,0,0,0,0-5.64,8.19,8.19,0,0,0-1-2.3,5.18,5.18,0,0,0-1.46-1.55,3.08,3.08,0,0,0-1.76-.58,3.15,3.15,0,0,0-1.79.58,5.31,5.31,0,0,0-1.46,1.55,8.19,8.19,0,0,0-1,2.3,11.22,11.22,0,0,0,0,5.64,8.45,8.45,0,0,0,1,2.3,5.19,5.19,0,0,0,1.46,1.55A3.2,3.2,0,0,0,280.81,449.37Z" transform="translate(-190.76 -367.46)"/></svg>