<svg id="레이어_1" data-name="레이어 1" xmlns="http://www.w3.org/2000/svg" viewBox="0 0 118.73 118.73"><defs><style>.cls-1{fill:#fff;stroke:#468676;stroke-linecap:round;stroke-linejoin:round;stroke-width:4px;}.cls-2{fill:#468676;}</style></defs><rect class="cls-1" x="2" y="2" width="114.73" height="114.73" rx="20.4"/><path class="cls-2" d="M220.27,407l-1.26,9,3.28-.31v-3.05l-2,.18-.51-1.85h2.48v-6.84l-.86-1.59,4.72,1.49-.23,4.12v13.45l-3.63.81V417l-11.69,1.79-1.84-1.89,6.64-.6.78-8.59-.28-1.21Zm.48-1.54H210.32v-1.52h4.37a1.83,1.83,0,0,0,.59-.1,1.36,1.36,0,0,0,.6-.45l5,.75-.1,1.06Zm-6.87,10.07a1.77,1.77,0,0,1-1.35-.15,1.68,1.68,0,0,1-.84-1.06,3.29,3.29,0,0,1-.1-.6c0-.27-.06-.59-.08-1s0-.75,0-1.18,0-.86-.05-1.3c0-1,0-2.12,0-3.33.64,1,1.23,2,1.77,2.82.21.37.44.74.66,1.11s.44.72.62,1,.34.6.47.84a2.91,2.91,0,0,1,.24.55,1.81,1.81,0,0,1-.15,1.37A1.74,1.74,0,0,1,213.88,415.5Zm13.48-12.93L226.5,401l4.7,1.49-.2,5.76v14.39l-3.64.83Z" transform="translate(-190.76 -367.46)"/><path class="cls-2" d="M258.51,414.39a2.47,2.47,0,0,1-.75.54,2.14,2.14,0,0,1-.87.21A2.1,2.1,0,0,1,256,415a2.59,2.59,0,0,1-.82-.5,4.18,4.18,0,0,1-.74-.92c-.3-.46-.61-1-.94-1.56s-.65-1.17-1-1.76-.59-1.1-.81-1.54a7.65,7.65,0,0,1-1.34,2,10.38,10.38,0,0,1-1.74,1.53,12.53,12.53,0,0,1-2,1.09,14.85,14.85,0,0,1-2,.74,19.52,19.52,0,0,1-4.9.75,10.6,10.6,0,0,0,2.55-1.1,11,11,0,0,0,1.94-1.45,9.7,9.7,0,0,0,1.42-1.63,12.5,12.5,0,0,0,1-1.67,12.65,12.65,0,0,0,1.11-4.12l-1-1.29,5.86.94a10,10,0,0,1-.17,1.87,9.72,9.72,0,0,1-.44,1.61l1.6.66,2,.83c.65.29,1.24.57,1.78.85a4.93,4.93,0,0,1,1.08.67,2.17,2.17,0,0,1,.76,1.62A2.36,2.36,0,0,1,258.51,414.39Zm-1.31,3.35a2.75,2.75,0,0,1,1.09-.45,2.88,2.88,0,0,1,1.17,0,2.81,2.81,0,0,1,1.06.48,2.65,2.65,0,0,1,.79.9l.76,1.39H240v-1.51h15.49a1.88,1.88,0,0,0,1-.33Z" transform="translate(-190.76 -367.46)"/><path class="cls-2" d="M286.63,417.74a2.73,2.73,0,0,1,1.1-.45,2.83,2.83,0,0,1,1.16,0,2.74,2.74,0,0,1,1.06.48,2.55,2.55,0,0,1,.79.9l.76,1.39H269.39v-1.51h5.4l-.08-5.08,4.35.33-.11,4.75h5.94a1.87,1.87,0,0,0,1-.33Zm.63-12-.25,9-4.32.73v-4.82l-10.37,1.18-1-1.66,11.36-.71V406H271.81v-1.51h9.39a2.15,2.15,0,0,0,.59-.1,1.31,1.31,0,0,0,.6-.46l5,.76Z" transform="translate(-190.76 -367.46)"/><path class="cls-2" d="M219.79,434.91a5.63,5.63,0,0,1,4,1.65,6.08,6.08,0,0,1,1.2,1.81,5.7,5.7,0,0,1,0,4.39,5.91,5.91,0,0,1-1.2,1.8,5.51,5.51,0,0,1-1.8,1.22,5.6,5.6,0,0,1-2.19.44h-5v6.18H210.7v-16l-1.18-1.44Zm-2.55,9.84a4,4,0,0,0,1.6-.32,4.09,4.09,0,0,0,1.3-.9,4.14,4.14,0,0,0,.87-1.33,4.21,4.21,0,0,0,.32-1.64,4.34,4.34,0,0,0-1.19-3,3.94,3.94,0,0,0-1.3-.9,3.88,3.88,0,0,0-1.6-.33h-2.42v8.4Z" transform="translate(-190.76 -367.46)"/><path class="cls-2" d="M240.84,447.93l-.71,4.45v0H227.84v-16l-1.19-1.44h14v3.15l-1.44-1.71H232v6.59h5.91v1.43H232V451h6.71Z" transform="translate(-190.76 -367.46)"/><path class="cls-2" d="M243.29,446a3.88,3.88,0,0,0,.41,1.63,6.67,6.67,0,0,0,1.1,1.61,6.23,6.23,0,0,0,1.54,1.23,3.52,3.52,0,0,0,1.74.48,4.26,4.26,0,0,0,1.39-.22,3.62,3.62,0,0,0,1.14-.59,2.89,2.89,0,0,0,.76-.91,2.57,2.57,0,0,0,.27-1.19,2.33,2.33,0,0,0-.25-1.11,2.55,2.55,0,0,0-.68-.82,4.14,4.14,0,0,0-1-.56,7.93,7.93,0,0,0-1.3-.38,13.38,13.38,0,0,1-2.78-1,5.68,5.68,0,0,1-2-1.66,5.16,5.16,0,0,1-.74-1.3,4.32,4.32,0,0,1-.25-1.47,4.42,4.42,0,0,1,.46-2,5.23,5.23,0,0,1,1.25-1.64,5.87,5.87,0,0,1,1.84-1.11,6.21,6.21,0,0,1,2.26-.4,6.33,6.33,0,0,1,2.14.36,6,6,0,0,1,1.79,1l1.67-1.38v5.6a12.36,12.36,0,0,0-1.64-1.92,9.63,9.63,0,0,0-1.78-1.34,4.24,4.24,0,0,0-2.18-.6,2.5,2.5,0,0,0-1.69.54,1.85,1.85,0,0,0-.64,1.5,1.74,1.74,0,0,0,.65,1.45,4.53,4.53,0,0,0,1.68.8c1,.27,1.84.54,2.66.82a5.32,5.32,0,0,1,2.11,1.32,6.31,6.31,0,0,1,1.25,1.76,5,5,0,0,1,.44,2.13,5.51,5.51,0,0,1-.51,2.34,5.89,5.89,0,0,1-1.37,1.9,6.77,6.77,0,0,1-4.58,1.77,8.45,8.45,0,0,1-1.34-.11,6.1,6.1,0,0,1-1.35-.41,9.25,9.25,0,0,1-1.45-.76,14.05,14.05,0,0,1-1.62-1.17V446Z" transform="translate(-190.76 -367.46)"/><path class="cls-2" d="M271.53,447.86a8.51,8.51,0,0,1-1.36,2.11,7.59,7.59,0,0,1-1.65,1.4,6.62,6.62,0,0,1-1.78.78,6.47,6.47,0,0,1-1.74.25,8.61,8.61,0,0,1-3.41-.68,8.88,8.88,0,0,1-2.79-1.87,8.79,8.79,0,0,1-1.88-9.59,8.79,8.79,0,0,1,4.67-4.67,8.61,8.61,0,0,1,3.41-.68,11.14,11.14,0,0,1,2.27.26,14,14,0,0,1,2.27.7l1.29-1v5a2.29,2.29,0,0,1-.14-.33,6.82,6.82,0,0,0-.36-.68,8.35,8.35,0,0,0-.59-.86,4.72,4.72,0,0,0-.84-.83,4.8,4.8,0,0,0-1.14-.63,3.9,3.9,0,0,0-1.45-.25,4.87,4.87,0,0,0-2.35.58,6.19,6.19,0,0,0-1.89,1.58,7.71,7.71,0,0,0-1.28,2.33,8.5,8.5,0,0,0-.46,2.84,7.79,7.79,0,0,0,.49,2.81,7.53,7.53,0,0,0,1.32,2.24,6.05,6.05,0,0,0,1.95,1.47,5.23,5.23,0,0,0,2.32.54,3.34,3.34,0,0,0,1.85-.51,7.45,7.45,0,0,0,1.38-1.11,7.25,7.25,0,0,0,1.14-1.64Z" transform="translate(-190.76 -367.46)"/><path class="cls-2" d="M281.91,434.91a8.52,8.52,0,0,1,3.39.68,8.66,8.66,0,0,1,2.77,1.88,8.85,8.85,0,0,1,1.86,2.79,8.77,8.77,0,0,1,0,6.82,8.65,8.65,0,0,1-1.86,2.77,8.79,8.79,0,0,1-2.77,1.87,8.52,8.52,0,0,1-3.39.68,8.65,8.65,0,0,1-3.41-.68,8.88,8.88,0,0,1-2.79-1.87,8.55,8.55,0,0,1-1.88-2.77,8.89,8.89,0,0,1,0-6.82,8.79,8.79,0,0,1,4.67-4.67A8.65,8.65,0,0,1,281.91,434.91Zm0,16a3.16,3.16,0,0,0,1.78-.57,5,5,0,0,0,1.47-1.56,8.46,8.46,0,0,0,1-2.32,11.12,11.12,0,0,0,0-5.69,8.27,8.27,0,0,0-1-2.33,5.51,5.51,0,0,0-1.47-1.56,3.09,3.09,0,0,0-1.78-.58,3.14,3.14,0,0,0-1.81.58,5.51,5.51,0,0,0-1.47,1.56,8.27,8.27,0,0,0-1,2.33,11.12,11.12,0,0,0,0,5.69,8.46,8.46,0,0,0,1,2.32,5,5,0,0,0,1.47,1.56A3.2,3.2,0,0,0,281.91,451Z" transform="translate(-190.76 -367.46)"/></svg>