<svg id="레이어_1" data-name="레이어 1" xmlns="http://www.w3.org/2000/svg" viewBox="0 0 118.73 118.73"><defs><style>.cls-1{fill:#fff;stroke:#468676;stroke-linecap:round;stroke-linejoin:round;stroke-width:4px;}.cls-2{fill:#468676;}</style></defs><rect class="cls-1" x="2" y="2" width="114.73" height="114.73" rx="20.4"/><path class="cls-2" d="M223.6,408.05a2.76,2.76,0,0,1,1.12-.48,3,3,0,0,1,1.16,0,2.74,2.74,0,0,1,1.83,1.39l.79,1.38H222l-.08,1.64H225a1.86,1.86,0,0,0,1-.32l.7-.51a2.7,2.7,0,0,1,1.1-.45,2.87,2.87,0,0,1,2.22.5,2.7,2.7,0,0,1,.8.91l.76,1.39H209.46V412h8.26l-.05-1.64H215.6l-3.43.13-.59-1.64h7.8l.58-3.64-.25-1.21,4.37.79-1,3.58ZM212,403.61v-1.52h9.19a1.73,1.73,0,0,0,.58-.1,1.26,1.26,0,0,0,.58-.48l5,.76-.07,1.06,0,.28ZM228.5,423.2H216.71l-1.67.15a1.62,1.62,0,0,1-1.26-.45,1.68,1.68,0,0,1-.55-1.23l-.36-4,3.69.33,6.26.05v-1.69h-9.54v-1.52h7.8a1.9,1.9,0,0,0,.59-.11,1.34,1.34,0,0,0,.59-.47l5,.78-.3,3.13.12,1.39H216.56v2.12h5.32a1.66,1.66,0,0,0,1-.33l.7-.48a2.87,2.87,0,0,1,1.1-.46,2.66,2.66,0,0,1,1.16,0,3.34,3.34,0,0,1,1.05.48,2.63,2.63,0,0,1,.78.9Zm-13.71-19.29c.49.3.94.6,1.36.89s.69.51,1,.78a2.62,2.62,0,0,1,.63.68,1.51,1.51,0,0,1,.13,1.19,1.44,1.44,0,0,1-.76.9,1.52,1.52,0,0,1-2.09-.65,2.78,2.78,0,0,1-.22-.9c0-.41-.07-.83-.08-1.27S214.76,404.48,214.79,403.91Z" transform="translate(-190.76 -367.46)"/><path class="cls-2" d="M285.92,417.49A2.79,2.79,0,0,1,287,417a3,3,0,0,1,1.16,0,3.07,3.07,0,0,1,1.06.48,2.81,2.81,0,0,1,.8.91l.75,1.39H268.68v-1.52h8.43l-.07-3.93h-3.92a1.63,1.63,0,0,1-1.26-.45,1.68,1.68,0,0,1-.55-1.23l-.38-4.68,4,.32,7.5,0v-2.7h-11v-1.51h3.17l1.41,0,1.78-.06,1.78-.1c.54-.05,1-.1,1.4-.16a1.41,1.41,0,0,0,.68-.21l5,.78-.3,4.14.13,1.39H275.14v2.78h.28l11.38,0,.53,1.67-5.95,0-.1,4h2.9a1.83,1.83,0,0,0,1-.32Z" transform="translate(-190.76 -367.46)"/><path class="cls-2" d="M220.62,434.66a5.58,5.58,0,0,1,4,1.65,5.73,5.73,0,0,1,1.2,1.8,5.72,5.72,0,0,1,0,4.4,5.73,5.73,0,0,1-1.2,1.8,5.58,5.58,0,0,1-4,1.65h-5v6.19h-4.12v-16l-1.18-1.44Zm-2.55,9.84a4,4,0,0,0,1.61-.33,4.35,4.35,0,0,0,1.3-.89,4.14,4.14,0,0,0,.87-1.33,4.2,4.2,0,0,0,.31-1.64,4.3,4.3,0,0,0-.31-1.63,4.35,4.35,0,0,0-.87-1.35,4.07,4.07,0,0,0-1.3-.91,4,4,0,0,0-1.61-.32h-2.42v8.4Z" transform="translate(-190.76 -367.46)"/><path class="cls-2" d="M236.15,434.66a8.35,8.35,0,0,1,3.39.68,8.61,8.61,0,0,1,2.76,1.88,8.72,8.72,0,0,1,1.87,2.79,8.87,8.87,0,0,1,0,6.81,8.56,8.56,0,0,1-1.87,2.78,8.92,8.92,0,0,1-2.76,1.87,8.52,8.52,0,0,1-3.39.68,8.61,8.61,0,0,1-3.41-.68A9.06,9.06,0,0,1,230,449.6a8.59,8.59,0,0,1-1.88-2.78,8.87,8.87,0,0,1,0-6.81,8.79,8.79,0,0,1,4.67-4.67A8.44,8.44,0,0,1,236.15,434.66Zm0,16a3.16,3.16,0,0,0,1.78-.57,5.26,5.26,0,0,0,1.47-1.56,8.6,8.6,0,0,0,1-2.32,10.89,10.89,0,0,0,.36-2.84,11,11,0,0,0-.36-2.86,8.33,8.33,0,0,0-1-2.32,5.26,5.26,0,0,0-1.47-1.56,3.07,3.07,0,0,0-3.59,0,5.29,5.29,0,0,0-1.48,1.56,8.32,8.32,0,0,0-1,2.32,10.62,10.62,0,0,0-.37,2.86,10.48,10.48,0,0,0,.37,2.84,8.59,8.59,0,0,0,1,2.32,5.29,5.29,0,0,0,1.48,1.56A3.18,3.18,0,0,0,236.15,450.71Z" transform="translate(-190.76 -367.46)"/><path class="cls-2" d="M258.48,450.71v1.44H246.55l1.18-1.44V436.1l-1.18-1.44h5.3v16Z" transform="translate(-190.76 -367.46)"/><path class="cls-2" d="M271.43,450.71v1.44H259.49l1.19-1.44V436.1l-1.19-1.44h5.3v16Z" transform="translate(-190.76 -367.46)"/><path class="cls-2" d="M281.08,434.66a8.35,8.35,0,0,1,3.39.68,8.61,8.61,0,0,1,2.76,1.88A8.72,8.72,0,0,1,289.1,440a8.87,8.87,0,0,1,0,6.81,8.56,8.56,0,0,1-1.87,2.78,8.92,8.92,0,0,1-2.76,1.87,8.52,8.52,0,0,1-3.39.68,8.61,8.61,0,0,1-3.41-.68,9.06,9.06,0,0,1-2.79-1.87,8.59,8.59,0,0,1-1.88-2.78,8.87,8.87,0,0,1,0-6.81,8.79,8.79,0,0,1,4.67-4.67A8.44,8.44,0,0,1,281.08,434.66Zm0,16a3.16,3.16,0,0,0,1.78-.57,5.26,5.26,0,0,0,1.47-1.56,8.93,8.93,0,0,0,1-2.32,10.89,10.89,0,0,0,.36-2.84,11,11,0,0,0-.36-2.86,8.64,8.64,0,0,0-1-2.32,5.26,5.26,0,0,0-1.47-1.56,3.07,3.07,0,0,0-3.59,0,5.29,5.29,0,0,0-1.48,1.56,8.32,8.32,0,0,0-1,2.32,10.62,10.62,0,0,0-.37,2.86,10.48,10.48,0,0,0,.37,2.84,8.59,8.59,0,0,0,1,2.32,5.29,5.29,0,0,0,1.48,1.56A3.18,3.18,0,0,0,281.08,450.71Z" transform="translate(-190.76 -367.46)"/></svg>