<svg id="레이어_1" data-name="레이어 1" xmlns="http://www.w3.org/2000/svg" viewBox="0 0 118.73 118.73"><defs><style>.cls-1{fill:#468676;stroke:#468676;stroke-linecap:round;stroke-linejoin:round;stroke-width:4px;}.cls-2{fill:#fff;}</style></defs><rect class="cls-1" x="2" y="2" width="114.73" height="114.73" rx="20.4"/><path class="cls-2" d="M223.85,408.23a2.56,2.56,0,0,1,1.12-.47,3,3,0,0,1,1.15,0,2.56,2.56,0,0,1,1,.48,2.63,2.63,0,0,1,.78.9l.77,1.37h-6.47l-.08,1.63h3a1.85,1.85,0,0,0,1-.33l.7-.5a2.69,2.69,0,0,1,1.09-.45,3,3,0,0,1,1.15,0,2.91,2.91,0,0,1,1.05.47,2.63,2.63,0,0,1,.78.9l.75,1.38h-21.9v-1.5H218l-.05-1.63h-2l-3.4.13L212,409h7.73l.57-3.6-.25-1.2,4.33.78-1,3.55Zm-11.52-4.4v-1.5h9.1a1.71,1.71,0,0,0,.57-.1,1.3,1.3,0,0,0,.58-.47l4.92.75-.07,1.05,0,.27Zm16.37,19.4H217l-1.65.15a1.6,1.6,0,0,1-1.25-.44,1.68,1.68,0,0,1-.55-1.22l-.35-4,3.65.32,6.2.05v-1.67h-9.45V415h7.72a1.63,1.63,0,0,0,.59-.12,1.31,1.31,0,0,0,.59-.46l4.9.78-.3,3.1.12,1.37H216.88v2.1h5.27a1.68,1.68,0,0,0,1-.32l.7-.48a2.7,2.7,0,0,1,1.09-.46,2.62,2.62,0,0,1,1.15,0,3,3,0,0,1,1,.48,2.5,2.5,0,0,1,.78.89Zm-13.57-19.1c.48.3.93.59,1.35.88s.68.51,1,.77a2.54,2.54,0,0,1,.62.68,1.5,1.5,0,0,1,.13,1.17,1.46,1.46,0,0,1-.75.9,1.48,1.48,0,0,1-1.18.11,1.44,1.44,0,0,1-.9-.76,2.45,2.45,0,0,1-.21-.89c0-.4-.07-.83-.09-1.26S215.1,404.7,215.13,404.13Z" transform="translate(-190.76 -367.46)"/><path class="cls-2" d="M285.58,417.58a2.69,2.69,0,0,1,1.09-.45,3,3,0,0,1,1.15,0,2.91,2.91,0,0,1,1.05.47,2.63,2.63,0,0,1,.78.9l.75,1.38H268.5v-1.5h8.35l-.07-3.9H272.9a1.64,1.64,0,0,1-1.25-.44,1.71,1.71,0,0,1-.55-1.22l-.37-4.64,3.92.32,7.43.05v-2.67H271.15v-1.5h2.48l.66,0,1.4,0,1.76-.07c.64,0,1.22-.05,1.77-.1s1-.09,1.38-.15a1.27,1.27,0,0,0,.68-.21l4.92.78-.3,4.1.13,1.37H274.9v2.75h.28l11.27,0,.53,1.65-5.9,0-.1,3.93h2.87a1.87,1.87,0,0,0,1-.33Z" transform="translate(-190.76 -367.46)"/><path class="cls-2" d="M220.9,434.58a5.51,5.51,0,0,1,2.18.44,5.44,5.44,0,0,1,1.77,1.2A5.66,5.66,0,0,1,226,438a5.47,5.47,0,0,1,.44,2.17,5.55,5.55,0,0,1-.44,2.18,5.62,5.62,0,0,1-1.19,1.78,5.44,5.44,0,0,1-1.77,1.2,5.34,5.34,0,0,1-2.18.44H216v6.13H211.9V436l-1.17-1.43Zm-2.52,9.75A4,4,0,0,0,220,444a4.24,4.24,0,0,0,2.15-5.44,4.19,4.19,0,0,0-.87-1.34,4,4,0,0,0-1.28-.9,3.83,3.83,0,0,0-1.59-.32H216v8.32Z" transform="translate(-190.76 -367.46)"/><path class="cls-2" d="M236.28,434.58a8.37,8.37,0,0,1,3.36.68,8.63,8.63,0,0,1,2.74,1.86,8.86,8.86,0,0,1,1.85,2.76,8.84,8.84,0,0,1,0,6.75,8.66,8.66,0,0,1-4.59,4.6,8.37,8.37,0,0,1-3.36.68,8.5,8.5,0,0,1-3.38-.68,8.86,8.86,0,0,1-2.76-1.85,8.57,8.57,0,0,1-1.86-2.75,8.72,8.72,0,0,1,0-6.75,8.7,8.7,0,0,1,4.62-4.62A8.5,8.5,0,0,1,236.28,434.58Zm0,15.9a3.13,3.13,0,0,0,1.76-.56,5.07,5.07,0,0,0,1.46-1.55,8.45,8.45,0,0,0,1-2.3,10.6,10.6,0,0,0,.36-2.81,10.81,10.81,0,0,0-.36-2.83,8.19,8.19,0,0,0-1-2.3,5.31,5.31,0,0,0-1.46-1.55,3.07,3.07,0,0,0-1.76-.57,3.14,3.14,0,0,0-1.79.57,5.44,5.44,0,0,0-1.46,1.55,8.19,8.19,0,0,0-1,2.3,10.81,10.81,0,0,0-.36,2.83,10.6,10.6,0,0,0,.36,2.81,8.45,8.45,0,0,0,1,2.3,5.19,5.19,0,0,0,1.46,1.55A3.2,3.2,0,0,0,236.28,450.48Z" transform="translate(-190.76 -367.46)"/><path class="cls-2" d="M258.4,450.48v1.43H246.58l1.17-1.43V436l-1.17-1.43h5.25v15.9Z" transform="translate(-190.76 -367.46)"/><path class="cls-2" d="M271.23,450.48v1.43H259.4l1.18-1.43V436l-1.18-1.43h5.25v15.9Z" transform="translate(-190.76 -367.46)"/><path class="cls-2" d="M280.78,434.58a8.37,8.37,0,0,1,3.36.68,8.63,8.63,0,0,1,2.74,1.86,8.86,8.86,0,0,1,1.85,2.76,8.84,8.84,0,0,1,0,6.75,8.66,8.66,0,0,1-4.59,4.6,8.37,8.37,0,0,1-3.36.68,8.5,8.5,0,0,1-3.38-.68,8.86,8.86,0,0,1-2.76-1.85,8.57,8.57,0,0,1-1.86-2.75,8.72,8.72,0,0,1,0-6.75,8.7,8.7,0,0,1,4.62-4.62A8.5,8.5,0,0,1,280.78,434.58Zm0,15.9a3.13,3.13,0,0,0,1.76-.56,5.07,5.07,0,0,0,1.46-1.55,8.45,8.45,0,0,0,1-2.3,10.6,10.6,0,0,0,.36-2.81,10.81,10.81,0,0,0-.36-2.83,8.19,8.19,0,0,0-1-2.3,5.31,5.31,0,0,0-1.46-1.55,3.07,3.07,0,0,0-1.76-.57,3.14,3.14,0,0,0-1.79.57,5.31,5.31,0,0,0-1.46,1.55,8.19,8.19,0,0,0-1,2.3,10.81,10.81,0,0,0-.36,2.83,10.6,10.6,0,0,0,.36,2.81,8.45,8.45,0,0,0,1,2.3,5.07,5.07,0,0,0,1.46,1.55A3.2,3.2,0,0,0,280.78,450.48Z" transform="translate(-190.76 -367.46)"/></svg>