<svg id="레이어_1" data-name="레이어 1" xmlns="http://www.w3.org/2000/svg" viewBox="0 0 118.73 119.23"><defs><style>.cls-1{fill:#fff;stroke:#468676;stroke-linecap:round;stroke-linejoin:round;stroke-width:4px;}.cls-2{fill:#468676;}</style></defs><rect class="cls-1" x="2" y="2" width="114.73" height="115.23" rx="20.4"/><path class="cls-2" d="M212.18,394a2.36,2.36,0,0,1,1-.42,2.45,2.45,0,0,1,1,0,2.41,2.41,0,0,1,1.59,1.21l.69,1.22h-5.7l-.07,1.43h2.69a1.64,1.64,0,0,0,.9-.28l.61-.45a2.35,2.35,0,0,1,1-.39,2.53,2.53,0,0,1,1.94.44,2.41,2.41,0,0,1,.69.79l.66,1.22H199.86v-1.33h7.19l0-1.43H205.2l-3,.11-.5-1.44h6.79l.51-3.18-.22-1.06,3.81.68-.84,3.14ZM202,390.09v-1.32h8a1.57,1.57,0,0,0,.51-.09,1.15,1.15,0,0,0,.51-.42l4.33.66-.06.93,0,.24Zm14.41,17.15H206.17l-1.45.13a1.42,1.42,0,0,1-1.1-.38,1.47,1.47,0,0,1-.48-1.08l-.31-3.51,3.21.29,5.46,0v-1.48h-8.32v-1.32H210a1.76,1.76,0,0,0,.52-.1,1.19,1.19,0,0,0,.51-.41l4.32.68-.27,2.74.11,1.22H206v1.86h4.64a1.45,1.45,0,0,0,.9-.29l.62-.42a2.41,2.41,0,0,1,1-.41,2.29,2.29,0,0,1,1,0,2.6,2.6,0,0,1,.91.42,2.24,2.24,0,0,1,.68.78ZM204.5,390.36c.43.26.82.52,1.19.77s.6.45.88.69a2.33,2.33,0,0,1,.55.59,1.4,1.4,0,0,1,.11,1,1.25,1.25,0,0,1-.66.8,1.35,1.35,0,0,1-1,.1,1.32,1.32,0,0,1-.79-.68,2.23,2.23,0,0,1-.18-.78c0-.36-.07-.73-.08-1.12A13.48,13.48,0,0,1,204.5,390.36Z" transform="translate(-190.76 -367.22)"/><path class="cls-2" d="M235.7,402.25a2.28,2.28,0,0,1,1-.4,2.69,2.69,0,0,1,1,0,2.83,2.83,0,0,1,.92.42,2.23,2.23,0,0,1,.69.8l.66,1.21H220.67V403H228l-.07-3.45h-3.41a1.41,1.41,0,0,1-1.1-.39,1.47,1.47,0,0,1-.48-1.08l-.33-4.1,3.45.29,6.54,0v-2.36H223V390.6h2.76l1.23,0,1.56-.06c.55,0,1.07-.05,1.55-.09s.88-.08,1.22-.13.53-.11.59-.19l4.34.69L236,394.4l.11,1.22H226.3v2.43h.24l9.93,0,.46,1.45-5.19,0-.09,3.47h2.53a1.63,1.63,0,0,0,.9-.29Z" transform="translate(-190.76 -367.22)"/><path class="cls-2" d="M250.63,392.81l-1.1,7.85,2.87-.27v-2.67l-1.72.15-.44-1.61h2.16v-6l-.75-1.39,4.11,1.3-.2,3.6v11.78l-3.16.71v-4.71l-10.19,1.57-1.61-1.66,5.79-.53.68-7.51-.24-1.06Zm.42-1.35H242v-1.32h3.8a1.67,1.67,0,0,0,.52-.09,1.11,1.11,0,0,0,.52-.4l4.33.67-.09.92Zm-6,8.82a1.52,1.52,0,0,1-1.18-.13,1.48,1.48,0,0,1-.73-.93,3.74,3.74,0,0,1-.09-.52c0-.24,0-.52-.07-.84s0-.66,0-1,0-.75-.05-1.14c0-.88,0-1.85,0-2.91l1.54,2.47c.19.33.38.65.58,1s.38.63.54.91.3.53.41.74a2.68,2.68,0,0,1,.21.48,1.56,1.56,0,0,1-.14,1.2A1.47,1.47,0,0,1,245.07,400.28ZM256.82,389l-.75-1.39,4.09,1.3-.17,5v12.59l-3.17.73Z" transform="translate(-190.76 -367.22)"/><path class="cls-2" d="M277.8,399.31a2,2,0,0,1-1.4.66,1.73,1.73,0,0,1-.78-.12,2.42,2.42,0,0,1-.72-.43,3.91,3.91,0,0,1-.64-.81c-.26-.4-.54-.86-.82-1.37s-.57-1-.85-1.53-.51-1-.7-1.35a6.92,6.92,0,0,1-1.17,1.79,9.54,9.54,0,0,1-1.52,1.34,11.4,11.4,0,0,1-1.7,1,13.85,13.85,0,0,1-1.75.64,16.94,16.94,0,0,1-4.27.66,9.4,9.4,0,0,0,2.22-1,9.9,9.9,0,0,0,1.7-1.27,9,9,0,0,0,1.23-1.43,9.1,9.1,0,0,0,.83-1.47,10.8,10.8,0,0,0,1-3.6l-.9-1.12,5.1.81a8.43,8.43,0,0,1-.14,1.64,8.56,8.56,0,0,1-.38,1.41l1.39.58c.57.23,1.13.48,1.7.73s1.08.49,1.55.74a4.53,4.53,0,0,1,.94.58,1.88,1.88,0,0,1,.66,1.43A2,2,0,0,1,277.8,399.31Zm-1.14,2.94a2.26,2.26,0,0,1,1-.4,2.49,2.49,0,0,1,1.93.44,2.36,2.36,0,0,1,.7.8l.66,1.21H261.63V403h13.51a1.63,1.63,0,0,0,.9-.29Z" transform="translate(-190.76 -367.22)"/><path class="cls-2" d="M296.15,402.25a2.32,2.32,0,0,1,1-.4,2.64,2.64,0,0,1,1,0,2.78,2.78,0,0,1,.93.42,2.44,2.44,0,0,1,.69.8l.66,1.21H281.13V403h4.7l-.06-4.45,3.78.29-.09,4.16h5.17a1.68,1.68,0,0,0,.91-.29Zm.55-10.52-.22,7.87-3.76.64V396l-9,1-.86-1.45,9.9-.62v-3h-9.48v-1.33h8.18a1.65,1.65,0,0,0,.52-.08,1.24,1.24,0,0,0,.52-.4l4.33.66Z" transform="translate(-190.76 -367.22)"/><path class="cls-2" d="M224.41,420.65a4.76,4.76,0,0,1,1.91.38,4.89,4.89,0,0,1,1.57,1.06,5.17,5.17,0,0,1,1,1.58,4.95,4.95,0,0,1,0,3.85,5.17,5.17,0,0,1-1,1.58,4.89,4.89,0,0,1-1.57,1.06,4.76,4.76,0,0,1-1.91.38h-4.33V436h-3.59v-14l-1-1.26Zm-2.22,8.61a3.39,3.39,0,0,0,1.39-.28,3.69,3.69,0,0,0,1.14-.79,3.82,3.82,0,0,0,.76-1.16,3.92,3.92,0,0,0,0-2.86,3.92,3.92,0,0,0-.76-1.18,3.43,3.43,0,0,0-2.53-1.08h-2.11v7.35Z" transform="translate(-190.76 -367.22)"/><path class="cls-2" d="M237.94,420.65a7.31,7.31,0,0,1,3,.59,7.6,7.6,0,0,1,2.41,1.65,7.85,7.85,0,0,1,1.63,2.44,7.85,7.85,0,0,1,0,6,7.92,7.92,0,0,1-1.63,2.43,7.71,7.71,0,0,1-2.41,1.63,7.63,7.63,0,0,1-5.93,0,7.92,7.92,0,0,1-2.43-1.63,7.78,7.78,0,0,1-1.64-2.43,7.85,7.85,0,0,1,0-6,7.71,7.71,0,0,1,1.64-2.44,7.8,7.8,0,0,1,2.43-1.65A7.36,7.36,0,0,1,237.94,420.65Zm0,14.05a2.74,2.74,0,0,0,1.55-.5,4.6,4.6,0,0,0,1.29-1.37,8,8,0,0,0,.87-2,9.43,9.43,0,0,0,.32-2.49,9.54,9.54,0,0,0-.32-2.49,7.79,7.79,0,0,0-.87-2,4.86,4.86,0,0,0-1.29-1.37,2.68,2.68,0,0,0-3.12,0,4.72,4.72,0,0,0-1.29,1.37,7.17,7.17,0,0,0-.87,2,9.54,9.54,0,0,0-.32,2.49,9.43,9.43,0,0,0,.32,2.49,7.36,7.36,0,0,0,.87,2,4.48,4.48,0,0,0,1.29,1.37A2.76,2.76,0,0,0,237.94,434.7Z" transform="translate(-190.76 -367.22)"/><path class="cls-2" d="M257.41,434.7V436H247l1-1.26V421.91l-1-1.26h4.62V434.7Z" transform="translate(-190.76 -367.22)"/><path class="cls-2" d="M268.7,434.7V436H258.29l1-1.26V421.91l-1-1.26h4.62V434.7Z" transform="translate(-190.76 -367.22)"/><path class="cls-2" d="M277.1,420.65a7.31,7.31,0,0,1,3,.59,7.66,7.66,0,0,1,4,4.09,7.73,7.73,0,0,1,0,6,7.72,7.72,0,0,1-1.62,2.43,7.83,7.83,0,0,1-2.41,1.63,7.63,7.63,0,0,1-5.93,0,7.69,7.69,0,0,1-2.43-1.63,7.61,7.61,0,0,1-1.64-2.43,7.68,7.68,0,0,1,1.64-8.41,7.58,7.58,0,0,1,2.43-1.65A7.36,7.36,0,0,1,277.1,420.65Zm0,14.05a2.74,2.74,0,0,0,1.55-.5,4.6,4.6,0,0,0,1.29-1.37,8,8,0,0,0,.87-2,9.44,9.44,0,0,0,.31-2.49,9.54,9.54,0,0,0-.31-2.49,7.79,7.79,0,0,0-.87-2,4.86,4.86,0,0,0-1.29-1.37,2.68,2.68,0,0,0-3.12,0,4.72,4.72,0,0,0-1.29,1.37,7.17,7.17,0,0,0-.87,2,9.54,9.54,0,0,0-.32,2.49,9.43,9.43,0,0,0,.32,2.49,7.36,7.36,0,0,0,.87,2,4.48,4.48,0,0,0,1.29,1.37A2.76,2.76,0,0,0,277.1,434.7Z" transform="translate(-190.76 -367.22)"/><path class="cls-2" d="M223.68,450.53a4.78,4.78,0,0,1,1.92.39,4.84,4.84,0,0,1,1.56,1.06,5,5,0,0,1,1,1.58,5,5,0,0,1-1,5.42A4.69,4.69,0,0,1,225.6,460a4.78,4.78,0,0,1-1.92.39h-4.33v5.42h-3.59V451.79l-1-1.26Zm-2.22,8.62a3.44,3.44,0,0,0,1.4-.29,3.57,3.57,0,0,0,1.13-.78,3.65,3.65,0,0,0,.76-1.16,3.83,3.83,0,0,0-.76-4.05,3.6,3.6,0,0,0-1.13-.79,3.44,3.44,0,0,0-1.4-.29h-2.11v7.36Z" transform="translate(-190.76 -367.22)"/><path class="cls-2" d="M242,461.93l-.61,3.89v0H230.7V451.79l-1-1.26h12.16v2.76l-1.25-1.5h-6.27v5.77h5.15v1.26h-5.15v5.76h5.85Z" transform="translate(-190.76 -367.22)"/><path class="cls-2" d="M244.17,460.23a3.39,3.39,0,0,0,.36,1.43,5.5,5.5,0,0,0,1,1.41,5.1,5.1,0,0,0,1.34,1.07,3.06,3.06,0,0,0,1.52.42,3.78,3.78,0,0,0,1.21-.19,3.09,3.09,0,0,0,1-.51,2.69,2.69,0,0,0,.66-.8,2.21,2.21,0,0,0,.24-1,2.13,2.13,0,0,0-.22-1,2.31,2.31,0,0,0-.6-.72,3.44,3.44,0,0,0-.89-.5,8,8,0,0,0-1.13-.33,11,11,0,0,1-2.42-.85,4.88,4.88,0,0,1-1.78-1.44,4.65,4.65,0,0,1-.64-1.14,3.58,3.58,0,0,1-.22-1.3A3.86,3.86,0,0,1,244,453a4.58,4.58,0,0,1,1.08-1.44,5.45,5.45,0,0,1,1.61-1,5.55,5.55,0,0,1,2-.35,5.29,5.29,0,0,1,1.87.32,5,5,0,0,1,1.56.89l1.45-1.21v4.9a10.72,10.72,0,0,0-1.43-1.68,8.73,8.73,0,0,0-1.55-1.17,3.68,3.68,0,0,0-1.9-.53,2.13,2.13,0,0,0-1.47.48,1.62,1.62,0,0,0-.55,1.31,1.51,1.51,0,0,0,.56,1.27,3.9,3.9,0,0,0,1.46.7c.84.23,1.61.47,2.32.72a4.61,4.61,0,0,1,1.84,1.16,5.45,5.45,0,0,1,1.09,1.53,4.49,4.49,0,0,1,.38,1.87,4.74,4.74,0,0,1-.44,2,5.13,5.13,0,0,1-1.2,1.67,5.85,5.85,0,0,1-4,1.55,7.59,7.59,0,0,1-1.17-.1,6.19,6.19,0,0,1-1.17-.35A9.23,9.23,0,0,1,245,465a11.83,11.83,0,0,1-1.41-1v-3.71Z" transform="translate(-190.76 -367.22)"/><path class="cls-2" d="M268.78,461.87a7.46,7.46,0,0,1-1.18,1.84,6.74,6.74,0,0,1-1.44,1.23,6.31,6.31,0,0,1-1.56.69,5.87,5.87,0,0,1-1.51.22,7.37,7.37,0,0,1-3-.6,7.71,7.71,0,0,1-2.44-1.64,7.53,7.53,0,0,1-1.63-2.43,7.7,7.7,0,0,1,0-6,7.55,7.55,0,0,1,4.07-4.09,7.37,7.37,0,0,1,3-.6,9.64,9.64,0,0,1,2,.23,13.08,13.08,0,0,1,2,.61l1.12-.84v4.4a2.31,2.31,0,0,1-.12-.29,5,5,0,0,0-.31-.59,6.91,6.91,0,0,0-.52-.76,4.15,4.15,0,0,0-.73-.72,3.87,3.87,0,0,0-1-.56,3.54,3.54,0,0,0-1.26-.22,4.27,4.27,0,0,0-2.05.51,5.43,5.43,0,0,0-1.65,1.38,6.92,6.92,0,0,0-1.11,2,7.56,7.56,0,0,0-.4,2.49,6.76,6.76,0,0,0,.43,2.46,6.46,6.46,0,0,0,1.15,2,5.29,5.29,0,0,0,1.69,1.29,4.65,4.65,0,0,0,2,.47,2.89,2.89,0,0,0,1.61-.45,5.59,5.59,0,0,0,1.2-1,6.16,6.16,0,0,0,1-1.43Z" transform="translate(-190.76 -367.22)"/><path class="cls-2" d="M277.83,450.53a7.27,7.27,0,0,1,2.95.6,7.74,7.74,0,0,1,2.41,1.64,7.84,7.84,0,0,1,1.63,2.45,7.7,7.7,0,0,1,0,6,7.68,7.68,0,0,1-4,4.07,7.27,7.27,0,0,1-2.95.6,7.37,7.37,0,0,1-3-.6,7.71,7.71,0,0,1-2.44-1.64,7.53,7.53,0,0,1-1.63-2.43,7.7,7.7,0,0,1,0-6,7.55,7.55,0,0,1,4.07-4.09A7.37,7.37,0,0,1,277.83,450.53Zm0,14.05a2.76,2.76,0,0,0,1.55-.49,4.45,4.45,0,0,0,1.28-1.37,7.36,7.36,0,0,0,.87-2,9.89,9.89,0,0,0,0-5,7.11,7.11,0,0,0-.87-2,4.69,4.69,0,0,0-1.28-1.37,2.66,2.66,0,0,0-3.13,0,4.69,4.69,0,0,0-1.28,1.37,7.11,7.11,0,0,0-.87,2,9.89,9.89,0,0,0,0,5,7.36,7.36,0,0,0,.87,2,4.45,4.45,0,0,0,1.28,1.37A2.78,2.78,0,0,0,277.83,464.58Z" transform="translate(-190.76 -367.22)"/></svg>