<svg id="레이어_1" data-name="레이어 1" xmlns="http://www.w3.org/2000/svg" viewBox="0 0 118.73 118.73"><defs><style>.cls-1{fill:#468676;stroke:#468676;stroke-linecap:round;stroke-linejoin:round;stroke-width:4px;}.cls-2{fill:#fff;}</style></defs><rect class="cls-1" x="2" y="2" width="114.73" height="114.73" rx="20.4"/><path class="cls-2" d="M149.29,316.55,149,320l-.33,11.23-3.71-.58v-.5h-4.08l-3.68.75L137,316.2l3.86.3v4.57h4.08v-4l-.25-1.25Zm-4.36,12v-6h-4.09v6ZM156,335l-4.24.81v-20.9l-1-1.62,5.53,1.51-.26,5.76Z" transform="translate(-116.49 -279.62)"/><path class="cls-2" d="M194.94,316.05h10.77v1.51a7.38,7.38,0,0,1-.48,2.73,8.27,8.27,0,0,1-1.26,2.16,8.94,8.94,0,0,1-1.78,1.64,15.65,15.65,0,0,1-2,1.2,19.49,19.49,0,0,1-5.55,1.66,22.83,22.83,0,0,0,3.61-2.84,12.8,12.8,0,0,0,2-2.55,7.47,7.47,0,0,0,.88-2.21,9.59,9.59,0,0,0,.2-1.79h-6.38Zm20.42,19.74H201.7l-1.67.12a1.71,1.71,0,0,1-1.84-1.64l-.12-6.36,4.84.3v6.06h5.83a1.59,1.59,0,0,0,1-.33l.71-.48a3,3,0,0,1,1.12-.46,2.67,2.67,0,0,1,1.16,0,3,3,0,0,1,1,.48,2.63,2.63,0,0,1,.78.9Zm-1.75-6.62-4.24.81v-6.79h-.1l-3.68.33-.48-1.84h4.26v-6.79l-1-1.62,5.51,1.51-.26,5.25Z" transform="translate(-116.49 -279.62)"/><path class="cls-2" d="M150.18,347.22l-6,17.47h-1.72l0,0-5.52-16-1.67-1.44h5.3l4.22,10.65,3.63-10.65Z" transform="translate(-116.49 -279.62)"/><path class="cls-2" d="M165.73,360.22l-.71,4.44v0H152.73V348.63l-1.18-1.44H165.5v3.16l-1.43-1.72h-7.2v6.59h5.91v1.44h-5.91v6.59h6.72Z" transform="translate(-116.49 -279.62)"/><path class="cls-2" d="M183.83,356v4.24l-1.44,1.49-1,.86a6.41,6.41,0,0,1-.74.64,9.13,9.13,0,0,1-2.46,1.24,7,7,0,0,1-1.92.24,8.65,8.65,0,0,1-3.41-.68,8.72,8.72,0,0,1-4.65-4.65,8.87,8.87,0,0,1,0-6.81,9.06,9.06,0,0,1,1.87-2.79,8.59,8.59,0,0,1,2.78-1.88,8.48,8.48,0,0,1,3.41-.69,6.38,6.38,0,0,1,2.5.45,10.67,10.67,0,0,1,2.14,1.22l1.44-1.67v5.26c0-.06-.18-.28-.44-.67a9.81,9.81,0,0,0-1.06-1.3,8.34,8.34,0,0,0-1.57-1.28,3.51,3.51,0,0,0-1.93-.57,4.71,4.71,0,0,0-2.28.58,6,6,0,0,0-1.82,1.58,7.84,7.84,0,0,0-1.2,2.32,9.38,9.38,0,0,0-.43,2.84,8.5,8.5,0,0,0,.47,2.84,7.92,7.92,0,0,0,1.27,2.33,6,6,0,0,0,1.9,1.56,4.89,4.89,0,0,0,2.32.57,3.73,3.73,0,0,0,1.16-.17,3.53,3.53,0,0,0,1-.46v-5.2L178.3,356Z" transform="translate(-116.49 -279.62)"/><path class="cls-2" d="M194.83,359.82H188.6l-2,4.87h-1.44l6.67-16.08-1.19-1.42h3.2l7.27,17.5h-4.21Zm-.58-1.44-2.52-6.06-2.52,6.06Z" transform="translate(-116.49 -279.62)"/><path class="cls-2" d="M216.42,347.22v17.47H214.7l-9.62-15.93,0,14.49v1.46h-1.69l0-16-1.24-1.44h6.11l6.46,10.35V347.22Z" transform="translate(-116.49 -279.62)"/></svg>