<svg id="레이어_1" data-name="레이어 1" xmlns="http://www.w3.org/2000/svg" viewBox="0 0 118.73 118.73"><defs><style>.cls-1{fill:#fff;stroke:#468676;stroke-linecap:round;stroke-linejoin:round;stroke-width:4px;}.cls-2{fill:#468676;}</style></defs><rect class="cls-1" x="2" y="2" width="114.73" height="114.73" rx="20.4"/><path class="cls-2" d="M223.82,404.61l-.33,3.37-.32,11.13-3.68-.58V418h-4l-3.65.75-.17-14.52,3.82.3v4.52h4v-4l-.25-1.23Zm-4.32,11.92v-5.95h-4.05v5.95Zm10.93,6.33-4.2.8V403l-1-1.6,5.47,1.5-.25,5.7Z" transform="translate(-190.76 -367.46)"/><path class="cls-2" d="M269,404.11H279.7v1.5a7.22,7.22,0,0,1-.47,2.7,7.76,7.76,0,0,1-1.25,2.13,8.77,8.77,0,0,1-1.76,1.63,15.47,15.47,0,0,1-2,1.19,19.46,19.46,0,0,1-5.5,1.65,22,22,0,0,0,3.58-2.82,12.53,12.53,0,0,0,2-2.52,7.32,7.32,0,0,0,.87-2.19,8.71,8.71,0,0,0,.2-1.77H269Zm20.22,19.55H275.73l-1.65.12a1.68,1.68,0,0,1-1.26-.42,1.64,1.64,0,0,1-.57-1.2l-.12-6.3,4.8.3v6h5.77a1.56,1.56,0,0,0,1-.33l.7-.47a3,3,0,0,1,1.12-.47,2.78,2.78,0,0,1,1.15,0,3,3,0,0,1,1,.47,2.69,2.69,0,0,1,.78.89Zm-1.72-6.55-4.2.8v-6.73h-.1l-3.65.33-.48-1.83h4.23V403l-1-1.6,5.45,1.5-.25,5.2Z" transform="translate(-190.76 -367.46)"/><path class="cls-2" d="M224.7,435l-5.95,17.3h-1.7l0,0-5.48-15.85L210,435h5.25l4.18,10.55L223,435Z" transform="translate(-190.76 -367.46)"/><path class="cls-2" d="M240.1,447.86l-.7,4.4v0H227.23v-15.9L226.05,435h13.83v3.12l-1.43-1.7h-7.12v6.53h5.85v1.42h-5.85v6.53H238Z" transform="translate(-190.76 -367.46)"/><path class="cls-2" d="M258,443.66v4.2l-1.43,1.47-1,.85a5.93,5.93,0,0,1-1.55,1.15,6.4,6.4,0,0,1-1.62.71,6.8,6.8,0,0,1-1.9.24,8.5,8.5,0,0,1-3.38-.67,8.63,8.63,0,0,1-4.6-4.6,8.84,8.84,0,0,1,0-6.75,9,9,0,0,1,1.85-2.77,8.68,8.68,0,0,1,2.75-1.86,8.5,8.5,0,0,1,3.38-.67,6.42,6.42,0,0,1,2.47.43,11.12,11.12,0,0,1,2.13,1.22L256.6,435v5.2c0-.05-.18-.27-.43-.67a9.6,9.6,0,0,0-1.05-1.28,8.48,8.48,0,0,0-1.55-1.27,3.58,3.58,0,0,0-1.92-.56,4.53,4.53,0,0,0-2.26.58,5.8,5.8,0,0,0-1.8,1.56,7.59,7.59,0,0,0-1.19,2.3,9.14,9.14,0,0,0-.42,2.81,8.32,8.32,0,0,0,.46,2.81,7.61,7.61,0,0,0,1.26,2.3,5.91,5.91,0,0,0,1.88,1.55,4.84,4.84,0,0,0,2.3.57,3.66,3.66,0,0,0,1.15-.17,3.62,3.62,0,0,0,.95-.46v-5.15l-1.43-1.42Z" transform="translate(-190.76 -367.46)"/><path class="cls-2" d="M268.93,447.46h-6.18l-2,4.82h-1.42l6.6-15.92-1.18-1.4h3.18l7.2,17.32H271Zm-.58-1.43-2.5-6-2.5,6Z" transform="translate(-190.76 -367.46)"/><path class="cls-2" d="M290.3,435v17.3h-1.7l-9.52-15.77,0,14.35v1.45h-1.67l0-15.9L276.18,435h6.05l6.4,10.25V435Z" transform="translate(-190.76 -367.46)"/></svg>