<svg id="레이어_1" data-name="레이어 1" xmlns="http://www.w3.org/2000/svg" viewBox="0 0 118.73 61.37"><defs><style>.cls-1{fill:#468676;stroke:#468676;stroke-linecap:round;stroke-linejoin:round;stroke-width:4px;}.cls-2{fill:#fff;}</style></defs><rect class="cls-1" x="2" y="2" width="114.73" height="57.37" rx="20.4"/><path class="cls-2" d="M337.58,436h-2l-.53,3.35h-4l.52-3.35h-2.27l-.53,3.35h-4l.52-3.35h-2.37l.37-2.47h2.38l.67-4.28h-2.17l.37-2.47h2.2l.53-3.33h4l-.53,3.33H333l.53-3.33h4l-.53,3.33h2.23l-.38,2.47h-2.25l-.67,4.28h2Zm-7.92-2.47h2.28l.67-4.28h-2.28Z" transform="translate(-298.17 -400.9)"/><path class="cls-2" d="M354.81,422.68a6.55,6.55,0,0,1,2.51.42,4.56,4.56,0,0,1,1.61,1,4,4,0,0,1,.87,1.35,4.16,4.16,0,0,1,.26,1.35v.88a4.17,4.17,0,0,1-.26,1.36,3.84,3.84,0,0,1-.87,1.36,4.44,4.44,0,0,1-1.61,1,6.56,6.56,0,0,1-2.51.41h-1.05a6.56,6.56,0,0,1-2.51-.41,4.76,4.76,0,0,1-1.64-1,3.64,3.64,0,0,1-.89-1.36,4.17,4.17,0,0,1-.26-1.36v-.88a4.16,4.16,0,0,1,.26-1.35,3.77,3.77,0,0,1,.89-1.35,4.9,4.9,0,0,1,1.64-1,6.55,6.55,0,0,1,2.51-.42Zm.22,8a3.18,3.18,0,0,0,.87-1.3,5.32,5.32,0,0,0,.38-2.1,5.38,5.38,0,0,0-.38-2.1,3.51,3.51,0,0,0-.87-1.32,1.45,1.45,0,0,0-.72-.2,1.5,1.5,0,0,0-.75.2,3.3,3.3,0,0,0-.88,1.32,5.57,5.57,0,0,0-.37,2.1,5.5,5.5,0,0,0,.37,2.1,3,3,0,0,0,.88,1.3,2,2,0,0,0,.36.17,1.32,1.32,0,0,0,.39.06,1.13,1.13,0,0,0,.36-.06A1.49,1.49,0,0,0,355,430.68Zm13.23,11.58H356.58l-1.65.12a1.68,1.68,0,0,1-1.82-1.63l-.35-4.14,3.65.32,6.2.05v-1.92h-9.43v-1.5h7.7a1.85,1.85,0,0,0,.59-.11,1.34,1.34,0,0,0,.59-.47l4.92.78-.32,3.35.12,1.37H356.41v2.28h5.3a1.58,1.58,0,0,0,1-.33l.7-.47a2.7,2.7,0,0,1,1.09-.46,2.62,2.62,0,0,1,1.15,0,3.11,3.11,0,0,1,1.05.48,2.56,2.56,0,0,1,.78.88ZM367,431.51l-4.2.8V421.83l-1-1.57,5.45,1.5-.25,4.45Z" transform="translate(-298.17 -400.9)"/><path class="cls-2" d="M384.78,434.06l2.9.82-.3,2.9-.35,5.13-3.4-.58h-7.25l-3.45.25-.12-8,3.57.32h1.35l-.05-1.95h-7.42v-1.5h15.32a1.83,1.83,0,0,0,1-.32l.7-.48a2.47,2.47,0,0,1,1.09-.47,3,3,0,0,1,1.15,0,3.11,3.11,0,0,1,1.05.48,2.63,2.63,0,0,1,.78.9l.75,1.37H382l0,1.95h1.7Zm-.64-6.55a2.71,2.71,0,0,1,1.12-.48,3.17,3.17,0,0,1,1.15,0,2.68,2.68,0,0,1,1,.47,2.82,2.82,0,0,1,.78.9l.77,1.38H376.23l-3.4.12-.57-1.62H380l.57-3.6-.25-1.2,4.33.77-.95,3.55Zm-11.51-4.4v-1.5h9.1a2,2,0,0,0,.58-.1,1.25,1.25,0,0,0,.57-.48l4.93.75-.08,1.05,0,.28Zm2.8.3q.74.45,1.35.87c.35.25.69.51,1,.78a2.79,2.79,0,0,1,.63.67,1.53,1.53,0,0,1,.12,1.18,1.4,1.4,0,0,1-.75.9,1.46,1.46,0,0,1-1.17.11,1.47,1.47,0,0,1-.9-.76,2.45,2.45,0,0,1-.21-.89q-.06-.61-.09-1.26C375.39,424.51,375.4,424,375.43,423.41Zm8.23,17.42v-4.45h-7.28v4.45Z" transform="translate(-298.17 -400.9)"/></svg>