<svg id="레이어_1" data-name="레이어 1" xmlns="http://www.w3.org/2000/svg" viewBox="0 0 118.73 61.37"><defs><style>.cls-1{fill:#468676;stroke:#468676;stroke-linecap:round;stroke-linejoin:round;stroke-width:4px;}.cls-2{fill:#fff;}</style></defs><rect class="cls-1" x="2" y="2" width="114.73" height="57.37" rx="20.4"/><path class="cls-2" d="M338.26,436.16h-2.05l-.53,3.35h-4l.53-3.35H330l-.53,3.35h-4l.53-3.35h-2.38l.38-2.48h2.37l.67-4.27h-2.17l.38-2.48h2.19l.53-3.32h4l-.52,3.32h2.27l.53-3.32h4l-.52,3.32h2.22l-.37,2.48h-2.25l-.67,4.27h2Zm-7.92-2.48h2.27l.67-4.27H331Z" transform="translate(-298.17 -400.9)"/><path class="cls-2" d="M360,442.51l-3.42.22-.08-5.55h-7.35v-1.5H364a1.77,1.77,0,0,0,1-.32l.7-.5a2.81,2.81,0,0,1,1.09-.45,2.82,2.82,0,0,1,2.2.5,2.55,2.55,0,0,1,.79.9l.77,1.37h-9.75l0,5.33Zm1.28-17.95,4.9.62-.1,1.3H351.28V425h8.5l.54,0a3,3,0,0,0,.54-.13A.87.87,0,0,0,361.26,424.56Zm-1.93,2.6a11.76,11.76,0,0,1,2.89.3,6,6,0,0,1,1.86.76,3,3,0,0,1,1,1,2.07,2.07,0,0,1,.3,1v.6a2.07,2.07,0,0,1-.3,1,3,3,0,0,1-1,1,6,6,0,0,1-1.86.76,11.76,11.76,0,0,1-2.89.3h-1.2a12,12,0,0,1-2.9-.3,6.27,6.27,0,0,1-1.88-.76,3.09,3.09,0,0,1-1-1,2,2,0,0,1-.31-1v-.6a2,2,0,0,1,.31-1,3.09,3.09,0,0,1,1-1,6.27,6.27,0,0,1,1.88-.76,12,12,0,0,1,2.9-.3Zm2-3.83a1.7,1.7,0,0,1-.85.79,2,2,0,0,1-1.3,0,4.55,4.55,0,0,1-1-.55,13.24,13.24,0,0,1-1.23-.93c-.46-.38-1-.8-1.45-1.25l1.9-.12c.5,0,1-.05,1.5,0a4.46,4.46,0,0,1,1.15.14,1.86,1.86,0,0,1,1.09.81A1.37,1.37,0,0,1,361.36,423.33Zm-1.63,9a2.86,2.86,0,0,0,1.25-.7,1.51,1.51,0,0,0,0-2.3,2.86,2.86,0,0,0-1.25-.7,3,3,0,0,0-1-.15,3.08,3.08,0,0,0-.53,0,2,2,0,0,0-.47.11,3,3,0,0,0-1.26.7,1.49,1.49,0,0,0,0,2.3,3,3,0,0,0,1.26.7,2.8,2.8,0,0,0,1,.17A2.77,2.77,0,0,0,359.73,432.36Z" transform="translate(-298.17 -400.9)"/><path class="cls-2" d="M384.33,432.88a2.31,2.31,0,0,1-.77.53,2.22,2.22,0,0,1-.88.17,2.18,2.18,0,0,1-.87-.17,2.46,2.46,0,0,1-.78-.53,3.6,3.6,0,0,1-.46-.65c-.17-.3-.36-.64-.55-1s-.38-.81-.56-1.25-.35-.87-.5-1.27a8.32,8.32,0,0,1-1.15,1.72,9.4,9.4,0,0,1-1.35,1.27,8.57,8.57,0,0,1-1.44.9,11.52,11.52,0,0,1-1.41.59,11.28,11.28,0,0,1-3.33.55,7.5,7.5,0,0,0,2-1.23,8.68,8.68,0,0,0,1.47-1.57,10,10,0,0,0,1-1.75,13.24,13.24,0,0,0,.65-1.78,14.49,14.49,0,0,0,.52-4.3l-1-1.27,5.32.92a15.84,15.84,0,0,1-.17,2.48,12.07,12.07,0,0,1-.5,2.07c.4.15.85.33,1.34.54l1.42.63c.46.21.87.41,1.24.61a3.44,3.44,0,0,1,.77.52,2.46,2.46,0,0,1,.53.78,2.18,2.18,0,0,1,.17.87,2.31,2.31,0,0,1-.17.89A2,2,0,0,1,384.33,432.88Zm6.83,3.17-.25,5.89-4.05.72v-6.35h-11v-1.5h9.33a1.87,1.87,0,0,0,.59-.1,1.26,1.26,0,0,0,.58-.45l4.93.75Zm.07-3.37-4.22.8V422l-1-1.6,5.45,1.5-.23,5.2Z" transform="translate(-298.17 -400.9)"/></svg>