<svg id="레이어_1" data-name="레이어 1" xmlns="http://www.w3.org/2000/svg" viewBox="0 0 118.73 61.37"><defs><style>.cls-1{fill:#468676;stroke:#468676;stroke-linecap:round;stroke-linejoin:round;stroke-width:4px;}.cls-2{fill:#fff;}</style></defs><rect class="cls-1" x="2" y="2" width="114.73" height="57.37" rx="20.4"/><path class="cls-2" d="M337.25,436.16H335.2l-.53,3.35h-4l.52-3.35H329l-.53,3.35h-4l.52-3.35H322.6l.37-2.48h2.38l.67-4.27h-2.17l.37-2.48h2.2l.53-3.32h4l-.52,3.32h2.27l.53-3.32h4l-.52,3.32h2.22l-.37,2.48h-2.25l-.68,4.27h2.05Zm-7.93-2.48h2.28l.67-4.27H330Z" transform="translate(-298.17 -400.9)"/><path class="cls-2" d="M348.12,425.68v-1.5h10.65v1.5a15.7,15.7,0,0,1-.45,3.92,13.34,13.34,0,0,1-1.19,3.1,11.16,11.16,0,0,1-1.68,2.37,14.51,14.51,0,0,1-1.93,1.74,13.9,13.9,0,0,1-5.22,2.42,11.17,11.17,0,0,0,2.53-2.22,14.14,14.14,0,0,0,2.79-5.24,21.1,21.1,0,0,0,.56-2.52,18.64,18.64,0,0,0,.23-2.12c0-.61,0-1.1,0-1.45Zm13.3-5.25,5.45,1.48-.25,5.72v14.3l-4.2.8V422Z" transform="translate(-298.17 -400.9)"/><path class="cls-2" d="M381.17,429.63l.2,1.33-7.05.27v4.5l8.43-.8.32,1.35-9.4,1.05-1.65.13a1.68,1.68,0,0,1-1.8-1.63l-.35-12h7.28a1.12,1.12,0,0,0,.27,0,1,1,0,0,0,.25-.07l1.28-.53a1.55,1.55,0,0,1,1-.07,1.43,1.43,0,0,1,.8.55l1.33,1.65h-7.73v4.32Zm9.23.9a2.06,2.06,0,0,1,.81.17,1.8,1.8,0,0,1,.66.45,2.23,2.23,0,0,1,.44.67,2.13,2.13,0,0,1,.16.84,2,2,0,0,1-.62,1.49,2.11,2.11,0,0,1-1.5.61,1.82,1.82,0,0,1-1-.38,10.37,10.37,0,0,0-1.41-.8v8.35l-4.22.8V422l-1-1.6,5.47,1.5-.25,5.7v4a13,13,0,0,0,1.45-.77A1.86,1.86,0,0,1,390.4,430.53Z" transform="translate(-298.17 -400.9)"/></svg>