<svg id="레이어_1" data-name="레이어 1" xmlns="http://www.w3.org/2000/svg" viewBox="0 0 154 61.37"><defs><style>.cls-1{fill:#fff;stroke:#468676;stroke-linecap:round;stroke-linejoin:round;stroke-width:4px;}.cls-2{fill:#468676;}</style></defs><rect class="cls-1" x="2" y="2" width="150" height="57.37" rx="20.4"/><path class="cls-2" d="M310,436.16h-2l-.52,3.35h-4l.53-3.35h-2.28l-.52,3.35h-4l.53-3.35h-2.38l.38-2.48h2.37l.68-4.27h-2.18l.38-2.48h2.2l.52-3.32h4l-.53,3.32h2.28l.52-3.32h4l-.53,3.32h2.23l-.38,2.48H309l-.67,4.27h2Zm-7.92-2.48h2.27l.68-4.27h-2.28Z" transform="translate(-280.53 -400.9)"/><path class="cls-2" d="M338,429.31a2.5,2.5,0,0,1,1.08-.48,3.16,3.16,0,0,1,1.15,0,2.75,2.75,0,0,1,1.84,1.37l.75,1.38H332.6l-.05,3.2h.1a1.71,1.71,0,0,0,.57-.1,1.37,1.37,0,0,0,.58-.45l4.92.75-.07,1,0,.28-.22,5.61-4,.72v-6.35H323.32v-1.5h5.05l-.05-3.2H320.9v-1.5h15.32a1.87,1.87,0,0,0,1-.33Zm.62-5.93-.25,4.65-4.27.73v-5.13H323.27v-1.5h9.3a1.83,1.83,0,0,0,.59-.1,1.2,1.2,0,0,0,.59-.45l4.92.75Z" transform="translate(-280.53 -400.9)"/><path class="cls-2" d="M364.25,440.36l-2.18-2.48a7.34,7.34,0,0,1-1.17,1.25,7,7,0,0,1-1.25.85,3.15,3.15,0,0,1-1.5.38,7.1,7.1,0,0,1-2.5-.43,6.51,6.51,0,0,1-2-1.16,5.47,5.47,0,0,1-1.39-1.72,4.46,4.46,0,0,1-.51-2.1,3.12,3.12,0,0,1,.3-1.34,5.07,5.07,0,0,1,.8-1.21,6.57,6.57,0,0,1,1.12-1,11.35,11.35,0,0,1,1.28-.85l-1-1a8.88,8.88,0,0,1-.84-.94,4.19,4.19,0,0,1-.56-1,2.63,2.63,0,0,1-.2-1.06,3.83,3.83,0,0,1,.41-1.79,4.09,4.09,0,0,1,1.16-1.4,5.77,5.77,0,0,1,1.76-.92,7.49,7.49,0,0,1,2.22-.32,6.63,6.63,0,0,1,2.22.36,5.8,5.8,0,0,1,1.78,1,4.74,4.74,0,0,1,1.16,1.49,4.23,4.23,0,0,1,.41,1.83,2.73,2.73,0,0,1-.41,1.49,4.42,4.42,0,0,1-1,1.1,6.74,6.74,0,0,1-1.28.78l-1.2.54,2.65,3.08.5-2.31h1.43l-.75,3.53,4.85,5.36Zm-6.1-1.5a2.68,2.68,0,0,0,1.62-.56,4.51,4.51,0,0,0,1.3-1.74l-4.42-4.85a2.2,2.2,0,0,0-.3.39,3.17,3.17,0,0,0-.28.63,6.34,6.34,0,0,0-.2,1,12.86,12.86,0,0,0-.07,1.51,4.51,4.51,0,0,0,.2,1.4,4.28,4.28,0,0,0,.53,1.14,3,3,0,0,0,.77.77A1.5,1.5,0,0,0,358.15,438.86Zm0-15.25a.74.74,0,0,0-.55.25,2.11,2.11,0,0,0-.44.67,4.43,4.43,0,0,0-.3,1,5.86,5.86,0,0,0-.11,1.21,1.78,1.78,0,0,0,.31,1,7,7,0,0,0,.69.91,11.44,11.44,0,0,0,1,.95,1.61,1.61,0,0,0,.52-.5,3.27,3.27,0,0,0,.38-.85,5.33,5.33,0,0,0,.17-1.5,4.72,4.72,0,0,0-.15-1.21,4.44,4.44,0,0,0-.39-1,2.28,2.28,0,0,0-.53-.67A.92.92,0,0,0,358.15,423.61Z" transform="translate(-280.53 -400.9)"/><path class="cls-2" d="M383.15,423.86a27.87,27.87,0,0,1-.38,4.9,19.4,19.4,0,0,1-1,3.6,9,9,0,0,1,.82.56,2.1,2.1,0,0,1,.5.49,1.25,1.25,0,0,1,.21,1.09,1.51,1.51,0,0,1-.63.93,1.36,1.36,0,0,1-1.09.2,1.51,1.51,0,0,1-.94-.62.74.74,0,0,1-.12-.28,7.76,7.76,0,0,1-1.74,1.84,7.68,7.68,0,0,1-1.64.94,4.87,4.87,0,0,1-1.7.37A7.82,7.82,0,0,0,377,436a11.63,11.63,0,0,0,1.05-2.23,13.8,13.8,0,0,0,.63-2.37c.14-.81.24-1.59.3-2.33s.08-1.43.07-2.06,0-1.18,0-1.63l-.8.25-1.15.25-.75-2Zm6.5-.25a31.45,31.45,0,0,1-.5,6,19,19,0,0,1-1.3,4.18c.45.29.89.58,1.32.89a3.36,3.36,0,0,1,.85.76,1.59,1.59,0,0,1,.25,1.28,1.78,1.78,0,0,1-.75,1.1,1.73,1.73,0,0,1-1.29.24,1.64,1.64,0,0,1-1.08-.74,2,2,0,0,1-.24-.63,9.09,9.09,0,0,1-.21-1,7.61,7.61,0,0,1-1.89,1.88,7.94,7.94,0,0,1-1.76.9,5.56,5.56,0,0,1-1.83.32,8.56,8.56,0,0,0,1.63-2,14.67,14.67,0,0,0,1.18-2.46,19.61,19.61,0,0,0,.8-2.68c.21-.91.38-1.78.49-2.61a20.23,20.23,0,0,0,.21-2.3c0-.7,0-1.28,0-1.73h-.3l-1.15.25-.75-1.77ZM396,441.93l-4.2.8V422l-1-1.6,5.46,1.5-.25,5.7Z" transform="translate(-280.53 -400.9)"/><path class="cls-2" d="M399.37,425.68v-1.5H409v1.5a16.77,16.77,0,0,1-.42,3.92,14.81,14.81,0,0,1-1.12,3.1,11.19,11.19,0,0,1-1.56,2.37,13.12,13.12,0,0,1-1.77,1.74,12.52,12.52,0,0,1-4.85,2.42,10.05,10.05,0,0,0,2.47-2.22,12.52,12.52,0,0,0,1.58-2.58,13,13,0,0,0,.88-2.66,17.61,17.61,0,0,0,.39-2.52,20.58,20.58,0,0,0,.09-2.12c0-.61,0-1.1,0-1.45Zm15.68-5.25,4.65,1.48-.2,5.7v14.25l-3.6.82V432.46l-1.43.12v8.2l-3.6.8v-18.1l-.85-1.57,4.68,1.47-.23,4.08v3.45h1.43V422Z" transform="translate(-280.53 -400.9)"/></svg>