<svg id="레이어_1" data-name="레이어 1" xmlns="http://www.w3.org/2000/svg" viewBox="0 0 234.78 234.78"><defs><style>.cls-1{fill:#527c45;}.cls-2{fill:#fff;}.cls-3,.cls-5{fill:#274121;}.cls-3,.cls-4,.cls-5{stroke:#274121;stroke-miterlimit:10;}.cls-4{fill:none;}.cls-5{stroke-width:0.75px;}</style></defs><rect class="cls-1" x="174.8" y="285.68" width="197" height="197" rx="52.89" transform="translate(-347.51 38.99) rotate(-45)"/><rect class="cls-2" x="187.86" y="298.74" width="170.88" height="170.88" rx="46.94" transform="translate(-347.51 38.99) rotate(-45)"/><path class="cls-3" d="M274.24,387.65a17,17,0,0,0,1.66,1.08,4.19,4.19,0,0,1,1.11.85,19,19,0,0,1,2.32,3.37,5.08,5.08,0,0,1,.6,2.71,1.41,1.41,0,0,1-.6,1.18,1.8,1.8,0,0,1-1,.36,1.57,1.57,0,0,1-1.27-.71l-9.66-12.26a59.4,59.4,0,0,1-5.75,7.62,41.1,41.1,0,0,1-6.51,6,5.22,5.22,0,0,1-2,1,1.44,1.44,0,0,1-1.38-.25.81.81,0,0,1-.25-.66,1.36,1.36,0,0,1,.53-.83A56.16,56.16,0,0,0,261.46,387a46,46,0,0,0,6.21-11.52.94.94,0,0,0,0-.77,2.49,2.49,0,0,0-.77-.77l-2.1-1.44-.47-.36a.47.47,0,0,1-.19-.41,1,1,0,0,1,.33-.75,1.11,1.11,0,0,1,.77-.3,7.52,7.52,0,0,1,1.91.36,16.56,16.56,0,0,1,2.43.91,18.4,18.4,0,0,1,2.1,1.13c.6.39.91.71.91,1a2.17,2.17,0,0,1-.39,1.16,11.89,11.89,0,0,0-.83,1.65,40.21,40.21,0,0,1-2.76,5.42c.33.44.73.91,1.19,1.41s.95,1,1.46,1.49,1,.95,1.55,1.38S273.8,387.32,274.24,387.65Z" transform="translate(-155.9 -266.79)"/><path class="cls-3" d="M338.81,390.36c1.06-.3,1.6-.08,1.6.66s-.52,1.16-1.55,1.49c-1.69.55-3.51,1.11-5.44,1.68s-3.87,1.11-5.82,1.61-3.89.95-5.8,1.38-3.7.78-5.36,1.07a10.69,10.69,0,0,0-2,.56,3.55,3.55,0,0,1-1.41.27,6.32,6.32,0,0,1-1.68-.27,14.41,14.41,0,0,1-1.85-.67,7,7,0,0,1-1.5-.85,1.27,1.27,0,0,1-.6-.91,1.12,1.12,0,0,1,.3-.78,1,1,0,0,1,.8-.33,16.14,16.14,0,0,1,2.18.22,15.1,15.1,0,0,0,3.84-.05c1.58-.19,3.26-.42,5-.69s3.59-.62,5.46-1c.26-1,.5-2,.72-3s.42-2,.58-3,.3-1.94.39-2.84.14-1.7.14-2.4a1.7,1.7,0,0,0-.78-1.44l-1.1-.83a.91.91,0,0,1-.44-.55.65.65,0,0,1,.11-.52,1.36,1.36,0,0,1,.44-.42,1.16,1.16,0,0,1,.61-.16,7.23,7.23,0,0,1,1.54.25,19.63,19.63,0,0,1,2.08.6,11,11,0,0,1,1.82.83c.53.31.8.64.8,1a2,2,0,0,1-.19.8c-.13.27-.29.65-.47,1.13q-.78,2.2-1.66,4.83t-1.82,5.17q2.93-.62,5.71-1.33T338.81,390.36Zm-24.52-12.71a6.33,6.33,0,0,1-1.8-.28,12.65,12.65,0,0,1-1.82-.67,5.87,5.87,0,0,1-1.41-.87c-.37-.32-.55-.59-.55-.82a1.13,1.13,0,0,1,1.1-1.11,17.27,17.27,0,0,1,2,.22,25.11,25.11,0,0,0,3.61.22l3,0,3.18-.08q1.59,0,3.12-.15l2.78-.19a8,8,0,0,0,1.5-.22c.4-.11.78-.21,1.13-.28l1-.22a6,6,0,0,1,1.21-.11,11,11,0,0,1,3.79.45c.72.3,1.07.71,1.07,1.23a1.49,1.49,0,0,1-.57,1.24,2.39,2.39,0,0,1-1.63.39c-1.11-.07-2.16-.1-3.15-.08s-2.06,0-3.21,0c-.58,0-1.43,0-2.54.08l-3.39.16c-1.16.05-2.25.12-3.26.21l-2.18.18a8.64,8.64,0,0,0-1,.22l-.66.21c-.2.07-.41.13-.61.18A2.66,2.66,0,0,1,314.29,377.65Zm-1.28,5a.86.86,0,0,1,0-1.16,1,1,0,0,1,1.25-.28,12.15,12.15,0,0,1,2.07,1.08,15.71,15.71,0,0,1,1.93,1.46,13.26,13.26,0,0,1,1.44,1.52,2.25,2.25,0,0,1,.57,1.25,11.7,11.7,0,0,1-.66,4.19c-.44,1.14-1,1.71-1.6,1.71-.81,0-1.31-.47-1.49-1.43a16.86,16.86,0,0,0-.53-2.16c-.23-.77-.5-1.53-.8-2.29a14.31,14.31,0,0,0-1-2.12A13.28,13.28,0,0,0,313,382.68Z" transform="translate(-155.9 -266.79)"/><path class="cls-3" d="M205.07,374.2a8.37,8.37,0,0,0,1.88.8,6.45,6.45,0,0,0,2.24.28l3.36-.11a4.26,4.26,0,0,0,1.88-.46,1.23,1.23,0,0,0,.72-1.11c0-.69-.66-1.08-2-1.19l-3.53-.39a22.08,22.08,0,0,1-3.48-.46,8.85,8.85,0,0,0-1.71-.31,1.12,1.12,0,0,0-.78.3,1,1,0,0,0-.33.8,1.51,1.51,0,0,0,.47.86A5.19,5.19,0,0,0,205.07,374.2Z" transform="translate(-155.9 -266.79)"/><path class="cls-3" d="M218.08,391.41a3.26,3.26,0,0,0-1-.94c-.38-.22-.85-.54-1.4-.94a14.23,14.23,0,0,1-1.55-1.33c-.44-.44-.85-.86-1.21-1.27.73-.84,1.43-1.67,2.09-2.48s1.29-1.62,1.88-2.43,1.08-1.5,1.36-1.85a1.7,1.7,0,0,0,.41-1,.72.72,0,0,0-.33-.58,2.55,2.55,0,0,0-.83-.38,9.72,9.72,0,0,0-2.26-.31,2.31,2.31,0,0,0-1.11.25,3.27,3.27,0,0,1-1.38.31l-7.51.27a16.08,16.08,0,0,1-3.51-.11,13.11,13.11,0,0,0-1.68-.22,1.1,1.1,0,0,0-.78.31,1,1,0,0,0-.33.74c0,.22.17.47.5.75a7.69,7.69,0,0,0,2.54,1.35,4.15,4.15,0,0,0,1.22.22,2.35,2.35,0,0,0,1.16-.25,4.08,4.08,0,0,1,1.38-.36c.95-.14,2.12-.26,3.5-.36s2.81-.13,4.28-.13a45.32,45.32,0,0,1-3.28,4.55c-1.27,1.57-2.64,3.09-4.09,4.56a59.51,59.51,0,0,1-4.61,4.2,45.8,45.8,0,0,1-4.86,3.48,1.07,1.07,0,0,0-.55.77.8.8,0,0,0,.22.72q.77.76,3-.45a36.64,36.64,0,0,0,6.11-4.28,73.35,73.35,0,0,0,6.1-5.77l5.63,8.23a1.54,1.54,0,0,0,1.33.72,1.64,1.64,0,0,0,1-.44,1.55,1.55,0,0,0,.41-1.16,5.34,5.34,0,0,0-.47-2A11.85,11.85,0,0,0,218.08,391.41Z" transform="translate(-155.9 -266.79)"/><path class="cls-3" d="M350.51,362c0-4.74-2.61-8.59-5.83-8.59s-5.83,3.85-5.83,8.59c0,3.67,1.56,6.79,3.76,8v30.95h3.59V370.25C348.68,369.26,350.51,365.93,350.51,362Z" transform="translate(-155.9 -266.79)"/><path class="cls-4" d="M342.61,400.93v12a2.51,2.51,0,0,0,.33,1.6,1.06,1.06,0,0,0,.77.33,1.18,1.18,0,0,0,.83-.52,5.77,5.77,0,0,0,.83-1.47,10.49,10.49,0,0,0,.6-2.21,15.43,15.43,0,0,0,.23-2.7v-7.06Z" transform="translate(-155.9 -266.79)"/><path class="cls-4" d="M287.3,413.05a2.53,2.53,0,0,0,.33,1.61,1.07,1.07,0,0,0,.78.33,1.19,1.19,0,0,0,.82-.53,5.57,5.57,0,0,0,.83-1.46,10.64,10.64,0,0,0,.61-2.21,15.57,15.57,0,0,0,.22-2.71v-7.15H287.3Z" transform="translate(-155.9 -266.79)"/><path class="cls-3" d="M294.56,365c-.69-5.3-5.47-10-6.87-11.32a.24.24,0,0,0-.39.18v47h3.59V376.71C291.8,375.5,295.26,370.44,294.56,365Z" transform="translate(-155.9 -266.79)"/><path class="cls-4" d="M237.06,361.45a8,8,0,0,1,.08-1.06,7.76,7.76,0,0,0,.09-1.24c0-.33-.32-.7-.94-1.11a16.3,16.3,0,0,0-2.18-1.18,20.15,20.15,0,0,0-2.52-.93,7.46,7.46,0,0,0-2-.37,1,1,0,0,0-.77.37,1.28,1.28,0,0,0-.33.87q0,.43.66.87l3.21,2a2.64,2.64,0,0,1,.88.84,1.82,1.82,0,0,1,.22.9V372.7h3.59Z" transform="translate(-155.9 -266.79)"/><path class="cls-3" d="M233.47,372.7v39.86a3.1,3.1,0,0,0,.33,1.8,1,1,0,0,0,.78.37c.25,0,.53-.19.82-.59a6.21,6.21,0,0,0,.83-1.64,13,13,0,0,0,.61-2.48,19.45,19.45,0,0,0,.22-3V372.7Z" transform="translate(-155.9 -266.79)"/><path class="cls-4" d="M227.05,364.26a6,6,0,0,0,.08-1c0-.27-.31-.57-.94-.9a17.52,17.52,0,0,0-2.18-.95,22.71,22.71,0,0,0-2.52-.75,9.74,9.74,0,0,0-2-.29,1.16,1.16,0,0,0-.78.29.93.93,0,0,0-.33.7c0,.24.22.47.66.7l3.21,1.65a2.4,2.4,0,0,1,.88.67,1.25,1.25,0,0,1,.22.72v7.59H227v-7.59A4.39,4.39,0,0,1,227.05,364.26Z" transform="translate(-155.9 -266.79)"/><path class="cls-3" d="M223.37,372.7v33.54c0,.76.11,1.25.33,1.44a1.12,1.12,0,0,0,.78.3,1.21,1.21,0,0,0,.83-.47,5,5,0,0,0,.82-1.32,8.91,8.91,0,0,0,.61-2,12.58,12.58,0,0,0,.22-2.44V372.7Z" transform="translate(-155.9 -266.79)"/><rect class="cls-5" x="228.77" y="381.07" width="2.89" height="2.89" rx="0.53" transform="translate(-358.96 8.04) rotate(-45)"/></svg>