<svg id="레이어_1" data-name="레이어 1" xmlns="http://www.w3.org/2000/svg" viewBox="0 0 118.73 119.23"><defs><style>.cls-1{fill:#fff;stroke:#468676;stroke-linecap:round;stroke-linejoin:round;stroke-width:4px;}.cls-2{fill:#468676;}</style></defs><rect class="cls-1" x="2" y="2" width="114.73" height="115.23" rx="20.4"/><path class="cls-2" d="M165.17,409.76a2.62,2.62,0,0,1,1.13-.47,3.17,3.17,0,0,1,1.19,0,3.12,3.12,0,0,1,1.1.5,2.7,2.7,0,0,1,.81.93l.78,1.43H147.41v-1.56h16a2,2,0,0,0,1.07-.33Zm-3.2-3.23a2.75,2.75,0,0,1,1.16-.49,3.17,3.17,0,0,1,1.19,0,3,3,0,0,1,1.08.5,2.81,2.81,0,0,1,.81.93l.8,1.43H153.73l-3.54.13-.6-1.69h8l.59-3.74-.25-1.25,4.49.81-1,3.69ZM150,402V400.4h9.47a1.91,1.91,0,0,0,.6-.11,1.37,1.37,0,0,0,.59-.49l5.12.78-.07,1.09,0,.29Zm17,20.17H154.87l-1.72.16a1.69,1.69,0,0,1-1.3-.46,1.77,1.77,0,0,1-.57-1.27l-.36-4.12,3.8.34,6.44.05v-1.74h-9.82v-1.56h8a1.78,1.78,0,0,0,.61-.12,1.41,1.41,0,0,0,.61-.48l5.1.8-.31,3.23.13,1.43H154.72v2.18h5.48a1.69,1.69,0,0,0,1.07-.34l.73-.49a2.91,2.91,0,0,1,1.13-.48,2.65,2.65,0,0,1,1.19,0,3.11,3.11,0,0,1,1.08.49,2.68,2.68,0,0,1,.81.92Zm-14.12-19.86c.51.31,1,.61,1.41.91s.71.53,1,.8a3,3,0,0,1,.65.71,1.58,1.58,0,0,1,.13,1.22,1.47,1.47,0,0,1-.78.93,1.58,1.58,0,0,1-2.16-.67,2.62,2.62,0,0,1-.22-.92q-.06-.64-.09-1.32C152.85,403.41,152.86,402.86,152.89,402.27Z" transform="translate(-122.5 -364.66)"/><path class="cls-2" d="M183.05,400.53l4.84,1.52-.21,4.22v6.06l-3.74.83v-2.08l-9.67,1a1.62,1.62,0,0,1-1.3-.45,1.74,1.74,0,0,1-.58-1.26l-.39-5.07,3.83.33,2,.06V403.2h-5.38v-1.56h2.31c.09,0,.25,0,.49,0l.76-.09q.39-.07.75-.18a1,1,0,0,0,.5-.3l5.12.8-.31,4,.13,1.43h-5.33v3.14h.28l6.79-.8v-.42l-3.8.34-.52-1.9h4.32v-5.49Zm9.81,14.71-.26,6.11-4.22.76V415.5H176.92v-1.56h9.7a2,2,0,0,0,.61-.1,1.36,1.36,0,0,0,.61-.47l5.12.78Zm.23-14.71-.21,5.92v5.72l-3.74.86v-12.4l-.89-1.64Z" transform="translate(-122.5 -364.66)"/><path class="cls-2" d="M209,416.1a2.49,2.49,0,0,1-.8.55,2.42,2.42,0,0,1-.91.18,2.34,2.34,0,0,1-.91-.18,2.43,2.43,0,0,1-.81-.55,3.85,3.85,0,0,1-.56-.83c-.21-.4-.44-.85-.66-1.34s-.45-1-.66-1.52-.41-1-.56-1.41a9.3,9.3,0,0,1-1.2,2,10.41,10.41,0,0,1-1.4,1.47,8.2,8.2,0,0,1-1.5,1,10.1,10.1,0,0,1-1.47.64,9.54,9.54,0,0,1-3.43.57,7,7,0,0,0,2.08-1.38,9.26,9.26,0,0,0,1.52-1.9,11,11,0,0,0,1.05-2.19,19.5,19.5,0,0,0,.68-2.28,23.68,23.68,0,0,0,.55-5.64L198.94,402l5.54,1a24.6,24.6,0,0,1-.21,4,16.15,16.15,0,0,1-.75,3.13l1.4.56c.55.21,1.11.45,1.65.7s1.05.49,1.5.73a3.88,3.88,0,0,1,.93.61,2.34,2.34,0,0,1,.55.8,2.42,2.42,0,0,1,.18.91,2.52,2.52,0,0,1-.18.93A2.13,2.13,0,0,1,209,416.1Zm7.07,5.25-4.36.83V400.66L210.65,399l5.68,1.56-.26,5.93Z" transform="translate(-122.5 -364.66)"/><path class="cls-2" d="M161.41,431.54v3.25L159.93,433h-7.44v6h6v1.48h-6v9h-4.24V433L147,431.54Z" transform="translate(-122.5 -364.66)"/><path class="cls-2" d="M174.9,448.08v1.48H162.61l1.22-1.48V433l-1.22-1.49h5.46v16.54Z" transform="translate(-122.5 -364.66)"/><path class="cls-2" d="M190.53,445l-.73,4.58v0H177.14V433l-1.22-1.49H190.3v3.25L188.81,433H181.4v6.78h6.09v1.48H181.4v6.79h6.92Z" transform="translate(-122.5 -364.66)"/><path class="cls-2" d="M202.18,439.63l5.17,9.91h-4.24l-3.25-6.24-4,6.24h-1.77l4.94-7.78-4.5-8.73-2.29-1.49H198l3.41,6.56,4.16-6.56h1.79Z" transform="translate(-122.5 -364.66)"/><path class="cls-2" d="M211.2,449.56V433l-1.48-1.49h5.51v16.54l1.48,1.48Z" transform="translate(-122.5 -364.66)"/></svg>