<svg id="레이어_1" data-name="레이어 1" xmlns="http://www.w3.org/2000/svg" viewBox="0 0 522 189.13"><defs><style>.cls-1{fill:#274121;stroke:#274121;stroke-miterlimit:10;}.cls-2{fill:#fff;}.cls-3,.cls-4{fill:none;stroke:#fff;stroke-linecap:round;stroke-linejoin:round;}.cls-3{stroke-width:4px;}.cls-4{stroke-width:3px;}</style></defs><rect class="cls-1" x="0.5" y="0.5" width="521" height="188.13"/><path class="cls-2" d="M183.4,439.16l-7.2,1.6v-9.5l-18.6,2a3.23,3.23,0,0,1-2.5-.88A3.33,3.33,0,0,1,154,430l-.75-13.25,7.35.65,3.85.05v-8.85H154.1v-3h4.45l.95-.05c.47,0,.95-.09,1.45-.18a9.89,9.89,0,0,0,1.45-.35,1.84,1.84,0,0,0,.95-.57L173.2,406l-.6,11.7.25,2.75H162.6V430h.55l13-1.55v-2.8h-.1l-7.3.65-1-3.65h8.4V404.56l-1.7-3.15,9.35,2.95-.45,8.15Zm2.85-37.55-1.7-3.15,9.3,3-.4,11.4v28.5l-7.2,1.65Z" transform="translate(-36.5 -325.94)"/><path class="cls-2" d="M234.45,431.36a5,5,0,0,1-1.55,1.05,4.55,4.55,0,0,1-3.5,0,5,5,0,0,1-1.55-1.05,7.33,7.33,0,0,1-1.07-1.6c-.42-.77-.85-1.63-1.28-2.58s-.86-1.92-1.27-2.92-.78-1.9-1.08-2.7a18.09,18.09,0,0,1-2.3,3.82,21,21,0,0,1-2.7,2.83,15.15,15.15,0,0,1-2.87,2,19.13,19.13,0,0,1-2.83,1.23,18.75,18.75,0,0,1-6.6,1.1,13.35,13.35,0,0,0,4-2.65,19,19,0,0,0,2.93-3.65,23.14,23.14,0,0,0,2-4.23,39.07,39.07,0,0,0,1.3-4.37,45,45,0,0,0,1.05-10.85l-2.05-2.55,10.65,1.85a45.53,45.53,0,0,1-.4,7.67,31.75,31.75,0,0,1-1.45,6c.73.3,1.63.66,2.7,1.07s2.13.87,3.18,1.35,2,.95,2.87,1.4a7.37,7.37,0,0,1,1.8,1.18,4.53,4.53,0,0,1,1.05,1.55,4.59,4.59,0,0,1,.35,1.75,4.77,4.77,0,0,1-.35,1.77A4.11,4.11,0,0,1,234.45,431.36Zm13.6,10.1-8.4,1.6v-41.4l-2-3.2,10.93,3-.5,11.4Z" transform="translate(-36.5 -325.94)"/><path class="cls-2" d="M293.35,430l-27.1,4.2-3.65-3.75,15.15-1.5,1.55-17.2-.55-2.4,8.65,1-2.55,17.9,7.85-.8Zm-3.5-22.7H265.7v-3h12.15a3.89,3.89,0,0,0,1.17-.2,2.62,2.62,0,0,0,1.18-.9l9.85,1.5-.2,2.1Zm-14,18.27a3.48,3.48,0,0,0,.3-2.72,6.84,6.84,0,0,0-.47-1.08c-.25-.48-.56-1-.93-1.67s-.78-1.32-1.23-2.05-.89-1.47-1.32-2.2c-1.07-1.7-2.23-3.57-3.5-5.6q0,3.6.1,6.6c0,.86.07,1.72.1,2.57s.07,1.64.1,2.35.08,1.35.15,1.9a8.89,8.89,0,0,0,.2,1.18,3.41,3.41,0,0,0,1.67,2.1,3.49,3.49,0,0,0,2.68.3A3.39,3.39,0,0,0,275.9,425.53Zm28.85-12.67.5-11.4-10.9-3,2,3.2v41.4l8.4-1.6Z" transform="translate(-36.5 -325.94)"/><path class="cls-2" d="M366.65,407.31a16.31,16.31,0,0,1-.45,4,14.48,14.48,0,0,1-1.25,3.29c1,.36,1.87.72,2.7,1.07a6.7,6.7,0,0,1,1.8,1,3.78,3.78,0,0,1,1,1.29,3.87,3.87,0,0,1,.37,1.55,4.25,4.25,0,0,1-.25,1.6,4.35,4.35,0,0,1-.82,1.45,4.19,4.19,0,0,1-2.93,1.32,4,4,0,0,1-3-1.12,6.17,6.17,0,0,1-1.1-1.55q-.6-1.09-1.2-2.4a16.11,16.11,0,0,1-2.9,2,26.08,26.08,0,0,1-3.15,1.43,30.22,30.22,0,0,1-3.2,1,27.28,27.28,0,0,1-3.05.6,40.06,40.06,0,0,1-6.9.5,33.45,33.45,0,0,0,7.15-2.73,18.11,18.11,0,0,0,4.62-3.41,11.05,11.05,0,0,0,2.43-3.84,10.16,10.16,0,0,0,.6-4h-2.75l-7.8.5-1.5-3.55Zm14.9,28.75a4.18,4.18,0,0,1,1.85,2.65,4,4,0,0,1-.55,3.2,4.25,4.25,0,0,1-2.65,1.85,4.08,4.08,0,0,1-3.2-.55,8.73,8.73,0,0,1-1.73-1.7c-.71-.87-1.46-1.8-2.25-2.8s-1.5-2-2.17-2.93l-1.5-2.12a16,16,0,0,1-2.7,3.57,18.45,18.45,0,0,1-3.28,2.6,20.49,20.49,0,0,1-3.57,1.78c-1.23.46-2.42.85-3.55,1.15a32.65,32.65,0,0,1-8.45.9,30.62,30.62,0,0,0,5.35-2.3,22.45,22.45,0,0,0,3.67-2.55,12.83,12.83,0,0,0,2.35-2.65,14.68,14.68,0,0,0,1.38-2.6,14.1,14.1,0,0,0,.72-2.38c.15-.75.3-1.41.43-2H351.5v-3h18.7a3.71,3.71,0,0,0,1.15-.2,2.66,2.66,0,0,0,1.15-.9l9.85,1.49-.2,2.07v.54h-11a18.06,18.06,0,0,1-.7,2.15c-.27.66-.55,1.31-.85,1.95l2.52.45c1.15.2,2.35.42,3.6.67s2.43.52,3.53.8A9.23,9.23,0,0,1,381.55,436.06ZM362,403.71a3.59,3.59,0,0,1-1.93,1.92,3.43,3.43,0,0,1-2.72,0,5.94,5.94,0,0,1-1.83-1.33c-.75-.71-1.49-1.46-2.22-2.22s-1.77-1.9-2.7-3c1.43-.14,2.77-.24,4-.3a30.27,30.27,0,0,1,3.15-.05,7.86,7.86,0,0,1,2.25.3,3.4,3.4,0,0,1,2,1.87A3.53,3.53,0,0,1,362,403.71Zm25.6,6.9a4.15,4.15,0,0,1,3,1.29,4.09,4.09,0,0,1,1.23,3,4.3,4.3,0,0,1-4.3,4.18,3.56,3.56,0,0,1-2-.75,19.22,19.22,0,0,0-2.87-1.59v4.7l-8.4,1.6V401.65l-2-3.19,10.9,2.94-.5,9v2.49a27.62,27.62,0,0,0,2.92-1.54A4,4,0,0,1,387.55,410.61Z" transform="translate(-36.5 -325.94)"/><path class="cls-2" d="M404.25,409v-3h21.3v3a31.18,31.18,0,0,1-.9,7.82,27,27,0,0,1-2.38,6.2,22.67,22.67,0,0,1-3.37,4.75,29.75,29.75,0,0,1-3.85,3.48,28.24,28.24,0,0,1-10.45,4.85,22.44,22.44,0,0,0,5.07-4.45,28.6,28.6,0,0,0,3.45-5.15,27.7,27.7,0,0,0,2.13-5.33,43.94,43.94,0,0,0,1.12-5.05,37,37,0,0,0,.45-4.22c.05-1.24.08-2.2.08-2.9Zm26.6-10.5,10.9,3-.5,11.45v28.6l-8.4,1.6v-41.4Z" transform="translate(-36.5 -325.94)"/><polygon class="cls-3" points="480.5 99.96 497.24 94.55 480.5 89.14 480.5 31.88 303.34 31.88 260.55 18.05 217.92 31.88 41.5 31.88 41.5 89.12 24.76 94.55 41.5 99.98 41.5 157.24 217.93 157.24 260.55 171.07 303.33 157.24 480.5 157.24 480.5 99.96"/><path class="cls-4" d="M382.26,473.34s55.08,37.61,133.4,12.73" transform="translate(-36.5 -325.94)"/><path class="cls-4" d="M412.39,487.82l.44-.75s19.41-22.64,26.35-12.62S412.39,487.82,412.39,487.82Z" transform="translate(-36.5 -325.94)"/><path class="cls-4" d="M413.26,488.34S423.32,504.92,434.4,508,430.39,489.17,413.26,488.34Z" transform="translate(-36.5 -325.94)"/><path class="cls-4" d="M447.83,494s9-19.56,18.69-16.12S457,495,447.83,494Z" transform="translate(-36.5 -325.94)"/><path class="cls-4" d="M451.15,495.7s4,13,19.05,11.38S455.81,487.91,451.15,495.7Z" transform="translate(-36.5 -325.94)"/><path class="cls-4" d="M481.35,493.47s8.68-21.54,18.37-18.1S489.59,494.56,481.35,493.47Z" transform="translate(-36.5 -325.94)"/><path class="cls-4" d="M485.06,496s22.85,9,26.47,2.9S495.25,486.8,485.06,496Z" transform="translate(-36.5 -325.94)"/><path class="cls-4" d="M516.18,485.2s21.23-23.74,28.69-14.58S524.84,490.37,516.18,485.2Z" transform="translate(-36.5 -325.94)"/><circle class="cls-2" cx="373.67" cy="150.11" r="5.55"/><circle class="cls-2" cx="449.15" cy="181.11" r="5.55"/><circle class="cls-2" cx="475.56" cy="148.71" r="5.55"/><path class="cls-4" d="M208.63,372.71s-55.28-37.32-133.47-12" transform="translate(-36.5 -325.94)"/><path class="cls-4" d="M178.43,358.39l-.45.75s-19.28,22.74-26.27,12.76S178.43,358.39,178.43,358.39Z" transform="translate(-36.5 -325.94)"/><path class="cls-4" d="M177.55,357.87s-10.14-16.53-21.24-19.56S160.42,357.13,177.55,357.87Z" transform="translate(-36.5 -325.94)"/><path class="cls-4" d="M143,352.42s-8.89,19.61-18.6,16.21S133.8,351.46,143,352.42Z" transform="translate(-36.5 -325.94)"/><path class="cls-4" d="M139.62,350.71s-4.07-12.95-19.11-11.28S135,358.52,139.62,350.71Z" transform="translate(-36.5 -325.94)"/><path class="cls-4" d="M109.43,353.1s-8.56,21.58-18.27,18.19S101.19,352.05,109.43,353.1Z" transform="translate(-36.5 -325.94)"/><path class="cls-4" d="M105.71,350.6s-22.89-8.83-26.48-2.75S95.57,359.84,105.71,350.6Z" transform="translate(-36.5 -325.94)"/><path class="cls-4" d="M74.65,361.55S53.54,385.4,46,376.28,66,356.42,74.65,361.55Z" transform="translate(-36.5 -325.94)"/><circle class="cls-2" cx="144.2" cy="44.21" r="5.55"/><circle class="cls-2" cx="68.56" cy="13.61" r="5.55"/><circle class="cls-2" cx="42.32" cy="46.14" r="5.55"/></svg>