<svg id="레이어_1" data-name="레이어 1" xmlns="http://www.w3.org/2000/svg" viewBox="0 0 177.1 62.37"><defs><style>.cls-1{fill:#fff;stroke:#468676;stroke-linecap:round;stroke-linejoin:round;stroke-width:5px;}.cls-2{fill:#468676;}</style></defs><rect class="cls-1" x="2.5" y="2.5" width="172.1" height="57.37" rx="20.4"/><path class="cls-2" d="M250.83,424.9h-2.05l-.53,3.35h-4l.52-3.35h-2.27l-.53,3.35h-4l.52-3.35h-2.37l.37-2.48h2.38l.67-4.27h-2.17l.37-2.48H240l.53-3.32h4l-.52,3.32h2.27l.53-3.32h4l-.52,3.32h2.22l-.37,2.48h-2.25l-.68,4.27h2Zm-7.93-2.48h2.28l.67-4.27h-2.27Z" transform="translate(-208.95 -389.32)"/><path class="cls-2" d="M278.78,419.23a2.45,2.45,0,0,1,1.08-.45,3,3,0,0,1,1.15,0,2.64,2.64,0,0,1,1.05.48,2.61,2.61,0,0,1,.79.89l.75,1.38H261.7v-1.5h15.35a1.88,1.88,0,0,0,1-.32Zm-6.25-9a11.36,11.36,0,0,1,3.23.39,6.64,6.64,0,0,1,2.05,1,3.16,3.16,0,0,1,1.06,1.23,2.84,2.84,0,0,1,.31,1.17v.23a2.92,2.92,0,0,1-.31,1.18,3.16,3.16,0,0,1-1.06,1.23,6.88,6.88,0,0,1-2.05.95,11.36,11.36,0,0,1-3.23.39h-1.81a11.36,11.36,0,0,1-3.23-.39,6.88,6.88,0,0,1-2.05-.95,3.4,3.4,0,0,1-1.08-1.23,2.77,2.77,0,0,1-.31-1.18V414a2.69,2.69,0,0,1,.31-1.17,3.4,3.4,0,0,1,1.08-1.23,6.64,6.64,0,0,1,2.05-1,11.36,11.36,0,0,1,3.23-.39Zm4,13,2.9.82-.3,3.65-.35,4.13-3.4-.58h-7.28l-3.44.25-.13-7.77,3.57.32h7.28Zm-3.35-6.68a3.16,3.16,0,0,0,1.52-.95,2.13,2.13,0,0,0,0-3,3.22,3.22,0,0,0-1.52-.94,7,7,0,0,0-.77-.15,5.74,5.74,0,0,0-.81-.07,5.27,5.27,0,0,0-.78.07,7.54,7.54,0,0,0-.77.15,3.16,3.16,0,0,0-1.53.94,2.15,2.15,0,0,0,0,3,3.1,3.1,0,0,0,1.53.95,5.76,5.76,0,0,0,.77.14,6.72,6.72,0,0,0,.78.06,7.32,7.32,0,0,0,.81-.06A5.47,5.47,0,0,0,273.2,416.55Zm2.2,13.2v-4.2h-7.28v4.2Z" transform="translate(-208.95 -389.32)"/><path class="cls-2" d="M297.4,421.63a2.37,2.37,0,0,1-.78.52,2.19,2.19,0,0,1-.87.18,2.27,2.27,0,0,1-.88-.18,2.44,2.44,0,0,1-.77-.52,3.47,3.47,0,0,1-.46-.65c-.18-.31-.36-.65-.55-1s-.38-.81-.57-1.25-.34-.86-.5-1.27a7.7,7.7,0,0,1-1.15,1.72,9.4,9.4,0,0,1-1.35,1.27,8.12,8.12,0,0,1-1.43.9,12.21,12.21,0,0,1-1.41.59,11.28,11.28,0,0,1-3.33.55,7.92,7.92,0,0,0,2-1.22,9,9,0,0,0,1.46-1.58,9.42,9.42,0,0,0,1-1.75,12.31,12.31,0,0,0,.65-1.77,14.54,14.54,0,0,0,.53-4.3l-1-1.28,5.33.93a15.65,15.65,0,0,1-.18,2.47,11.51,11.51,0,0,1-.5,2.08c.4.14.85.32,1.34.53l1.43.63c.46.21.87.41,1.23.61a3.2,3.2,0,0,1,.78.53,2.47,2.47,0,0,1,.53.77,2.38,2.38,0,0,1,.17.88,2.46,2.46,0,0,1-.17.88A2.26,2.26,0,0,1,297.4,421.63Zm6.82,3.17-.25,5.88-4,.72v-6.35h-11v-1.5h9.32a1.83,1.83,0,0,0,.59-.1,1.28,1.28,0,0,0,.59-.45l4.92.75Zm.08-3.38-4.23.81V410.78l-1-1.61,5.45,1.5-.22,5.21Z" transform="translate(-208.95 -389.32)"/><path class="cls-2" d="M330.87,419.33a2.53,2.53,0,0,1,1.09-.45,3,3,0,0,1,1.15,0,2.64,2.64,0,0,1,1.05.48,2.55,2.55,0,0,1,.79.9l.75,1.37H313.77v-1.5h7.63l0-2.55,4.32.32-.07,2.23h3.55a1.88,1.88,0,0,0,1-.32Zm.08-8.45a4.93,4.93,0,0,1-.84,2.18,7.41,7.41,0,0,1-1.64,1.67,10.44,10.44,0,0,1,1.12,0,2.45,2.45,0,0,1,.78.12,1.92,1.92,0,0,1,1.08,1,2,2,0,0,1,.05,1.5,2,2,0,0,1-1,1.07,1.93,1.93,0,0,1-1.51.08,2.74,2.74,0,0,1-.6-.38c-.23-.18-.48-.39-.73-.62s-.52-.49-.79-.77l-.72-.76a18.62,18.62,0,0,1-4,1.13,38.22,38.22,0,0,1-3.91.45c-1.4.08-2.79.09-4.15.05l4.15-1.12a26.38,26.38,0,0,0,3.26-1.09,8.84,8.84,0,0,0,2.26-1.29,3.41,3.41,0,0,0,1.15-1.75h-4.05l-3.9.25-.75-1.75Zm-6.65,11.65a10,10,0,0,1,3,.39,6.14,6.14,0,0,1,1.95,1,3.73,3.73,0,0,1,1.05,1.32,3.31,3.31,0,0,1,.31,1.31v.83a3.27,3.27,0,0,1-.31,1.31,3.73,3.73,0,0,1-1.05,1.32,6.14,6.14,0,0,1-1.95,1,10,10,0,0,1-3,.39h-1.2a10,10,0,0,1-3-.39,6.14,6.14,0,0,1-1.95-1,3.73,3.73,0,0,1-1.05-1.32,3.29,3.29,0,0,1-.32-1.31v-.83a3.33,3.33,0,0,1,.32-1.31,3.73,3.73,0,0,1,1.05-1.32,6.14,6.14,0,0,1,1.95-1,10,10,0,0,1,3-.39Zm.35,7.19a3.22,3.22,0,0,0,1.17-1.06,2.84,2.84,0,0,0,.53-1.67,2.88,2.88,0,0,0-.53-1.7,3.22,3.22,0,0,0-1.17-1.06,2.36,2.36,0,0,0-1.9,0,3.24,3.24,0,0,0-1.18,1.06,2.87,2.87,0,0,0-.52,1.7,2.83,2.83,0,0,0,.52,1.67,3.24,3.24,0,0,0,1.18,1.06,2.36,2.36,0,0,0,1.9,0Z" transform="translate(-208.95 -389.32)"/><path class="cls-2" d="M353,431.25l-3.42.23-.08-7.56h-3.3a11.68,11.68,0,0,1-.66,2.52,9.79,9.79,0,0,1-1,1.91,6.94,6.94,0,0,1-1.22,1.39,8.87,8.87,0,0,1-1.32.93,8.33,8.33,0,0,1-3.37,1.06,6.18,6.18,0,0,0,1.56-1.59,8.3,8.3,0,0,0,.93-1.89,11.05,11.05,0,0,0,.47-2.1,20.53,20.53,0,0,0,.16-2.23h-4.35v-1.5h14.85a1.77,1.77,0,0,0,1-.32l.7-.5a2.81,2.81,0,0,1,1.09-.45,2.82,2.82,0,0,1,2.2.5,2.55,2.55,0,0,1,.79.9l.77,1.37h-5l-.05,7.33ZM356,420.4l-14.08.05a1.6,1.6,0,0,1-1.25-.44,1.7,1.7,0,0,1-.55-1.22l-.37-3.89,3.92.33,7.43,0V413.1H340.12v-1.5h3.14l1.4,0,1.76-.06,1.77-.1q.81-.06,1.38-.15a1.36,1.36,0,0,0,.68-.21l4.92.77-.3,3.6.13,1.38H343.87v2h.28l11.27,0Z" transform="translate(-208.95 -389.32)"/></svg>