<svg id="레이어_1" data-name="레이어 1" xmlns="http://www.w3.org/2000/svg" viewBox="0 0 228.44 210.84"><defs><style>.cls-1{fill:none;}.cls-1,.cls-2{stroke:#274121;stroke-linecap:round;stroke-linejoin:round;stroke-width:5px;}.cls-2,.cls-3{fill:#274121;}</style></defs><path class="cls-1" d="M224.16,523.42S216.52,439.61,327,390.63" transform="translate(-194.99 -315.08)"/><path class="cls-1" d="M224.14,516.14s22.43-53.7,101.07-36.44c0,0-17.66,5.15-33.25,24.23S224.14,516.14,224.14,516.14Z" transform="translate(-194.99 -315.08)"/><path class="cls-1" d="M231.77,481.21s-8-52.57-22.8-69.8C209,411.41,171.57,458.5,231.77,481.21Z" transform="translate(-194.99 -315.08)"/><path class="cls-1" d="M250.37,448s5.32-30,15.42-42,2.32-23.81.46-32.91,1.43-21.83,1.43-21.83S218,381.92,250.37,448Z" transform="translate(-194.99 -315.08)"/><path class="cls-2" d="M237,469.32s31.07-44.6,103-36.23C340,433.09,317.75,472.61,237,469.32Z" transform="translate(-194.99 -315.08)"/><path class="cls-1" d="M324.7,393.15s28.22-50.11,96.23-43.5c0,0-18.66,15.35-20.86,30.92S352.34,405.45,324.7,393.15Z" transform="translate(-194.99 -315.08)"/><path class="cls-2" d="M283.21,415.83s43.15-39.68,55-98.25c0,0-44.54,20.38-48,41.33S283.21,415.83,283.21,415.83Z" transform="translate(-194.99 -315.08)"/><path class="cls-1" d="M273.46,425.93S320,470.27,378,416.87c0,0-23.59,2.51-33.68-6.71S275,417.15,273.46,425.93Z" transform="translate(-194.99 -315.08)"/><circle class="cls-3" cx="19.19" cy="173.5" r="8.4"/><circle class="cls-3" cx="125.4" cy="66.51" r="8.4"/></svg>