<svg id="레이어_1" data-name="레이어 1" xmlns="http://www.w3.org/2000/svg" viewBox="0 0 127.97 291"><defs><style>.cls-1{fill:none;stroke:#fff;stroke-linecap:round;stroke-linejoin:round;stroke-width:7px;}.cls-2{fill:#fff;}</style></defs><path class="cls-1" d="M358.62,564.33s-95-75.06-94.31-224.23" transform="translate(-234.15 -276.83)"/><path class="cls-1" d="M317.22,520l1-1.17s28.73-45.89,7.61-52.48S317.22,520,317.22,520Z" transform="translate(-234.15 -276.83)"/><path class="cls-1" d="M315.85,518.75s-34.18-8.45-45.54-26S305.12,489.52,315.85,518.75Z" transform="translate(-234.15 -276.83)"/><path class="cls-1" d="M287.36,461.89s29-26.16,17.8-41.09S280.66,446.6,287.36,461.89Z" transform="translate(-234.15 -276.83)"/><path class="cls-1" d="M282.56,457.08s-24.63.09-30-26.84S293.54,444.79,282.56,457.08Z" transform="translate(-234.15 -276.83)"/><path class="cls-1" d="M270.07,403.55s32.62-26.7,21.4-41.63S263.71,389.88,270.07,403.55Z" transform="translate(-234.15 -276.83)"/><path class="cls-1" d="M263.71,398.49s-27.89-34.74-19.35-44.3S274.1,375.86,263.71,398.49Z" transform="translate(-234.15 -276.83)"/><path class="cls-1" d="M265.53,338.74s29.63-49.65,9.73-57.61S251.88,326.54,265.53,338.74Z" transform="translate(-234.15 -276.83)"/><circle class="cls-2" cx="104.66" cy="240.61" r="10.07"/><circle class="cls-2" cx="10.07" cy="126.63" r="10.07"/><circle class="cls-2" cx="51.9" cy="63.33" r="10.07"/></svg>