<svg id="레이어_1" data-name="레이어 1" xmlns="http://www.w3.org/2000/svg" viewBox="0 0 247.83 156.01"><defs><style>.cls-1{fill:none;}.cls-1,.cls-2{stroke:#fff;stroke-linecap:round;stroke-linejoin:round;stroke-width:5px;}.cls-2{fill:#fff;}</style></defs><path class="cls-1" d="M410.84,505.06s-20.13-96.87-95.71-118S212,393.37,212,393.37" transform="translate(-182.7 -351.54)"/><path class="cls-1" d="M400.86,474.21s-28.63,23-46.27-7.59S397.65,458.05,400.86,474.21Z" transform="translate(-182.7 -351.54)"/><path class="cls-1" d="M402.55,470.56s27.06-.83,25.41-25.16-43,9.45-25,23.79" transform="translate(-182.7 -351.54)"/><path class="cls-2" d="M378.26,433.18s-37.9-3.59-22.61-34.75S393.75,427.07,378.26,433.18Z" transform="translate(-182.7 -351.54)"/><path class="cls-1" d="M383.68,429.16s24.18-6.16,26.77-24.74-34.71,1.52-26.36,23.38" transform="translate(-182.7 -351.54)"/><path class="cls-1" d="M336.28,395.54s-13.13,46.77-36.64,30.79S336.28,395.54,336.28,395.54Z" transform="translate(-182.7 -351.54)"/><path class="cls-1" d="M335.7,395.43S299.21,383,313,361.83,351.82,376.43,335.7,395.43Z" transform="translate(-182.7 -351.54)"/><path class="cls-2" d="M292.11,386.85S260.28,408.59,249.19,371,301,367.17,292.11,386.85Z" transform="translate(-182.7 -351.54)"/><path class="cls-1" d="M292.65,385.26S290.76,431.12,262.2,427,277.34,381.91,292.65,385.26Z" transform="translate(-182.7 -351.54)"/><path class="cls-2" d="M238.94,381.4s-21.69,51.53-48.08,15.33S238.94,381.4,238.94,381.4Z" transform="translate(-182.7 -351.54)"/></svg>