<svg id="레이어_1" data-name="레이어 1" xmlns="http://www.w3.org/2000/svg" viewBox="0 0 78 78"><defs><style>.cls-1{fill:#274121;stroke:#040000;stroke-width:3px;}.cls-1,.cls-2{stroke-miterlimit:10;}.cls-2{fill:none;stroke:#fff;stroke-width:4px;}</style></defs><circle class="cls-1" cx="39" cy="39" r="37.5"/><path class="cls-2" d="M330.83,382.83l3.75,7.58a4.13,4.13,0,0,0,3.12,2.27l8.37,1.21a4.14,4.14,0,0,1,2.29,7.07l-6.06,5.9a4.18,4.18,0,0,0-1.19,3.67l1.43,8.34a4.15,4.15,0,0,1-6,4.37l-7.48-3.94a4.12,4.12,0,0,0-3.86,0l-7.49,3.94a4.15,4.15,0,0,1-6-4.37l1.43-8.34a4.15,4.15,0,0,0-1.19-3.67l-6.06-5.9a4.15,4.15,0,0,1,2.3-7.07l8.37-1.21a4.13,4.13,0,0,0,3.12-2.27l3.74-7.58A4.14,4.14,0,0,1,330.83,382.83Z" transform="translate(-288.12 -363.12)"/></svg>