<svg id="레이어_1" data-name="레이어 1" xmlns="http://www.w3.org/2000/svg" viewBox="0 0 118.73 118.73"><defs><style>.cls-1{fill:#468676;stroke:#468676;stroke-width:4px;}.cls-1,.cls-2{stroke-linecap:round;stroke-linejoin:round;}.cls-2{fill:none;stroke:#fff;stroke-width:3px;}.cls-3{fill:#fff;}</style></defs><rect class="cls-1" x="2" y="2" width="114.73" height="114.73" rx="20.4"/><rect class="cls-2" x="40.42" y="33.89" width="14.67" height="5.4" rx="2.05"/><path class="cls-2" d="M290.45,386.81H272.52a5.72,5.72,0,0,0-5.72,5.72v.83l.32,0a3.59,3.59,0,0,1,0,7.18l-.32,0v3.44a5.72,5.72,0,0,0,5.72,5.72h2.78a3.59,3.59,0,0,1,7.15,0h8a5.72,5.72,0,0,0,5.72-5.72V392.53A5.72,5.72,0,0,0,290.45,386.81Z" transform="translate(-213.93 -324.81)"/><path class="cls-2" d="M266.8,403.94V400.5l.32,0a3.59,3.59,0,0,0,0-7.18l-.32,0v-.83a5.72,5.72,0,0,1,5.72-5.72h1.13V375.69h0a2.38,2.38,0,0,0-.2-.93c-.36-1.44-1.22-4.13-2.89-5.24-2.31-1.55-3.09-3.09-3.09-5.41H256.66s.78,2.32-3.08,5.41-3.09,6.17-3.09,6.17h0v31.65a2.32,2.32,0,0,0,2.32,2.32h18.52a2.42,2.42,0,0,0,.47-.05A5.72,5.72,0,0,1,266.8,403.94Z" transform="translate(-213.93 -324.81)"/><path class="cls-2" d="M267.12,400.52a3.59,3.59,0,0,0,0-7.18l-.32,0v-.83a5.72,5.72,0,0,1,5.72-5.72h1.13v-9.58H262.07v24.71h4.73V400.5Z" transform="translate(-213.93 -324.81)"/><circle class="cls-3" cx="64.01" cy="67.33" r="2.23"/><circle class="cls-3" cx="72.55" cy="72.5" r="3.59"/></svg>