<svg id="레이어_1" data-name="레이어 1" xmlns="http://www.w3.org/2000/svg" viewBox="0 0 118.73 118.73"><defs><style>.cls-1{fill:#fff;stroke:#468676;stroke-linecap:round;stroke-linejoin:round;stroke-width:4px;}.cls-2{fill:#468676;}</style></defs><rect class="cls-1" x="2" y="2" width="114.73" height="114.73" rx="20.4"/><path class="cls-2" d="M220.21,402.71a9.35,9.35,0,0,1,3.31.52,6.79,6.79,0,0,1,2.16,1.28,4.46,4.46,0,0,1,1.16,1.64,4.65,4.65,0,0,1,.34,1.59v.48a4.1,4.1,0,0,1-.27,1.38,4.32,4.32,0,0,1-.87,1.47,5.8,5.8,0,0,1-1.6,1.26,7.37,7.37,0,0,1-2.44.78l-.1,4.09h3.16a1.85,1.85,0,0,0,1-.33l.71-.5a2.67,2.67,0,0,1,1.1-.46,3.23,3.23,0,0,1,1.16,0,2.74,2.74,0,0,1,1.06.48,2.67,2.67,0,0,1,.79.91l.76,1.39H209.56V417.2h8.18l-.08-4a8.16,8.16,0,0,1-2.71-.72,6,6,0,0,1-1.78-1.28,4.3,4.3,0,0,1-1-1.52,4.14,4.14,0,0,1-.29-1.45v-.48a4.25,4.25,0,0,1,.35-1.59,4.58,4.58,0,0,1,1.16-1.64,6.57,6.57,0,0,1,2.16-1.28,9.44,9.44,0,0,1,3.32-.52Zm.94,8.56a3.43,3.43,0,0,0,1.54-1.27,3.54,3.54,0,0,0,.6-2,3.65,3.65,0,0,0-.6-2.05,3.28,3.28,0,0,0-1.54-1.26,3.8,3.8,0,0,0-.79-.21,4.72,4.72,0,0,0-.81-.09,4.62,4.62,0,0,0-.79.09,3.56,3.56,0,0,0-.77.21,3.06,3.06,0,0,0-1.55,1.28,3.63,3.63,0,0,0-.6,2,3.54,3.54,0,0,0,.6,2,3.25,3.25,0,0,0,1.55,1.27,3.12,3.12,0,0,0,.77.2,5.65,5.65,0,0,0,.79.08,5.75,5.75,0,0,0,.81-.08A3.32,3.32,0,0,0,221.15,411.27Z" transform="translate(-190.76 -367.46)"/><path class="cls-2" d="M286,416.37a2.63,2.63,0,0,1,1.09-.46,3.28,3.28,0,0,1,1.17,0,2.77,2.77,0,0,1,1.85,1.39l.76,1.39H268.78V417.2h8.15l-.08-4.57,4.35.33-.11,4.24h3.18a1.88,1.88,0,0,0,1-.33Zm1.64-13-.33,3.41-.33,6.44-4-.58v-.51h-7.63l-3.93.76L271.3,403l4.11.3v2.55H283v-2l-.26-1.24ZM283,410.64v-3.23h-7.63v3.23Z" transform="translate(-190.76 -367.46)"/><path class="cls-2" d="M218.13,433.53a8.52,8.52,0,0,1,3.39.68,8.74,8.74,0,0,1,2.77,1.89,8.89,8.89,0,0,1,1.87,2.78,8.89,8.89,0,0,1,0,6.82,8.89,8.89,0,0,1-1.87,2.78,8.65,8.65,0,0,1-2.77,1.86,8.35,8.35,0,0,1-3.39.69,8.48,8.48,0,0,1-3.41-.69,8.85,8.85,0,0,1-2.79-1.86,8.75,8.75,0,0,1-1.88-2.78,8.89,8.89,0,0,1,0-6.82,8.75,8.75,0,0,1,1.88-2.78,8.94,8.94,0,0,1,2.79-1.89A8.65,8.65,0,0,1,218.13,433.53Zm0,16.06a3.16,3.16,0,0,0,1.78-.57,5.33,5.33,0,0,0,1.48-1.57,8.32,8.32,0,0,0,1-2.32,10.37,10.37,0,0,0,.37-2.84,10.5,10.5,0,0,0-.37-2.85,8.2,8.2,0,0,0-1-2.32,5.59,5.59,0,0,0-1.48-1.57,3.17,3.17,0,0,0-1.78-.58,3.21,3.21,0,0,0-1.81.58,5.42,5.42,0,0,0-1.47,1.57,8.21,8.21,0,0,0-1,2.32,10.9,10.9,0,0,0-.37,2.85,10.77,10.77,0,0,0,.37,2.84,8.33,8.33,0,0,0,1,2.32,5.18,5.18,0,0,0,1.47,1.57A3.2,3.2,0,0,0,218.13,449.59Z" transform="translate(-190.76 -367.46)"/><path class="cls-2" d="M257,433.56l-6,17.47h-1.71l0,0-5.53-16-1.66-1.44h5.3l4.21,10.65,3.64-10.65Z" transform="translate(-190.76 -367.46)"/><path class="cls-2" d="M281.11,433.53a8.52,8.52,0,0,1,3.39.68,9,9,0,0,1,2.77,1.89,8.7,8.7,0,0,1,1.86,2.78,8.77,8.77,0,0,1,0,6.82,8.7,8.7,0,0,1-1.86,2.78,8.88,8.88,0,0,1-2.77,1.86,8.35,8.35,0,0,1-3.39.69,8.48,8.48,0,0,1-3.41-.69,8.85,8.85,0,0,1-2.79-1.86,8.73,8.73,0,0,1,0-12.38,8.94,8.94,0,0,1,2.79-1.89A8.65,8.65,0,0,1,281.11,433.53Zm0,16.06a3.16,3.16,0,0,0,1.78-.57,5.18,5.18,0,0,0,1.47-1.57,8.33,8.33,0,0,0,1-2.32,10.77,10.77,0,0,0,.37-2.84,10.9,10.9,0,0,0-.37-2.85,8.21,8.21,0,0,0-1-2.32,5.42,5.42,0,0,0-1.47-1.57,3.17,3.17,0,0,0-1.78-.58,3.21,3.21,0,0,0-1.81.58,5.42,5.42,0,0,0-1.47,1.57,7.93,7.93,0,0,0-1,2.32,10.5,10.5,0,0,0-.37,2.85,10.37,10.37,0,0,0,.37,2.84,8,8,0,0,0,1,2.32A5.18,5.18,0,0,0,279.3,449,3.2,3.2,0,0,0,281.11,449.59Z" transform="translate(-190.76 -367.46)"/></svg>