<svg id="레이어_1" data-name="레이어 1" xmlns="http://www.w3.org/2000/svg" viewBox="0 0 118.73 118.73"><defs><style>.cls-1{fill:#468676;stroke:#468676;stroke-linecap:round;stroke-linejoin:round;stroke-width:4px;}.cls-2{fill:#fff;}</style></defs><rect class="cls-1" x="2" y="2" width="114.73" height="114.73" rx="20.4"/><path class="cls-2" d="M220.55,407.16,219.3,416l3.25-.3v-3l-2,.17-.5-1.82h2.45v-6.78l-.85-1.57,4.68,1.47-.23,4.08v13.32l-3.6.8v-5.32L211,418.83,209.15,417l6.58-.6.77-8.5-.27-1.2Zm.48-1.53H210.7v-1.5H215a1.87,1.87,0,0,0,.59-.1,1.18,1.18,0,0,0,.58-.45l4.93.75-.1,1.05Zm-6.8,10a1.74,1.74,0,0,1-1.34-.15,1.76,1.76,0,0,1-.84-1c0-.12-.06-.32-.1-.59s-.06-.59-.07-.95,0-.75,0-1.18,0-.85-.05-1.28c0-1-.05-2.1-.05-3.3.63,1,1.21,1.95,1.75,2.8l.66,1.1c.23.36.43.71.61,1s.34.6.47.84a3.11,3.11,0,0,1,.23.54,1.76,1.76,0,0,1-1.22,2.2Zm13.35-12.8-.85-1.58,4.65,1.48-.2,5.7v14.25l-3.6.82Z" transform="translate(-190.76 -367.46)"/><path class="cls-2" d="M258.43,414.51a2.24,2.24,0,0,1-.74.53,2.33,2.33,0,0,1-.86.22,2.28,2.28,0,0,1-.89-.14,2.62,2.62,0,0,1-.81-.49,4,4,0,0,1-.73-.91c-.3-.46-.61-1-.93-1.55s-.65-1.15-1-1.74-.58-1.09-.8-1.52a7.84,7.84,0,0,1-1.32,2,9.42,9.42,0,0,1-1.73,1.51,11.5,11.5,0,0,1-1.93,1.09,16.12,16.12,0,0,1-2,.73,19.2,19.2,0,0,1-4.85.75,11.19,11.19,0,0,0,2.52-1.09,10.9,10.9,0,0,0,1.93-1.44,9.44,9.44,0,0,0,1.4-1.61,11.32,11.32,0,0,0,1-1.66,12.41,12.41,0,0,0,1.1-4.08l-1-1.27,5.8.92a9.67,9.67,0,0,1-.6,3.45l1.59.65c.64.27,1.28.54,1.93.83s1.22.56,1.76.83a5.51,5.51,0,0,1,1.07.67,2.11,2.11,0,0,1,.75,1.61A2.37,2.37,0,0,1,258.43,414.51Zm-1.3,3.32a2.69,2.69,0,0,1,1.09-.45,3,3,0,0,1,1.15,0,2.91,2.91,0,0,1,1.05.47,2.82,2.82,0,0,1,.78.9l.75,1.38h-21.9v-1.5H255.4a1.85,1.85,0,0,0,1-.33Z" transform="translate(-190.76 -367.46)"/><path class="cls-2" d="M286.28,417.83a2.69,2.69,0,0,1,1.09-.45,3,3,0,0,1,1.15,0,2.91,2.91,0,0,1,1.05.47,2.82,2.82,0,0,1,.78.9l.75,1.38H269.2v-1.5h5.35l-.07-5,4.3.33-.1,4.7h5.87a1.87,1.87,0,0,0,1-.33Zm.62-11.9-.25,8.9-4.27.73v-4.78L272.1,412l-1-1.65,11.25-.7v-3.43H271.6v-1.5h9.3a1.83,1.83,0,0,0,.59-.1,1.2,1.2,0,0,0,.59-.45l4.92.75Z" transform="translate(-190.76 -367.46)"/><path class="cls-2" d="M220.08,434.83a5.47,5.47,0,0,1,2.17.44,5.38,5.38,0,0,1,1.78,1.2,5.83,5.83,0,0,1,1.19,1.79,5.72,5.72,0,0,1,0,4.35,5.79,5.79,0,0,1-1.19,1.78,5.38,5.38,0,0,1-1.78,1.2,5.3,5.3,0,0,1-2.17.44h-4.93v6.13h-4.07v-15.9l-1.18-1.43Zm-2.53,9.75a4,4,0,0,0,1.59-.32,4.09,4.09,0,0,0,2.15-2.2,4.15,4.15,0,0,0,.31-1.63,4.2,4.2,0,0,0-.31-1.61,4.46,4.46,0,0,0-.86-1.34,4.16,4.16,0,0,0-1.29-.9,4,4,0,0,0-1.59-.32h-2.4v8.32Z" transform="translate(-190.76 -367.46)"/><path class="cls-2" d="M240.93,447.73l-.7,4.4v0H228.05v-15.9l-1.17-1.43H240.7V438l-1.42-1.7h-7.13v6.52H238v1.43h-5.85v6.52h6.65Z" transform="translate(-190.76 -367.46)"/><path class="cls-2" d="M243.35,445.81a3.83,3.83,0,0,0,.41,1.61,6.77,6.77,0,0,0,1.09,1.6,5.92,5.92,0,0,0,1.53,1.21,3.45,3.45,0,0,0,1.72.48,4.2,4.2,0,0,0,1.38-.22,3.49,3.49,0,0,0,1.12-.58,2.7,2.7,0,0,0,.75-.9,2.59,2.59,0,0,0,0-2.28,2.52,2.52,0,0,0-.68-.81,3.62,3.62,0,0,0-1-.56,8.55,8.55,0,0,0-1.29-.38,12.73,12.73,0,0,1-2.75-1,5.46,5.46,0,0,1-2-1.64,4.9,4.9,0,0,1-.73-1.29,4.22,4.22,0,0,1-.25-1.46,4.41,4.41,0,0,1,.45-2,5.31,5.31,0,0,1,1.24-1.63,6.11,6.11,0,0,1,1.83-1.1,6.45,6.45,0,0,1,4.36,0,5.85,5.85,0,0,1,1.77,1l1.65-1.38v5.55a12.64,12.64,0,0,0-1.62-1.9,9.74,9.74,0,0,0-1.76-1.32,4.2,4.2,0,0,0-2.17-.6,2.5,2.5,0,0,0-1.67.53,1.86,1.86,0,0,0-.63,1.49,1.75,1.75,0,0,0,.64,1.44,4.66,4.66,0,0,0,1.66.79q1.42.39,2.64.81a5.19,5.19,0,0,1,2.09,1.31,6.39,6.39,0,0,1,1.24,1.74,4.94,4.94,0,0,1,.43,2.11,5.33,5.33,0,0,1-.5,2.31,5.86,5.86,0,0,1-1.36,1.89,6.43,6.43,0,0,1-2,1.28,6.7,6.7,0,0,1-2.5.47,8.2,8.2,0,0,1-1.32-.11,6.55,6.55,0,0,1-1.34-.4,10,10,0,0,1-1.44-.75,16.17,16.17,0,0,1-1.6-1.16v-4.2Z" transform="translate(-190.76 -367.46)"/><path class="cls-2" d="M271.33,447.66a8.89,8.89,0,0,1-1.35,2.08,7.22,7.22,0,0,1-1.64,1.39,6.73,6.73,0,0,1-3.49,1,8.46,8.46,0,0,1-3.37-.68,8.69,8.69,0,0,1-2.76-1.85,8.71,8.71,0,0,1-1.87-9.5,8.59,8.59,0,0,1,1.87-2.76,8.72,8.72,0,0,1,2.76-1.86,8.46,8.46,0,0,1,3.37-.68,10.88,10.88,0,0,1,2.25.26,14.8,14.8,0,0,1,2.25.69l1.28-.95v5l-.14-.33a4.41,4.41,0,0,0-.35-.67,7.33,7.33,0,0,0-.59-.85,4.66,4.66,0,0,0-.83-.83,4.38,4.38,0,0,0-1.13-.62,3.81,3.81,0,0,0-1.44-.25,4.86,4.86,0,0,0-2.32.57A6.26,6.26,0,0,0,262,438.4a7.85,7.85,0,0,0-1.26,2.3,8.42,8.42,0,0,0-.46,2.82,7.63,7.63,0,0,0,.49,2.78,7.2,7.2,0,0,0,1.31,2.22A6,6,0,0,0,264,450a5.3,5.3,0,0,0,2.3.53,3.38,3.38,0,0,0,1.84-.5,7.25,7.25,0,0,0,1.36-1.1,7.15,7.15,0,0,0,1.13-1.63Z" transform="translate(-190.76 -367.46)"/><path class="cls-2" d="M281.6,434.83a8.46,8.46,0,0,1,3.37.68,8.59,8.59,0,0,1,2.73,1.86,8.69,8.69,0,0,1,1.85,2.76,8.65,8.65,0,0,1-11.32,11.35,8.69,8.69,0,0,1-2.76-1.85,8.71,8.71,0,0,1-1.87-9.5,8.59,8.59,0,0,1,1.87-2.76,8.72,8.72,0,0,1,2.76-1.86A8.46,8.46,0,0,1,281.6,434.83Zm0,15.9a3.17,3.17,0,0,0,1.77-.56,5.32,5.32,0,0,0,1.46-1.55,8.76,8.76,0,0,0,1-2.3,10.21,10.21,0,0,0,.37-2.81,10.4,10.4,0,0,0-.37-2.83,8.48,8.48,0,0,0-1-2.3,5.58,5.58,0,0,0-1.46-1.55,3.1,3.1,0,0,0-1.77-.57,3.14,3.14,0,0,0-1.79.57,5.58,5.58,0,0,0-1.46,1.55,8.48,8.48,0,0,0-1,2.3,10.4,10.4,0,0,0-.37,2.83,10.21,10.21,0,0,0,.37,2.81,8.76,8.76,0,0,0,1,2.3,5.32,5.32,0,0,0,1.46,1.55A3.2,3.2,0,0,0,281.6,450.73Z" transform="translate(-190.76 -367.46)"/></svg>