<svg id="레이어_1" data-name="레이어 1" xmlns="http://www.w3.org/2000/svg" viewBox="0 0 118.73 119.23"><defs><style>.cls-1{fill:#468676;stroke:#468676;stroke-linecap:round;stroke-linejoin:round;stroke-width:4px;}.cls-2{fill:#fff;}</style></defs><rect class="cls-1" x="2" y="2" width="114.73" height="115.23" rx="20.4"/><path class="cls-2" d="M259.55,387.65a2.36,2.36,0,0,1,1-.42,2.64,2.64,0,0,1,1,0,2.6,2.6,0,0,1,.91.42,2.55,2.55,0,0,1,.69.8l.68,1.21h-5.7l-.07,1.44h2.69a1.63,1.63,0,0,0,.9-.29l.62-.44a2.41,2.41,0,0,1,.95-.4,2.62,2.62,0,0,1,1,0,2.44,2.44,0,0,1,.93.42,2.3,2.3,0,0,1,.69.79l.66,1.22H247.23v-1.33h7.19l0-1.44h-1.8l-3,.11-.5-1.43h6.8l.5-3.18-.22-1.06,3.81.68-.84,3.14Zm-10.14-3.89v-1.32h8a1.31,1.31,0,0,0,.5-.1,1.12,1.12,0,0,0,.51-.41l4.33.66-.06.93,0,.24Zm14.41,17.15H253.54l-1.45.13a1.41,1.41,0,0,1-1.1-.39,1.45,1.45,0,0,1-.48-1.07l-.31-3.51,3.21.29,5.46,0v-1.48h-8.32V393.6h6.8a1.76,1.76,0,0,0,.52-.1,1.27,1.27,0,0,0,.51-.41l4.32.68-.27,2.74.11,1.22h-9.13v1.85h4.64a1.45,1.45,0,0,0,.91-.28l.61-.42a2.33,2.33,0,0,1,1-.41,2.29,2.29,0,0,1,1,0,2.6,2.6,0,0,1,.91.42,2.37,2.37,0,0,1,.69.78ZM251.87,384c.43.26.82.52,1.19.77s.6.45.88.69a2.33,2.33,0,0,1,.55.59,1.36,1.36,0,0,1,.11,1,1.28,1.28,0,0,1-.66.8,1.33,1.33,0,0,1-1,.1,1.31,1.31,0,0,1-.8-.68,2.23,2.23,0,0,1-.18-.78c0-.36-.07-.73-.08-1.12A13.48,13.48,0,0,1,251.87,384Z" transform="translate(-238.13 -360.88)"/><path class="cls-2" d="M283.07,395.92a2.28,2.28,0,0,1,.95-.4,2.69,2.69,0,0,1,1,0,2.39,2.39,0,0,1,.92.42,2.28,2.28,0,0,1,.69.79l.66,1.22H268v-1.33h7.35l-.07-3.44h-3.41a1.41,1.41,0,0,1-1.1-.39,1.51,1.51,0,0,1-.48-1.08l-.33-4.1,3.45.29,6.54,0V385.6h-9.62v-1.33h2.76l1.24,0,1.55-.06c.55,0,1.07-.05,1.55-.09s.88-.08,1.22-.13.53-.11.59-.19l4.34.69-.27,3.62.11,1.22h-9.79v2.43h.25l9.92,0,.46,1.46-5.19,0-.09,3.46h2.53a1.61,1.61,0,0,0,.9-.28Z" transform="translate(-238.13 -360.88)"/><path class="cls-2" d="M298,386.48l-1.1,7.84,2.86-.26v-2.67l-1.72.15-.44-1.61h2.16v-6l-.75-1.39,4.11,1.3-.2,3.6v11.78l-3.16.71v-4.71l-10.19,1.57L288,395.14l5.79-.53.68-7.51L294.2,386Zm.41-1.35h-9.08v-1.32h3.8a1.63,1.63,0,0,0,.52-.09,1.11,1.11,0,0,0,.52-.4l4.33.66-.09.93Zm-6,8.82a1.52,1.52,0,0,1-1.18-.13,1.48,1.48,0,0,1-.73-.93,3.74,3.74,0,0,1-.09-.52c0-.24-.05-.52-.07-.84s0-.66,0-1,0-.75-.05-1.14c0-.88,0-1.85,0-2.91l1.54,2.47.58,1c.2.33.38.63.54.91s.3.53.41.74a3,3,0,0,1,.21.47,1.59,1.59,0,0,1-.13,1.21A1.52,1.52,0,0,1,292.44,394Zm11.75-11.31-.75-1.4,4.09,1.31-.17,5v12.59l-3.17.73Z" transform="translate(-238.13 -360.88)"/><path class="cls-2" d="M325.18,393a2.24,2.24,0,0,1-.65.47,2,2,0,0,1-1.54.07,2.42,2.42,0,0,1-.72-.43,4.22,4.22,0,0,1-.64-.81c-.26-.4-.54-.86-.82-1.37s-.57-1-.85-1.53-.51-1-.7-1.35a6.92,6.92,0,0,1-1.17,1.79,8.63,8.63,0,0,1-1.52,1.33,9.87,9.87,0,0,1-1.7,1,14,14,0,0,1-1.75.65,17.4,17.4,0,0,1-4.27.66,9.4,9.4,0,0,0,2.22-1,10.45,10.45,0,0,0,1.7-1.27,9.45,9.45,0,0,0,1.23-1.43,9.18,9.18,0,0,0,.84-1.47,10.79,10.79,0,0,0,1-3.6l-.9-1.13,5.11.82a8.4,8.4,0,0,1-.15,1.64,8.56,8.56,0,0,1-.38,1.41l1.4.58,1.69.72c.56.25,1.08.5,1.55.74a5.46,5.46,0,0,1,.95.59,2,2,0,0,1,.66,1.42A2.13,2.13,0,0,1,325.18,393ZM324,395.92a2.32,2.32,0,0,1,1-.4,2.64,2.64,0,0,1,1,0,2.33,2.33,0,0,1,.92.42,2.42,2.42,0,0,1,.7.79l.66,1.22H309v-1.33h13.5a1.67,1.67,0,0,0,.91-.28Z" transform="translate(-238.13 -360.88)"/><path class="cls-2" d="M343.52,395.92a2.37,2.37,0,0,1,1-.4,2.63,2.63,0,0,1,1,0,2.44,2.44,0,0,1,.93.42,2.51,2.51,0,0,1,.69.79l.66,1.22H328.5v-1.33h4.71l-.07-4.44,3.78.29-.08,4.15H342a1.66,1.66,0,0,0,.9-.28Zm.55-10.52-.22,7.86-3.76.64v-4.22l-9,1-.86-1.46,9.9-.61v-3h-9.48v-1.33h8.18a1.63,1.63,0,0,0,.52-.09,1.08,1.08,0,0,0,.52-.39l4.33.66Z" transform="translate(-238.13 -360.88)"/><path class="cls-2" d="M271.78,414.31a4.88,4.88,0,0,1,3.48,1.45,5.17,5.17,0,0,1,1,1.58,4.95,4.95,0,0,1,0,3.85,5.17,5.17,0,0,1-1,1.58,4.82,4.82,0,0,1-3.48,1.44h-4.33v5.42h-3.59V415.57l-1-1.26Zm-2.22,8.62a3.31,3.31,0,0,0,1.4-.29,3.57,3.57,0,0,0,1.13-.78,3.65,3.65,0,0,0,.76-1.16,3.92,3.92,0,0,0,0-2.86,3.63,3.63,0,0,0-.76-1.18,3.44,3.44,0,0,0-2.53-1.09h-2.11v7.36Z" transform="translate(-238.13 -360.88)"/><path class="cls-2" d="M285.31,414.31a7.32,7.32,0,0,1,3,.6,7.6,7.6,0,0,1,2.41,1.65,7.85,7.85,0,0,1,1.63,2.44,7.68,7.68,0,0,1-4,10,7.63,7.63,0,0,1-5.93,0,7.78,7.78,0,0,1-2.43-1.64,7.72,7.72,0,0,1-1.64-8.39,7.71,7.71,0,0,1,1.64-2.44,7.8,7.8,0,0,1,2.43-1.65A7.37,7.37,0,0,1,285.31,414.31Zm0,14.06a2.74,2.74,0,0,0,1.55-.5,4.6,4.6,0,0,0,1.29-1.37,7.36,7.36,0,0,0,.87-2,9.89,9.89,0,0,0,0-5,7.23,7.23,0,0,0-.87-2,4.86,4.86,0,0,0-1.29-1.37,2.64,2.64,0,0,0-3.12,0,4.86,4.86,0,0,0-1.29,1.37,7.23,7.23,0,0,0-.87,2,9.89,9.89,0,0,0,0,5,7.36,7.36,0,0,0,.87,2,4.6,4.6,0,0,0,1.29,1.37A2.76,2.76,0,0,0,285.31,428.37Z" transform="translate(-238.13 -360.88)"/><path class="cls-2" d="M304.78,428.37v1.26h-10.4l1-1.26v-12.8l-1-1.26H299v14.06Z" transform="translate(-238.13 -360.88)"/><path class="cls-2" d="M316.07,428.37v1.26H305.66l1-1.26v-12.8l-1-1.26h4.62v14.06Z" transform="translate(-238.13 -360.88)"/><path class="cls-2" d="M324.47,414.31a7.32,7.32,0,0,1,3,.6,7.6,7.6,0,0,1,2.41,1.65,7.85,7.85,0,0,1,1.63,2.44,7.68,7.68,0,0,1-4,10,7.63,7.63,0,0,1-5.93,0,7.78,7.78,0,0,1-2.43-1.64,7.55,7.55,0,0,1-1.64-2.43,7.82,7.82,0,0,1,0-6,7.71,7.71,0,0,1,1.64-2.44,7.8,7.8,0,0,1,2.43-1.65A7.37,7.37,0,0,1,324.47,414.31Zm0,14.06a2.74,2.74,0,0,0,1.55-.5,4.6,4.6,0,0,0,1.29-1.37,8,8,0,0,0,.87-2,9.89,9.89,0,0,0,0-5,7.86,7.86,0,0,0-.87-2,4.86,4.86,0,0,0-1.29-1.37,2.64,2.64,0,0,0-3.12,0,4.86,4.86,0,0,0-1.29,1.37,7.23,7.23,0,0,0-.87,2,9.89,9.89,0,0,0,0,5,7.36,7.36,0,0,0,.87,2,4.6,4.6,0,0,0,1.29,1.37A2.76,2.76,0,0,0,324.47,428.37Z" transform="translate(-238.13 -360.88)"/><path class="cls-2" d="M271.06,444.2a4.76,4.76,0,0,1,1.91.39,4.84,4.84,0,0,1,1.56,1.06,5.07,5.07,0,0,1,1.05,1.58,5,5,0,0,1,0,3.84,5.07,5.07,0,0,1-1.05,1.58,4.84,4.84,0,0,1-1.56,1.06,4.76,4.76,0,0,1-1.91.39h-4.34v5.41h-3.58V445.46l-1-1.26Zm-2.23,8.62a3.44,3.44,0,0,0,1.4-.29,3.59,3.59,0,0,0,1.89-1.94,3.63,3.63,0,0,0,.28-1.44,3.56,3.56,0,0,0-.28-1.42,3.61,3.61,0,0,0-.76-1.19,3.48,3.48,0,0,0-2.53-1.08h-2.11v7.36Z" transform="translate(-238.13 -360.88)"/><path class="cls-2" d="M289.4,455.6l-.61,3.89v0H278.07V445.46l-1-1.26h12.17V447l-1.26-1.5h-6.27v5.77h5.15v1.26h-5.15v5.76h5.85Z" transform="translate(-238.13 -360.88)"/><path class="cls-2" d="M291.54,453.9a3.39,3.39,0,0,0,.36,1.43,5.68,5.68,0,0,0,1,1.41,5.31,5.31,0,0,0,1.34,1.07,3.06,3.06,0,0,0,1.52.42,3.74,3.74,0,0,0,1.21-.19,2.92,2.92,0,0,0,1-.52,2.39,2.39,0,0,0,.66-.79,2.24,2.24,0,0,0,.24-1,2,2,0,0,0-.22-1,2.31,2.31,0,0,0-.6-.72,3.28,3.28,0,0,0-.89-.5,8,8,0,0,0-1.13-.33,11,11,0,0,1-2.42-.85,4.81,4.81,0,0,1-1.78-1.45,4.42,4.42,0,0,1-.64-1.13,3.62,3.62,0,0,1-.22-1.3,3.83,3.83,0,0,1,.4-1.74,4.36,4.36,0,0,1,1.09-1.44,5.08,5.08,0,0,1,1.6-1,5.67,5.67,0,0,1,3.84,0,5,5,0,0,1,1.56.89l1.46-1.21v4.9a11.91,11.91,0,0,0-1.43-1.68,7.94,7.94,0,0,0-1.56-1.17,3.66,3.66,0,0,0-1.9-.53,2.15,2.15,0,0,0-1.47.48,1.62,1.62,0,0,0-.55,1.31,1.53,1.53,0,0,0,.56,1.27,4.05,4.05,0,0,0,1.46.7c.84.23,1.61.47,2.32.71a4.66,4.66,0,0,1,1.84,1.16,5.64,5.64,0,0,1,1.09,1.54,4.49,4.49,0,0,1,.38,1.87,4.74,4.74,0,0,1-.44,2,5.13,5.13,0,0,1-1.2,1.67,5.85,5.85,0,0,1-4,1.55,7.36,7.36,0,0,1-1.16-.1,5.49,5.49,0,0,1-1.18-.36,9.12,9.12,0,0,1-1.27-.66,11.83,11.83,0,0,1-1.41-1V453.9Z" transform="translate(-238.13 -360.88)"/><path class="cls-2" d="M316.16,455.54a7.78,7.78,0,0,1-1.19,1.84,6.74,6.74,0,0,1-1.44,1.23,6.31,6.31,0,0,1-1.56.69,5.84,5.84,0,0,1-1.51.21,7.53,7.53,0,0,1-3-.59,7.72,7.72,0,0,1-2.43-1.64,7.67,7.67,0,0,1-1.64-8.39,7.59,7.59,0,0,1,1.64-2.45,7.61,7.61,0,0,1,5.4-2.24,9.64,9.64,0,0,1,2,.23,13.08,13.08,0,0,1,2,.61l1.12-.84v4.4a2.31,2.31,0,0,1-.12-.29,5.9,5.9,0,0,0-.31-.6,8,8,0,0,0-.52-.75,4.2,4.2,0,0,0-.73-.73,4.29,4.29,0,0,0-1-.55,3.42,3.42,0,0,0-1.27-.22,4.3,4.3,0,0,0-2.05.51,5.28,5.28,0,0,0-1.64,1.38,7,7,0,0,0-1.12,2,7.47,7.47,0,0,0-.4,2.49,6.84,6.84,0,0,0,.43,2.46,6.46,6.46,0,0,0,1.15,2,5.33,5.33,0,0,0,1.7,1.29,4.59,4.59,0,0,0,2,.46,2.94,2.94,0,0,0,1.62-.44,6.13,6.13,0,0,0,1.19-1,6,6,0,0,0,1-1.44Z" transform="translate(-238.13 -360.88)"/><path class="cls-2" d="M325.2,444.2a7.47,7.47,0,0,1,5.36,2.24,7.72,7.72,0,0,1,1.63,2.45,7.7,7.7,0,0,1,0,6,7.53,7.53,0,0,1-1.63,2.43,7.7,7.7,0,0,1-2.4,1.64,7.75,7.75,0,0,1-5.93,0,7.72,7.72,0,0,1-2.43-1.64,7.67,7.67,0,0,1-1.64-8.39,7.59,7.59,0,0,1,1.64-2.45,7.61,7.61,0,0,1,5.4-2.24Zm0,14.05a2.73,2.73,0,0,0,1.55-.49,4.6,4.6,0,0,0,1.29-1.37,7.73,7.73,0,0,0,.86-2,9,9,0,0,0,.32-2.48,9.16,9.16,0,0,0-.32-2.5,7.39,7.39,0,0,0-.86-2,4.73,4.73,0,0,0-1.29-1.37,2.68,2.68,0,0,0-1.55-.51,2.75,2.75,0,0,0-1.58.51,4.57,4.57,0,0,0-1.28,1.37,7.11,7.11,0,0,0-.87,2,9.16,9.16,0,0,0-.32,2.5,9,9,0,0,0,.32,2.48,7.43,7.43,0,0,0,.87,2,4.45,4.45,0,0,0,1.28,1.37A2.8,2.8,0,0,0,325.2,458.25Z" transform="translate(-238.13 -360.88)"/></svg>