<svg id="레이어_1" data-name="레이어 1" xmlns="http://www.w3.org/2000/svg" viewBox="0 0 118.73 61.37"><defs><style>.cls-1{fill:#fff;stroke:#468676;stroke-linecap:round;stroke-linejoin:round;stroke-width:4px;}.cls-2{fill:#468676;}</style></defs><rect class="cls-1" x="2" y="2" width="114.73" height="57.37" rx="20.4"/><path class="cls-2" d="M335.77,436.09h-2l-.52,3.35h-4l.53-3.35h-2.28l-.52,3.35h-4l.53-3.35h-2.38l.38-2.47h2.37l.68-4.28h-2.18l.38-2.47H325l.52-3.33h4l-.53,3.33h2.28l.52-3.33h4l-.53,3.33h2.23l-.38,2.47h-2.25l-.67,4.28h2Zm-7.92-2.47h2.27l.68-4.28h-2.28Z" transform="translate(-298.17 -400.9)"/><path class="cls-2" d="M358.85,423.14l-.33,3.38-.32,7.35-3.68-.58v-.5h-4l-3.65.75-.17-10.77,3.82.3v3h4v-2.47l-.25-1.23Zm6.67,18.15.78,1.38H352.77l-1.65.12a1.62,1.62,0,0,1-1.26-.42,1.59,1.59,0,0,1-.56-1.2l-.13-5.8,4.8.3v5.5h5.78a1.6,1.6,0,0,0,1-.33l.7-.47a3,3,0,0,1,1.11-.46,2.62,2.62,0,0,1,1.15,0,3,3,0,0,1,1,.48A2.64,2.64,0,0,1,365.52,441.29Zm-11-10v-3.7h-4v3.7Zm12.73-4.07a2,2,0,0,1,.83.16,2.16,2.16,0,0,1,1.27,2,1.9,1.9,0,0,1-.18.83,2.37,2.37,0,0,1-.46.66,2.12,2.12,0,0,1-.68.45,2,2,0,0,1-.81.16,1.8,1.8,0,0,1-1-.37,10.54,10.54,0,0,0-1.41-.8v5.85l-4.23.8V422l-1-1.6,5.45,1.5-.22,5.2v1.25a13.41,13.41,0,0,0,1.43-.78A1.8,1.8,0,0,1,367.25,427.22Z" transform="translate(-298.17 -400.9)"/><path class="cls-2" d="M381.3,424.79a7.84,7.84,0,0,1-.37,2.53,7.13,7.13,0,0,1-1,1.95c.58.18,1.13.39,1.65.61a5.31,5.31,0,0,1,1.1.61,2.1,2.1,0,0,1,.5.65,1.93,1.93,0,0,1,.18.78,2.22,2.22,0,0,1-.12.8,2.14,2.14,0,0,1-.41.72,2.11,2.11,0,0,1-1.47.67,2,2,0,0,1-1.51-.57,3.43,3.43,0,0,1-.72-1.06c-.27-.52-.52-1.07-.75-1.64a8.27,8.27,0,0,1-1.44.9,11.94,11.94,0,0,1-1.54.64,14.33,14.33,0,0,1-1.55.44,14.89,14.89,0,0,1-1.47.27,19.19,19.19,0,0,1-3.28.23A16.78,16.78,0,0,0,372.7,432a9.26,9.26,0,0,0,2.31-1.72,5.42,5.42,0,0,0,1.21-1.92,5.35,5.35,0,0,0,.3-2h-1.37l-3.9.25-.75-1.78ZM379,423a1.81,1.81,0,0,1-1,1,1.73,1.73,0,0,1-1.36,0,2.84,2.84,0,0,1-.91-.66c-.38-.36-.75-.73-1.11-1.12s-.89-.95-1.35-1.5l2-.15c.53,0,1.05,0,1.57,0a4.37,4.37,0,0,1,1.13.15,1.71,1.71,0,0,1,1,.94A1.74,1.74,0,0,1,379,423Zm11.37,18.3.78,1.38H377.57l-1.65.12a1.62,1.62,0,0,1-1.26-.42,1.59,1.59,0,0,1-.56-1.2l-.13-6.3,4.8.3v6h5.78a1.6,1.6,0,0,0,1-.33l.7-.47a3,3,0,0,1,1.11-.46,2.62,2.62,0,0,1,1.15,0,3,3,0,0,1,1,.48A2.64,2.64,0,0,1,390.32,441.29Zm1.53-13.07a2,2,0,0,1,1.48.62,2.08,2.08,0,0,1,.62,1.5,2.13,2.13,0,0,1-.65,1.49,2.07,2.07,0,0,1-1.5.61,1.77,1.77,0,0,1-1-.37,9.93,9.93,0,0,0-1.44-.8v4.85l-4.2.8V422l-1-1.6,5.45,1.5-.25,5.2v2.25a12.14,12.14,0,0,0,1.45-.78A1.76,1.76,0,0,1,391.85,428.22Z" transform="translate(-298.17 -400.9)"/></svg>