<svg id="레이어_1" data-name="레이어 1" xmlns="http://www.w3.org/2000/svg" viewBox="0 0 177.1 119.73"><defs><style>.cls-1{fill:#fff;stroke-width:5px;}.cls-1,.cls-2{stroke:#468676;stroke-linecap:round;stroke-linejoin:round;}.cls-2{fill:#468676;}</style></defs><rect class="cls-1" x="2.5" y="2.5" width="172.1" height="114.73" rx="20.4"/><path class="cls-2" d="M163.71,492.2s14.68-1.47,17.62-13.95-1.47-15.42-1.47-15.42S165.91,470.9,163,479c0,0-2.2-14.68-14.68-24.23,0,0-7.35,7.34-3.67,20.56s13.95,13.22,13.95,13.22l-5.88-17.63s9.55,14,9.55,16.89c0,0,7.34-10.28,10.28-10.28C172.52,477.51,163.71,490,163.71,492.2Z" transform="translate(-74.41 -426.4)"/><path class="cls-2" d="M194.47,486.28c0,.09,0,.17,0,.26-.14-4.27-3.67-8.13-9.3-10.93a21.46,21.46,0,0,1-.91,2.71c3.58,2.17,5.72,4.9,5.72,7.87,0,7.07-12.09,12.8-27,12.8s-27-5.73-27-12.8c0-3.36,2.73-6.41,7.19-8.7-.28-.84-.55-1.77-.76-2.62-6.57,2.84-10.77,7-10.92,11.67a2.28,2.28,0,0,1,0-.26c0,.12,0,.23,0,.34s0,.11,0,.17,0,.34,0,.51a31.5,31.5,0,0,0,63,0c0-.17,0-.34,0-.51a1,1,0,0,0,0-.17C194.47,486.51,194.47,486.4,194.47,486.28Z" transform="translate(-74.41 -426.4)"/></svg>